<?xml version="1.0" encoding="utf-8"?>
<!-- Generator: Adobe Illustrator 21.1.0, SVG Export Plug-In . SVG Version: 6.00 Build 0)  -->
<svg version="1.1" xmlns="http://www.w3.org/2000/svg" xmlns:xlink="http://www.w3.org/1999/xlink" x="0px" y="0px"
	 viewBox="0 0 1920 1080" style="enable-background:new 0 0 1920 1080;" xml:space="preserve">
<style type="text/css">
	.st0{display:none;}
	.st1{display:inline;fill:#E3E3E3;}
	.st2{display:inline;fill:#E3E3E3;stroke:#E3E3E3;stroke-width:2;stroke-miterlimit:10;}
	.st3{display:inline;fill:#E3E3E3;stroke:#E3E3E3;stroke-miterlimit:10;}
	.st4{display:inline;fill:#E3E3E3;stroke:#E3E3E3;stroke-width:1.5;stroke-miterlimit:10;}
	.st5{fill:#E3E3E3;}
	.st6{opacity:0.85;fill:#EABA21;}
	.st7{fill:#443703;}
</style>
<g id="Layer_2" class="st0">
	<path class="st1" d="M1217.1,260c-1.1-5.9-12.8-3.9-20.3-2.1c-0.5-5.4-1.2-10.7-2.2-16.1c-1.2-6.3-1.8-13.9-5.9-19.1
		c-0.9-1.2-2.9-0.4-3.3,0.9c-1.6,6.1,0.5,13.2,1.1,19.3c0.7,7,1.2,13.9,1.4,20.9c0.1,3.3,2.9,5.2,6,4.6c5.5-1,11.1-1.6,16.6-2.6
		C1213.2,265.3,1217.8,263.8,1217.1,260z"/>
	<path class="st1" d="M1257.1,216.2c-5.5,4.2-9.1,11.7-12.2,17.7c-4.2-3.9-10.3-6.5-15.2-9c-3.9-2-9.7-6.7-14.4-5.3
		c-2.2,0.7-2.5,4.1,0,4.7c2.3,0.5,4.7,3.1,6.6,4.3c2.4,1.6,4.8,3.2,7.3,4.7c3.9,2.4,8.1,5.5,12.6,6.8c-2.3,5.2-4.3,10.5-5.6,16
		c-1.2,5.5,6.2,7.3,8.2,2.3c2.7-6.7,4.9-13.6,7.6-20.3c2.5-6.3,6.8-13.1,7.9-19.8C1260.2,216.9,1258.6,215,1257.1,216.2z"/>
	<path class="st1" d="M1329.5,258.1c-1.9-9.1-8-16.3-17.9-15.8c-4.9,0.2-9.9,1.6-14.7,2.7c-5.6,1.2-10.6,2.5-15.6,5.4
		c-4.5,2.5-2.3,9.3,2.6,9.4c7.9,0.3,15.3-2.2,22.8-4.2c3.1-0.8,7.6-2.7,10.1,0.2c2.2,2.5,2.4,7.3,2.3,10.4
		c-0.2,14.4-10.6,27.7-19.4,38.3c-8.9,10.8-19.3,20.8-33.3,24.5c-13.8,3.6-28.9,1.7-42.4-2.4c-5.6-1.7-11-3.9-16.2-6.6
		c0.3-0.6,0.3-1.4-0.1-2.3c-2.4-4.9-5.4-11.1-6.6-17.1c1.6,1.7,3.2,3.3,4.8,5c2.4,2.5,4.7,5.1,8.4,3.5c3.5-1.5,5.3-6.4,7.1-9.6
		c1.5-2.5,3-5,4.5-7.4c0.6,3,1.2,6,1.8,9c0.9,4.4,1.1,9.7,5.1,12.4c1,0.7,2.6,0.2,3.2-0.8c2.4-4,0.2-9.4-0.8-13.6
		c-1.3-5.7-2.8-11.4-4.2-17c-0.7-3-4.8-3.3-6.3-0.8c-2.3,3.6-4.5,7.2-6.8,10.7c-1.3,2-3.6,6.7-5.9,9.2c-1.4-1.4-3.5-3.9-4.5-4.9
		c-2.4-2.4-4.9-4.9-7.5-7.2c-2.5-2.3-6.8-0.1-5.8,3.4c1.3,4.9,1.5,10,3.1,15c1,2.9,2.1,5.8,3.5,8.5c-15.2-9.8-27.3-24-33.5-41.3
		c-9-25-5-53.3,12.9-73.4c22.6-25.5,57.4-26.1,88.7-20c3.9,0.8,5.4-4.6,1.6-5.9c-31.6-11.1-67.8-10.7-93.6,13.2
		c-23.3,21.6-31.5,55.2-22.7,85.5c9.3,31.7,35.1,55.4,66.4,64.9c16,4.9,34.6,6.4,50.7,1.2c16-5.2,28.3-17.2,38.5-30.1
		C1321.3,295.4,1333.6,277.6,1329.5,258.1z"/>
	<path class="st1" d="M1278.9,290.7c-0.5-6.3-0.7-15.9-5.6-20.4c-1.6-1.5-4.2-0.8-4.8,1.3c-1.3,4.3,0.4,9.2,1,13.6
		c0.4,3.1,1,6.8,1,10.3c-0.8-0.5-1.6-1-2.4-1.5c-2.4-1.6-4.7-3.4-6.9-5.3c-4-3.5-8.2-7.3-11.9-11.1c-1.1-1.1-3.3-1-4.1,0.5
		c-0.8,1.7-0.9,3.3-0.1,4.7c0,0.2,0,0.3,0.1,0.5c0.9,4.9,1.8,9.9,2.4,14.9c0.5,4.2,0.3,8.4,2.2,12.2c0,0,0,0,0.1-0.1
		c1.4,2.2,5.4,2.7,6.6-0.8c1.4-4.2,0.2-9.1-0.6-13.4c-0.1-0.4-0.2-0.7-0.2-1.1c0.7,0.7,1.4,1.3,2.1,2c3.8,3.3,10.5,9.7,16,9.3
		C1280.8,305.6,1279.3,295.6,1278.9,290.7z"/>
	<path class="st1" d="M1046.3,103.1c-2.6-7.4-13-4.3-18.1-2c-7.5,3.3-12.9,9.9-11.5,18.4c0.5,3,5.4,2.3,5.2-0.7
		c-0.2-5,2.7-9.1,7.1-11.3c2-1,12.6-5.1,10.4,0.1c-1.4,3.2-4.7,5.6-6.3,8.9c-1.6,3.4-2.6,7-3.2,10.7c-2.3,15.5,0.3,31.4-1.3,47
		c-1.6,15.7-6.1,31.9-16.5,44.2c-10.8,12.7-25.8,20.4-40.8,27.1c-4.6,2-9.2,4.4-14,5.7c-4.7,1.3-9.2,0.7-13.9,0.7
		c-4,0-8,0.6-11.5,2.8c-2.3,1.5-5.3,6.6-8.4,8c-0.7-6.2,3.1-12.2,5.4-17.9c3.1-7.5,3.7-14.9,2.6-22.9c-1.1-8.4-3.3-16.6-3.4-25.1
		c-0.1-8.7,1.6-17.3,5.2-25.2c3.4-7.3,8-13.9,12.5-20.5c4.6-6.7,9.4-13.4,15.4-19c12.3-11.2,28.1-13.6,43-19.1
		c4.3-1.6,2.5-7.3-1.9-6.7c-16.2,2.3-33.8,8.6-46.2,19.6c-6.4,5.7-11.5,12.7-16.4,19.7c-5.4,7.8-10.8,15.6-14.6,24.4
		c-3.5,8.2-5.2,17-5.3,25.9c0,9.5,2.5,18.5,3.6,27.8c1.2,9.9-2,17.1-5.7,26c-2.2,5.2-6.1,15.9-1.2,20.9c6.5,6.5,14.2-2.3,18.5-6.3
		c3.2-2.9,6.9-2.7,11-2.5c4.3,0.2,8.4,0.2,12.6-0.9c8.2-2.1,16.2-6.4,23.8-10c7.8-3.7,15.4-7.8,22.3-12.9
		c27.6-20.5,33.1-54.1,31.5-86.5c-0.4-9.1-1.8-18.5,0.7-27.4c1.3-4.8,4-7.9,6.8-11.8C1045.9,109.3,1047.4,106.2,1046.3,103.1z"/>
	<path class="st1" d="M976.3,203.6c-6.2,4.8-10.9,11.2-13.7,18.5c0,0.1-0.1,0.2-0.1,0.3c-1.2-1.5-3.4-2.9-4.7-4.1
		c-2.8-2.7-5.4-6.5-9.4-7.3c-1.9-0.4-3.1,1.4-2.9,2.9c0,0,0,0,0,0c0.7,4.8,6.2,9,9.5,12.3c2.5,2.6,5.5,6.7,9.6,5.6
		c4.1-1,4.7-5.6,6.2-8.9c2.5-5.2,6.1-9.2,10.3-13.1C984.4,206.9,979.9,200.8,976.3,203.6z"/>
	<path class="st1" d="M992.3,198.7c-1.1-2.8-2.7-5.5-4.5-8.1c1.5-2.1,0.2-4.5-2.3-4.9c-0.5-0.1-0.9-0.1-1.3,0
		c-0.6-0.8-1.2-1.6-1.8-2.4c-2.5-3.4-5.7-10-10.3-10.6c-0.6-0.1-1.2,0.1-1.3,0.8c-1.1,4.6,3.5,9.5,5.9,13.2c0.2,0.4,0.5,0.7,0.7,1.1
		c-1.5,0.5-3.1,0.9-4.7,1.1c-4.5,0.5-8.9-1.2-13.2-0.6c-2,0.3-3.4,2.6-1.7,4.2c4.9,4.6,16.3,5.1,24,2.2c1.7,2.6,3.6,5,5.7,6.9
		C989.4,203.3,993.4,201.6,992.3,198.7z"/>
	<path class="st1" d="M1002.4,149.7c-4.4-4.6-13.9-4.2-19.9-4.5c-2.4-0.1-4.7,2.7-3.8,5c1.5,3.7,3.3,7.1,5.5,10.2
		c-4.3,0.6-8.6,0.8-13,0.7c-3.5-0.1-4.7,4.1-2.7,6.4c6.3,7.3,14.9,12.8,24.5,14c2.3,0.3,3.4-3.6,1.2-4.5c-5.2-2.2-10.1-4.7-14.3-8.2
		c4.4-0.2,8.8-0.7,13.1-1.6c3.1-0.6,4-4.9,1.8-6.9c-2.2-2.1-4.1-4.3-5.7-6.8c1.2,0.1,2.4,0.2,3.6,0.4c2.9,0.4,5.6,1,8.4-0.1
		C1003,153.1,1003.8,151.2,1002.4,149.7z"/>
	<path class="st1" d="M1001.6,122.7c-0.8,0.6-0.7,1.7-0.3,2.5c1.1,2.5,11.9,6.7,6.5,8.5c-2.4,0.8-6,0.2-8.5,0.3
		c-3.1,0.1-6.2,0.5-9.2,1c-1.7,0.3-2.2,2.1-1.8,3.5c-2.1,0.8-2,4.4,0.6,4.2c3.2-0.3,7.8,3.3,10.6,4.8c3,1.5,6,3.1,8.9,4.6
		c3.7,1.9,6.7-3.3,3.2-5.5c-2.6-1.6-5.1-3-8-4c-0.5-0.2-0.9-0.3-1.4-0.4c-0.6-0.3-1.2-0.5-1.7-0.8c3.2,0.1,6.5,0.1,9.5-0.3
		c4-0.5,6.8-3.3,7.2-7.3C1017.9,126.3,1008.2,117.3,1001.6,122.7z"/>
	<path class="st1" d="M1376.8,158.7c4.4,8.1,7.3,15.6,15.1,21.2c15.3,11.1,37.6,11.1,55.6,12.2c23,1.4,46.3,0.8,69-3.7
		c21.6-4.3,44.7-12.2,60.4-28.3c6.1-6.2,15.8-18.1,11.9-27.5c-1.8-4.3-6-7-10.5-7.8c-6.3-1.2-11.7,1.4-17.5,3.3
		c-3.6,1.2-4.4,7.4,0,8.1c2.1,0.4,4.3,0.8,6.4,0.6c2.4-0.2,4.7-1.2,7-1.3c0.9-0.1,3.8-0.1,4.3,1.1c0.4,1.1-1.9,4.4-2.4,5.2
		c-4,6.8-9.6,12.6-16.1,17.1c-14.8,10.3-32.7,15.6-50.3,18.8c-19.3,3.5-39.1,3.9-58.7,3c-9.6-0.5-19.2-1.1-28.7-2.4
		c-7.3-1-14.9-2.5-21.4-6.2c-7.4-4.2-10.1-10.7-13.7-17.9c-3.6-7.1-9-12.4-16.8-14.4c-6.6-1.7-13.7-0.7-20.4-2
		c0.3-0.1,0.5-0.2,0.7-0.3c4.2-1.8,8.3-3.7,12.3-6.1c16.3-9.9,27.7-25.4,43-36.6c14.2-10.4,30.2-18.3,47.4-22.4
		c18.3-4.4,37.4-3.8,55.5,1.4c9.2,2.7,17.9,6.2,26.1,11.1c8,4.9,19,11.6,22.8,20.7c1.6,3.9,7.9,2.5,6.5-1.8
		c-2.9-9.2-10.5-16.6-17.5-22.9c-7.1-6.4-15.6-11.5-24.4-15.5c-18.2-8.1-38.3-10.7-58-8.2c-20.2,2.5-39.7,9.9-56.8,20.9
		c-8.4,5.4-16.4,11.7-23.7,18.6c-8.4,8-16,16.6-25.8,22.9c-4.4,2.8-8.9,5.3-13.7,7.4c-4.2,1.8-9.4,3.1-10.9,8.1
		c-0.7,2.5-0.5,4.6,0.4,6.3c-3.3,3.8-2.4,9.4-0.3,14c3.3,7.4,8.4,14.3,13.1,20.8c9.6,13.5,20.2,26.7,33.4,36.9
		c13.6,10.6,29.2,17.3,46.3,19.4c19.1,2.4,38.7,0,57.6-2.4c20.4-2.6,43.1-6.4,59.8-19.2c1.7-1.3,0.8-4.4-1.5-3.7
		c-15.9,4.8-31.6,9.4-48,11.8c-16.7,2.5-33.9,4.4-50.8,4.4c-16.3,0-32.3-2.7-46.6-10.8c-12.6-7.1-23.3-17.3-32.8-28.1
		c-5.6-6.5-10.7-13.3-15.9-20.1c-2.2-2.9-6.3-7.2-8.8-11.7c2.8-0.2,4.1-2.7,3.8-5c3.3,1,6.9,1.5,9.4,1.7
		C1362.4,150.3,1371.6,149.2,1376.8,158.7z"/>
	<path class="st1" d="M1435.7,138.1c-4,0.4-7.9,1.5-11.8,2.6c-1.8,0.5-4.9,0.7-6.6,1.6c0.7-3.9-0.1-8.9,0-12.9
		c0.2-4.7,0.8-9.5,0.7-14.2c-0.1-3.2-4.8-4.9-6.4-1.7c-3,5.9-4.3,12.7-5.2,19.3c-0.7,5.4-2.3,13,0.6,18c3.1,5.3,9,4.9,14.2,3.6
		c6.5-1.5,12.8-3.7,18-7.9C1442.4,144,1439.8,137.7,1435.7,138.1z"/>
	<path class="st1" d="M1466.8,114.1c-0.2-1.4-2.3-1.5-2.9-0.4c-3.2,6.2-6.1,12.1-8.7,18.5c-0.2-0.2-0.4-0.3-0.6-0.5
		c-2.2-1.8-4.1-4.1-6-6.2c-2.8-3.2-6.3-9.4-11.3-9.1c-2.2,0.1-3.7,3.6-1.3,4.6c0.5,0.2,1.5,2.5,1.8,3c0.6,1,1.3,2,1.9,3
		c1.5,2.5,3,5,4.9,7.3c2,2.5,4.4,5.2,7.4,6.6c-1.6,5.1-2.4,10.6,2.1,13.8c1,0.7,2.5,0.5,3.5,0c3.3-1.7,3.8-5.1,4.5-8.5
		c0.8-3.7,1.5-7.4,2.5-11.1C1466.8,128,1468,121.8,1466.8,114.1z"/>
	<path class="st1" d="M1499.6,121.5c-1-2.6-4.5-3.3-6.1-0.8c-1.4,2.2-2.8,4.4-4.3,6.5c-0.4,0.7-1,1.6-1.6,2.6
		c-0.5-2.1-1-4.6-1.3-5.4c-1.4-3-3.2-5.2-5.9-7.1c-0.3-0.2-0.8-0.4-1.3-0.4c-0.1-0.2-0.2-0.3-0.3-0.5c-0.1-0.1-0.2-0.2-0.3-0.3
		c-0.7-0.7-1.7-0.8-2.6-0.3c-3.2,1.7-3.6,7.5-4.1,10.6c-1.7,5.5-1.9,11.4-2.4,17.5c-0.4,5,8.1,6.2,8.8,1.2c0.7-4.9,0.9-9.8,1.2-14.7
		c0-0.1,0-0.3,0-0.4c0.7,4.4,1,9.2,5.1,11.1c3.2,1.5,6.1-0.3,7.7-3c0.9-1.5,1.7-3.1,2.4-4.6c0.5,4.7,0.8,9.5,1.3,14.2
		c0.4,3.4,5.5,4.7,6.4,0.9C1504.5,139.3,1502.9,130.2,1499.6,121.5z"/>
	<path class="st1" d="M1535.9,123.6c-0.9-0.8-2.4-1.2-3.5-0.5c-2.8,1.7-3.4,4.4-4.1,7.5c-0.3,1.4-0.8,2.7-1.2,4
		c-3.6-4.1-7.2-8.1-11.2-11.8c0-0.4-0.1-0.9-0.1-1.3c-0.3-3.2-4.7-3.2-5,0c-0.5,6.6-1,13.1-1,19.7c0,0,0,0,0.1,0c0.2,4.3,7,4.7,7,0
		c0-2.5-0.1-4.9-0.2-7.3c2.6,3.7,5.2,7.4,7.7,11.2c1.9,3,5.9,2.9,7.8,0C1535.4,140.1,1541.7,128.8,1535.9,123.6z"/>
	<path class="st1" d="M1551.5,393.3c-12-13.4-35-12.2-43.3,4.6c-2.8,5.5,4.5,9.5,8.1,4.8c5.9-7.8,15.9-9.8,23.5-5
		c-5.7,7-9.6,15.1-13.5,23.3c-4.6,9.8-9.7,19.2-16.1,27.8c-12.4,16.7-29,30.6-48.2,39c-46.2,20.1-98.9,7.3-144.1-9.3
		c-11.2-4.1-20.9-9.8-31.2-15.7c-4.4-2.5-9-4.7-14-5.5c-6.3-1.1-12.3,0.2-18.5,0.8c-4.6,0.5-10,0.5-13.6-2.9
		c-3.2-3.1-1.1-6.3,1.9-8.6c3.5-2.7,7.8-4.5,11.5-6.9c4.2-2.7,8-6,11.5-9.6c13.9-14.4,21.8-33.4,36-47.5
		c8.3-8.3,18.2-14.7,28.1-20.9c10.1-6.3,20.6-12,31.5-16.8c24.4-10.8,51.3-15.9,77.6-9.8c27.4,6.3,51.7,21.6,76.9,33.2
		c4.2,1.9,7.7-3.7,3.7-6.3c-22.2-14-45.5-28.2-70.8-36.1c-24.9-7.8-50.8-6.4-75.5,1.8c-23.8,7.9-46.7,20.6-66.7,35.6
		c-9.5,7.2-17.6,15.3-24.5,25c-6.3,8.7-11.7,18.2-18.2,26.7c-6.6,8.6-14.2,14.1-23.3,19.7c-8,4.9-15.6,13.2-10.9,23.2
		c4.6,9.7,16.3,11.8,25.9,10.7c6.3-0.7,12.5-2.1,18.7-0.2c5.8,1.8,10.8,5.6,16,8.7c11.1,6.7,23.4,11.1,35.6,15.2
		c12.9,4.4,26,8.3,39.3,11.2c25.6,5.5,52.2,7.2,78,1.6c25.9-5.6,49.3-19.4,67.2-38.9c8.3-9.2,15.6-19.4,21.3-30.4
		c6.2-11.9,10.5-25.2,20.2-34.8C1553.7,398.8,1553.5,395.4,1551.5,393.3z"/>
	<path class="st1" d="M1340.6,438.6c-4.2-1.5-9.8,0-13.8,1.6c-2.3,0.9-4.5,2-6.7,3.2c-1,0.6-2.5,2-3.5,2.2c-0.2,0-0.3,0.1-0.3,0.1
		c0-0.2,0-0.5-0.4-1.4c-2.6-5-4.7-10.4-7-15.6c-1.3-2.9-2.6-5.7-4-8.6c-1.2-2.4-1.8-5.1-3.3-7.3c-1.2-1.6-3.3-1.6-4.4,0
		c-3.5,4.9,1.9,13.4,3.8,18.2c1.6,3.8,3.1,7.6,4.7,11.4c1.2,2.9,2.1,6.3,4,8.8c3.8,5.3,8.9,3.5,13.6,0.7c3-1.8,6.1-3,9.1-4.5
		c3.2-1.6,6.6-2.4,9.4-4.8C1343.1,441.4,1342.2,439.2,1340.6,438.6z"/>
	<path class="st1" d="M1364.7,437.9c-0.6-4.9-1.5-9.8-2.1-14.7c-0.6-4.3-1.1-8.6-1.9-12.9c-0.7-4.3-0.9-9-2.9-12.9
		c-1.1-2.1-3.9-1.3-4.6,0.6c-1.6,4.3-1.1,9.9-1,14.4c0,2.7,0.2,5.5,0.5,8.2c-3.8-1.5-7.4-3.1-10.9-5.2c-3.6-2.2-7.1-4.7-10.7-7
		c-2.6-1.6-5.5-4.2-8.7-3.2c-1.8,0.6-2.7,3.6-0.6,4.6c3.5,1.5,6.5,5.1,9.5,7.5c3.1,2.5,6.5,4.8,10,6.8c1.8,1.1,7.9,4.1,12.2,4.3
		c0.6,7.2,0.8,17.6,6.4,21.5c1.3,0.9,3,0.2,3.8-1C1366.1,445.7,1365.1,441.7,1364.7,437.9z"/>
	<path class="st1" d="M1415,414.2c-2.5-6.8-5.4-13.3-8.5-19.8c-1.3-2.8-6-2.1-6.6,0.9c-1.2,5.8-2.9,11.5-5.5,16.8
		c-1.1,2.3-3,4.6-3.9,7c0,0,0,0,0,0.1c-0.7-0.6-1.9-1.4-2.2-1.7c-5.9-5.8-9.1-13.2-16.6-17.4c-0.3-0.2-0.7-0.3-1.1-0.4
		c-0.1-0.2-0.1-0.3-0.2-0.5c-0.7-2-4.3-2.6-4.7,0c-1.6,10.9,2.5,22.8,7.7,32.3c2.6,4.7,9.3,0.6,7.1-4.2c-1.2-2.6-2.9-5.7-4.3-8.9
		c-0.7-1.7-1.3-3.4-1.9-5.2c-0.2-0.7-0.4-1.3-0.6-2c4.8,6.4,8.1,15.3,16.1,16.7c5.9,1,8.5-6.2,10.4-10.4c1.4-3,2.6-6,3.6-9.1
		c1,3,1.9,6,2.8,9c1.9,6,3.2,13.1,7.7,17.7c1.3,1.4,4.2,0.9,4.6-1.2C1420.3,427.3,1417.3,420.4,1415,414.2z"/>
	<path class="st1" d="M1469.6,379.6c-1.4-1.4-3.6-0.7-4.2,1.1c-1.9,5.6-1.1,11.7-1.2,17.6c-0.1,3.3-0.3,6.5-1,9.8
		c-0.6,3.1-0.5,3.9-3.4,2.1c-9.1-5.6-16.7-15.3-27.6-17.3c-0.4-0.1-0.8-0.1-1.2-0.1c-0.8-0.4-1.9-0.3-2.4,0.4c-0.4,0.5-0.7,1-1,1.5
		c-0.3,0.5-0.5,1-0.6,1.6c-1,3.4-0.2,7.5,0.4,10.9c1,5.9,2.9,11.8,5.7,17.1c2.3,4.4,9.9,1.3,8.1-3.4c-1.9-5-4.3-10.7-5.3-16.4
		c4.2,3.1,7.9,6.9,11.8,10.2c5.4,4.5,12.6,10.7,20.1,6.7c6.6-3.5,7.3-11.7,7.7-18.4C1475.9,395.1,1475.6,385.5,1469.6,379.6z"/>
	<path class="st2" d="M606.2,431.1c0,0,0-0.1,0-0.1c-0.3-0.2-0.6-0.4-0.9-0.6c-0.6-0.2-1.2-0.3-1.8-0.4c-0.5,0-1,0.1-1.5,0.3
		c0,0-0.1,0-0.1,0c-0.1,0-0.2,0.1-0.3,0.1c-0.7,0.5-1.4,1-2,1.6c-2.4,2.8-3.3,7.7-3.1,11c0.2,2.5,0.9,5.5,3.2,6.9
		c2.6,1.5,5.2-0.2,6.7-2.4C609.3,442.7,609.9,435.6,606.2,431.1z M601.3,444.1c0-0.1,0-0.2-0.1-0.2c0.1,0,0.1,0,0.2,0
		C601.4,443.9,601.3,444,601.3,444.1z M603.4,432.4c0,0,0.1,0,0.1,0c0,0.1,0,0.1,0,0.2C603.5,432.5,603.4,432.4,603.4,432.4z"/>
	<path class="st2" d="M663.9,434.3C663.9,434.2,663.9,434.2,663.9,434.3c-0.3-0.3-0.6-0.5-0.9-0.7c-0.6-0.2-1.2-0.3-1.8-0.4
		c-0.5,0-1,0.1-1.5,0.3c0,0-0.1,0-0.1,0c-0.1,0-0.2,0.1-0.3,0.1c-0.7,0.5-1.4,1-2,1.5c-2.4,2.6-3.3,7.2-3.1,10.2
		c0.2,2.3,0.9,5.1,3.2,6.4c2.6,1.4,5.2-0.2,6.7-2.2C667.1,445.2,667.7,438.5,663.9,434.3z M659.1,446.4c0-0.1,0-0.1-0.1-0.2
		c0.1,0,0.1,0,0.2,0C659.2,446.3,659.1,446.4,659.1,446.4z M661.2,435.5c0,0,0.1,0,0.1,0c0,0.1,0,0.1,0,0.2
		C661.3,435.6,661.2,435.5,661.2,435.5z"/>
	<path class="st3" d="M588.4,421c2.2,0.6,4.6,0.3,6.8,0.3c2.4,0,4.7,0,7.1,0.1c2.3,0.1,4.5,0.2,6.8,0.4c1.2,0.1,2.3,0.2,3.5,0.3
		c1,0.1,2.2,0.3,3.2-0.1c0.3-0.1,0.4-0.5,0.1-0.7c-0.8-0.6-1.9-0.7-2.8-0.8c-1.2-0.2-2.4-0.4-3.7-0.5c-2.4-0.3-4.8-0.5-7.2-0.6
		c-2.3-0.1-4.6-0.1-6.9-0.1c-2.3,0-4.9-0.1-7.1,0.8C587.7,420.2,587.9,420.9,588.4,421z"/>
	<path class="st3" d="M673.9,422.3c-2.1-1.1-4.6-1.4-6.9-1.8c-2.3-0.3-4.7-0.5-7.1-0.5c-2.4-0.1-4.8,0-7.2,0.2
		c-1.2,0.1-2.5,0.2-3.7,0.4c-0.9,0.1-2.1,0.2-2.7,0.9c-0.1,0.1-0.1,0.3,0,0.4c0.8,0.6,1.8,0.3,2.7,0.2c1.2-0.1,2.3-0.2,3.5-0.2
		c2.4-0.1,4.9-0.2,7.3-0.1c2.4,0.1,4.7,0.3,7.1,0.5c2.3,0.2,4.6,0.7,6.9,0.6C674.1,422.9,674.1,422.5,673.9,422.3z"/>
	<path class="st4" d="M704.7,379.1c-0.2-1.2-0.3-2.4-0.6-3.6c0.5,20.1-3.8,40.4-12.2,58.4c2.3-14.1,2.7-28.5,1-42.6
		c-2.5,31.8-4.9,63.6-7.4,95.5c-0.4,5.6-1.1,11.7-4.8,15.8c-2.8,3-6.7,4.3-10.5,5.4c-18.8,5.5-38.1,9.9-57.5,9.7
		c-11.2-0.1-22.3-1.9-32.9-5.7c-5.3-1.9-10.4-4.3-15.2-7.2c-4.6-2.8-9.4-6-12.1-10.9c-0.2-0.4-0.4-0.7-0.6-1.1
		c-0.2-0.4-0.3-0.7-0.5-1.1c-0.8-1.9-1.4-3.8-1.9-5.8c-1.5-6.3-1.5-12.9-1.5-19.4c0-0.7-0.7-1.1-1.3-0.8c-2.7,1.6-6,1.4-8.7,0
		c-3-1.6-5-4.4-6.2-7.6c-2.2-6-1.9-13.2,0.8-18.9c1.3-2.8,3.1-5.2,5.6-7c1.2-0.8,2.7-1.8,4.1-1c1,0.6,1.7,1.7,2.4,2.6
		c1.6,2.2,3.4,4.1,6.2,3.6c3.2-0.6,5.1-3.8,5.8-6.9c1-3.9,1.4-8,1.8-12.1c1.3-0.6,2.5-1.5,3.7-2.4c2.5-2,4.9-4.1,7.1-6.5
		c2.2-2.4,4.2-5,5.9-7.7c0.9-1.4,1.8-2.8,2.5-4.3c0.3-0.7,0.7-1.4,1-2.1c1.7,0.1,3.3,0.3,5,0.5c3.7,0.4,7.4,0.7,11.1,1.1
		c14.6,1.4,29.3,2.8,44,2.2c6.5-0.3,13-1,19.4-2.1c0.1,0.1,0.2,0.2,0.3,0.2c1.3-0.2,2.5-0.3,3.7-0.9c6-1.2,11.9-2.8,17.8-4.8
		c3.3-1.1,6.5-2.3,9.8-3.7c2.8-1.2,5.6-2.3,8.2-4.1c2.2-1.6,4.2-3.6,5.3-6.3c1-2.4,1.2-5,0.8-7.5c-0.4-2.6-1.4-5-3.1-6.9
		c-0.8-1-1.8-1.7-2.8-2.4c-0.5-0.3-1-0.8-1.3-1.3c-0.4-0.8,0-1.6,0.5-2.3c0.8-1.2,1.7-2.1,2-3.5c0.2-1,0-2.8-1.2-3.1
		c-0.7-0.2-1.7,0.2-2.3,0.3c-1,0.1-1.9,0.3-2.9,0.4c-1.8,0.2-3.6,0.4-5.4,0.5c-1.1,0.1-2.1,0.1-3.2,0.2c0.6-1,1-2.3,0.9-3.6
		c-0.1-2.4-1.3-4.4-3.2-5.7c-5.1-3.5-11.1-0.5-16.1,1.5c-5.8,2.4-11.9,4.6-18.2,5.1c-5.3,0.4-10.6-0.5-15.7-1.9
		c-10.3-2.8-20.1-7.7-30.6-9.6c-5-0.9-10-1.2-15-0.1c-5.9,1.2-11.2,4.4-16.5,7.3c-5.6,3-11.5,5.5-17.5,7.2c-1,0.3-2.4,0.8-3.1-0.4
		c-0.4-0.7-0.5-1.5-0.5-2.3c-0.1-1.7,0-3.6-0.9-5.1c-0.4-0.7-1-1.2-1.8-1.5c-0.4-0.1-0.8,0.1-0.9,0.4c-2.3,4-4.4,8.1-6.3,12.4
		c-1.1-1.6-2.4-3-4.2-3.8c-1.8-0.8-4-0.4-5.5,1c-1.8,1.8-1.2,4.3,0,6.2c1.2,2.2,2.8,4.2,4.4,6c-3.8,3.3-5.9,8.1-7.4,12.9
		c-1.8,6.1-2.9,12.4-3.6,18.7c-1.5,13.2-1.1,26.6,1.3,39.6c1.2,6.3,2.9,12.5,5,18.5c0.3,1.6,0.7,3.2,1.3,4.7
		c1.4,3.5,3.8,6.7,7.2,8.3c2.8,1.3,5.9,1.6,8.7,0.4c0,10.2,0.3,21,6.2,29.5c3.2,4.7,8.2,7.8,12.9,10.6c10.6,6.2,22.4,9.8,34.3,11.3
		c12.1,1.5,24.4,0.8,36.5-1.1c11-1.7,21.9-4.4,32.7-7.6c5.6-1.6,11.6-3.6,15.4-8.3c4.5-5.5,5-13.3,4.9-20.6
		c-0.1-7.2-0.5-14.9,2.8-21.2c2-3.9,5.4-7.1,6.5-11.4c0.7-2.7,0.5-5.5,0.4-8.2C698.2,420.2,707.4,399.5,704.7,379.1z M528.5,448.8
		c-2.7-9.5-4.4-19.4-4.9-29.3c-0.7-12.8,0.4-25.7,3.4-38.1c1.4-5.8,3.4-12.2,8.3-15.8c0.5-0.3,0.6-1,0.2-1.5c-1.5-1.5-2.8-3.2-4-5
		c-0.9-1.3-2.6-3.6-1.3-5.2c1-1.1,2.7-1.3,4-0.7c1.7,0.8,3,2.6,4,4.2c0.3,0.5,1.2,0.7,1.5,0c1.9-4.4,4-8.8,6.4-12.9
		c0.8,0.8,0.8,2.7,0.8,3.8c0.1,1.6,0.2,3.5,1.4,4.6c1.8,1.8,4.9,0.3,6.9-0.3c2.8-0.9,5.6-2,8.3-3.2c5.5-2.4,10.6-5.7,16.1-8.2
		c4.9-2.2,10.1-3.3,15.4-3c10.2,0.5,19.9,4.9,29.6,8.2c4.8,1.6,9.7,3.1,14.7,3.8c5.5,0.8,11,0.4,16.3-1c3.2-0.9,6.4-2,9.5-3.3
		c3.2-1.3,6.3-2.9,9.7-3.5c2.8-0.4,6.2,0.2,7.9,2.8c1.3,2,1,5.2-1.1,6.4c-0.7,0.4-0.4,1.7,0.4,1.7c5.2-0.2,10.3-0.6,15.4-1.4
		c0.5,1-0.6,2.3-1.2,3.1c-0.8,1-1.5,2.1-1.5,3.4c0,2.6,2.8,3.6,4.3,5.1c3.2,3.3,4.2,8.9,2.2,13.2c-2.4,5.2-8.4,7.4-13.2,9.3
		c-6,2.4-12,4.3-18.2,5.8c-1.1,0.3-2.1,0.5-3.2,0.8c1.7-1.7,3.1-3.6,4.4-5.7c1-1.6,3.9-5.8,0.8-6.9c-1.4-0.5-3.1,0-4.5,0.1
		c-1.7,0.2-3.4,0.4-5.1,0.7c-3.9,0.6-7.9,1.3-11.7,2.7c-0.5,0.2-0.3,1.1,0.2,0.9c3.8-0.7,7.5-1.5,11.3-2.1c1.9-0.3,3.9-0.5,5.9-0.7
		c0.8-0.1,1.7-0.2,2.5-0.2c0.3,0,0.9-0.1,1.2,0.3c0.3,0.5-0.2,1.2-0.4,1.6c-1.5,2.8-3.4,5.4-5.5,7.7c-0.9,0.9-1.8,1.7-2.9,2.5
		c-10.3,2.1-20.8,3.1-31.4,3.2c-7.1,0-14.1-0.4-21.1-0.9c3.8-0.4,7.5-1.9,10.7-4.3c2-1.5,3.7-3.2,5.2-5.2c0.9-1.2,3.2-3.9,1.6-5.4
		c-0.8-0.8-2.1-0.4-3.1-0.4c-1.7,0.1-3.4,0.3-5.1,0.4c-1.4,0.1-2.9,0.2-4.3,0.3c-0.3,0-3.4,0.5-3.5-0.2c-0.1-0.4,1.1-1.4,1.3-1.6
		c0.4-0.5,0.9-1,1.3-1.5c0.5-0.6,1-1.2,1.6-1.8c0.4-0.5,1.1-1.1,1.3-1.8c0.6-2.7-3.8-2.1-5-2.1c-3.4,0-6.8,0-10.2,0.1
		c-1.7,0-3.4,0.1-5.1,0.1c-1.4,0-3.2-0.3-4.4,0.7c0,0,0,0,0,0c0.9,0.8,2,0.6,3.2,0.6c1.4,0,2.9,0.1,4.3,0.1c2.8,0,5.5,0.1,8.3,0.1
		c1.3,0,2.6,0,3.9,0c0.7,0,1.3,0,2,0c0.3,0,0.7-0.1,1,0c0.3,0.1,0.4-0.2,0,0.2c-0.9,1-1.8,2.1-2.7,3.2c-0.7,0.9-1.9,1.8-2.3,3
		c-0.8,2,1.4,3,2.9,3c2.7,0,5.4-0.4,8.1-0.6c1.3-0.1,2.6-0.2,3.9-0.3c0.3,0,0.9-0.2,1.2-0.1c0.1,0,0.1,0,0.2,0c0,0,0,0.1,0,0.1
		c0,0.4-0.6,1.2-0.8,1.5c-1.3,1.9-2.8,3.6-4.5,5c-3.8,3.2-8.5,5.1-13.3,6c-0.3,0-0.3,0.3-0.3,0.6c-5.5-0.5-10.9-1-16.3-1.5
		c-3.4-0.3-6.8-0.7-10.2-1c-0.6-0.1-1.1-0.1-1.7-0.2c-0.1,0.1-0.1,0.2-0.2,0.2c0-0.1,0-0.1,0-0.2c0-0.4-0.4-0.5-0.7-0.3
		c-1,1.1-1.6,2.5-2.4,3.7c-0.8,1.2-1.5,2.5-2.3,3.7c-1.7,2.5-3.5,4.8-5.5,7c-2,2.2-4.1,4.2-6.3,6c-1.1,0.9-2.3,1.8-3.5,2.6
		c-1.2,0.9-3,2-4.6,1.7c-0.5-0.1-0.8,0.6-0.3,0.9c1.1,0.7,2.1,0.8,3.3,0.6c-0.4,3.4-1,6.8-1.7,10.1c-0.4,1.9-1,3.9-2.4,5.2
		c-1.2,1.2-3,1.9-4.5,1c-2.2-1.2-3-4.1-5.2-5.5c-2.7-1.7-5.7,0.5-7.7,2.3c-2.3,2.1-3.9,4.8-5.1,7.6
		C529.2,442.5,528.6,445.6,528.5,448.8z M697.7,437.3c0.3,3.1,0.1,6.3-0.8,9.3c-1.2,4.4-3.7,8-6.7,11.3c0.2-6.8,0.4-13.5,0.9-20.2
		c1.2-0.9,2.2-2.1,3.1-3.3c0.8-1,1.4-2.1,2.1-3.2C696.9,433.2,697.5,435.2,697.7,437.3z"/>
	<path class="st3" d="M543.3,446c-1.7-1.2-4.3-2.3-6.5-1.9c0.5-1.3,1.3-2.4,2.4-3.1c2.1-1.4,5.1-0.8,6.5,1.4
		c0.2,0.4,0.9,0.1,0.7-0.3c-0.8-2-2.9-3-4.9-3c-2.3,0-4.3,1.5-5.5,3.6c-2.6,4.6-1.2,10.4,2.1,14.2c1.8,2,4.4,3.7,7.1,3.6
		c0.4,0,0.5-0.6,0.1-0.7c-2.5-1-4.6-2.2-6.4-4.3c-1.6-2-2.7-4.5-2.8-7.1c0-1.1,0.1-2.2,0.4-3.2c0.9,0.1,1.8,0.1,2.7,0.4
		c1.2,0.3,2.3,0.9,3.3,1.6c1.9,1.4,3.4,3.5,4.4,5.7c0.1,0.2,0.4,0.1,0.4-0.1C547,449.7,545.5,447.5,543.3,446z"/>
	<path class="st3" d="M643.2,485.5c-4.9,0.1-9.8,0.4-14.6,0.1c-4.8-0.3-9.6-1.7-14.4-1.5c-0.4,0-0.5,0.5-0.2,0.7
		c7.9,4.6,20.9,4.3,29.5,2.3C644.4,486.9,644.2,485.4,643.2,485.5z"/>
</g>
<g id="Layer_1">
	<g>
		<path class="st5" d="M484.5,178.9c-1.7-3.8-3.5-7.9-5.9-11.4c-1.4-2-3.2-3.6-5.6-3.7c-1.6-10.2-5-20.3-8.5-29.8
			c-0.4-1-1.8-1.7-2.7-0.7c-3.4,4.1-6.3,8.6-8.5,13.4c-1,2.2-1.9,4.5-2.7,6.8c-0.6,1.7-1.1,3.8-2.3,5.2
			c-13.4-4.9-29.4,3.5-40.5,10.7c-0.2,0.1-0.3,0.2-0.4,0.4c-3.4-3.9-8.8-7-13.2-9.6c-5-2.9-10.3-5.2-15.8-7.1
			c-1.5-0.5-2.5,1.3-1.9,2.5c2.1,4.1,4.2,8.2,6.3,12.3c0.5,1,5.8,10.7,4.3,10.9c-0.2,0-0.4,0.2-0.3,0.4c0.4,0.9,1.6,1.4,2.6,0.9
			c1.6-0.9,1.1-3.2,0.5-4.5c-2.4-6-5.5-11.9-8.5-17.7c3.9,1.7,7.7,3.6,11.3,5.8c4.6,2.8,8.5,6.8,13.1,9.6c1.2,0.7,2.2,0,2.5-1
			c0.3,0.1,0.7,0,1.1-0.2c6.5-3.2,12.8-6.8,19.7-9c5.3-1.7,10.8-2.3,16.2-2.2c0,0.5,0.3,1.1,1,1c1.1-0.1,1.9-0.4,2.7-0.9
			c0.2,0,0.4,0,0.6,0c0.7,0.1,1.1-0.8,0.9-1.4c1.4-1.7,2.2-4.1,2.9-6.2c2.1-5.8,5.1-11.2,8.8-16c1.7,5.1,3.2,10.2,4.5,15.4
			c1.5,6.2,2.3,12.4,3.7,18.6c0.4,1.8,3.4,1.5,3.3-0.4c-0.1-1.4-0.2-2.8-0.4-4.2c1.7,1.4,2.8,3.8,3.7,5.6c1.6,3,3.1,5.9,4.4,9
			c2.4,5.7,3.7,11.7,3,17.9c-1.4,11.7-8.8,22.1-18.6,28.5c-10.3,6.7-22.7,9.5-34.9,9.6c-12.6,0.1-23.6-4.8-30.9-15.4
			c-3.7-5.4-5.9-11.6-7.2-18.1c-1.5-7.6-1-15-1.1-22.7c0-0.5-0.7-0.6-0.8-0.1c-3.6,13.1-1.8,29,5.2,40.7c6.8,11.5,17.9,18.2,31.2,19
			c25.9,1.6,56.9-12,60.7-40.6C489.2,193.1,487.5,185.8,484.5,178.9z"/>
		<path class="st5" d="M429.7,194c-0.1-1.3-0.5-2.7-1.5-3.6c-1-0.9-2.2-1.5-3.6-1.5c-1.2,0-2.4,0.5-3.3,1.3c-1.2,0.5-1.8,1.5-2,2.7
			c-0.3,0.6-0.5,1.2-0.5,1.9c0,0,0,0.1,0,0.1c-0.2,0.3-0.3,0.7-0.2,1c0.2,0.5,0.4,0.9,0.8,1.2c0.8,1.6,2.5,2.6,4.4,2.2
			c0.9,0.1,1.8-0.1,2.6-0.5c0.7-0.3,1.4-0.7,1.9-1.2C429.1,196.7,429.8,195.3,429.7,194z"/>
		<path class="st5" d="M428.3,181.6c-4.9,0.3-9.3,2.5-13.3,5.3c-0.8,0.5-0.1,1.7,0.7,1.3c4-2.4,8.4-4,12.7-5.9
			C428.8,182.1,428.6,181.6,428.3,181.6z"/>
		<path class="st5" d="M455.8,185.1c-0.1-1.4-0.9-2.4-2-3.1c0,0-0.1-0.1-0.1-0.1c-0.9-0.8-2-1.3-3.2-1.3h-0.2
			c-1.2,0-2.4,0.5-3.2,1.3c-0.7,0.7-1.3,1.9-1.3,3c-0.1,0.6-0.1,1.2,0,1.8c0.2,0.6,0.5,1.1,0.8,1.5c0.5,1.3,1.6,2.3,3.2,2.3
			c0.6,0,1.1-0.1,1.6-0.3c0.8-0.1,1.7-0.5,2.3-1.1C455,188.3,456,186.8,455.8,185.1z"/>
		<path class="st5" d="M454,175.2c-4.4-0.9-9.3,1-13.1,3.2c-0.6,0.3-0.2,1.3,0.4,1.1c2-0.7,4.1-1.3,6.2-1.7c2.1-0.5,4.3-0.4,6.4-1
			C454.7,176.6,454.8,175.4,454,175.2z"/>
		<path class="st5" d="M436.6,204.2c-7.7,0.6-15.7,1.6-22.9,4.5c-0.6,0.2-0.4,1.3,0.3,1.2c7.6-1.6,15-3.6,22.8-4.3
			C437.5,205.5,437.4,204.2,436.6,204.2z"/>
		<path class="st5" d="M436.3,206.6c-5.9,3.1-12,6-17.6,9.6c-0.4,0.2,0,0.8,0.4,0.7c6.1-2.6,11.9-5.9,17.8-9.1
			C437.6,207.4,437.1,206.2,436.3,206.6z"/>
		<path class="st5" d="M436.3,207.1c-2.2,3.6-10.6,11.1-12.8,14.7c-0.3,0.5,0.5,0.8,0.8,0.4c2.3-3.6,10.9-11,13.2-14.5
			C438,207,436.8,206.4,436.3,207.1z"/>
		<path class="st5" d="M467.4,189.8c-7.6,3.7-14.9,7.9-22.2,12.3c-0.6,0.3-0.1,1.2,0.5,0.9c7.5-3.9,14.9-8,22-12.6
			C468.1,190.1,467.8,189.6,467.4,189.8z"/>
		<path class="st5" d="M448.2,203.8c0,0.3,0.1,0.5,0.5,0.6c5.3,0.5,16.4-0.3,21.6-1.4c0.2-0.1,0.2-0.5-0.1-0.4
			c-5.2,0.5-15.9,1.5-21.1,0.9L448.2,203.8z"/>
		<path class="st5" d="M454.4,201.4c5-2.1,9.9-4.3,14.7-6.9c0.3-0.1,0-0.5-0.2-0.4c-6.9,3.1-13.8,6.1-20.9,8.6
			c-0.7,0.2-0.4,1.4,0.3,1.1c1.8-0.7,3.5-1.4,5.3-2.1L454.4,201.4z"/>
		<path class="st5" d="M454.4,210.5c-2.1,2.7-5.4,2.9-8,0.8c-2-1.6-3.1-4.1-4.6-6.1c-0.2-0.3-0.7-0.3-0.7,0.1
			c-0.1,0.6-0.2,1.2-0.1,1.9c0,0,0-0.1,0-0.1c-0.2-0.6-1.3-0.4-1,0.3c1,2.8,2,7,0.9,9.9c-1.3,3-4.6,2.8-7.1,1.7
			c-0.6-0.3-1.2,0.3-0.9,0.9c1.6,3,6.2,2.8,8.2,0.3c1.8-2.2,1.8-5.5,1.3-8.5c1.1,1.8,2.7,3.3,4.8,4.1c3.7,1.4,8.4-0.6,8.8-4.8
			C455.9,210.1,454.8,210,454.4,210.5z"/>
	</g>
	<g>
		<path class="st5" d="M1837.4,152.6c-3-3.7-6.1-7.5-9.1-11.2c-1.4-1.8-4.2,0.4-2.8,2.2c1.1,1.4,2.3,2.8,3.4,4.3
			c-2.4,2.3-5.1,4.3-8.2,5.6c-3.2,1.4-6.9,1.4-10,2.9c-1.1-1.6-2.3-2.9-3.7-3.7c0.9-0.2,1.6-0.7,2.1-1.4c0.4-0.7,0.2-1.6-0.5-1.9
			c-0.6-0.3-0.9-0.2-1.5,0.2c-0.2,0.1-0.3,0.4-0.2,0.6l0,0c-0.7-0.6-1.6-0.9-2.5-1c-0.6-0.2-1.3-0.3-1.9-0.6
			c-0.9-0.3-1.8-0.7-2.7-1.2c-2.2-1.1-4.3-2.6-6.2-4.2c-3.6-3.1-6.5-6.9-9-10.8c-5.8-9.1-12.5-24.6,0.6-30.9
			c9.7-4.7,23.2-5.9,30.1,3.7c7,9.7,9,22.8,11.1,34.3c0.2,1.1,1.9,1.2,2.1,0c1.2-11.8-2-24.7-8.2-34.8c-5.7-9.4-14.7-12.4-25.3-10.6
			c-10,1.7-20.3,5.7-21.8,17.1c-1.4,10.4,5.3,21.4,11.6,29.2c3.2,3.9,7.1,7.7,11.7,9.9c1.8,0.9,5.6,2.5,8.7,2.6
			c0.7,1.3,1.8,2,2.8,3.2c1.3,1.5,2.4,3.2,3.3,5c1.2,2.5,2,5.1,3.5,7.5c3,5,7.6,5.8,12.7,3.3c3.8-1.9,7.6-4,11.3-6
			c2.1-1.1,4.9-2.2,4.5-5.1C1842.8,157.7,1839.3,154.8,1837.4,152.6z M1838.1,162.3c-0.4,0.2-0.8,0.5-1.3,0.7
			c-1.5,1.1-3.4,1.9-5,2.8c-2.6,1.5-5.4,3.5-8.3,4.3c-6.2,1.6-8.4-6.4-11.8-12.4c3.4,1.4,8,0,11-1.5c3.1-1.6,5.8-3.9,7.7-6.8
			c0.5,0.7,1.1,1.3,1.6,2c1.8,2.2,5.2,5.2,6.3,7.9C1839.6,160.2,1839.5,161.2,1838.1,162.3z"/>
		<path class="st5" d="M1802.5,65.6c-2.6,6.7-4.9,13.5-7,20.4c-0.4,1.2,1.4,2,1.9,0.8c2.4-6.9,4.5-13.8,6.2-20.8
			C1803.8,65.2,1802.7,65,1802.5,65.6z"/>
		<path class="st5" d="M1781.1,88.1c-1.8-3.8-3.5-7.6-5-11.5c-1.3-3.4-2.2-7.5-4.9-10.1c-0.3-0.3-0.8-0.2-0.8,0.2
			c-0.6,3.5,1.1,7.3,2.5,10.5c1.7,4.1,3.5,8.1,5.5,12C1779.3,91,1782,89.8,1781.1,88.1z"/>
		<path class="st5" d="M1765.3,96.2c-8.2-2.7-16.5-4.1-25.2-3.3c-0.6,0.1-0.5,0.9,0,1c8.2,1.5,16.5,2.6,24.7,4.1
			C1765.9,98.2,1766.4,96.5,1765.3,96.2z"/>
		<path class="st5" d="M1789.1,136.2c0.1,0.3,0.1,0.6,0.2,0.9c0,0.2,0.3,0.1,0.3,0c0-0.3-0.1-0.6-0.1-1
			C1789.4,135.9,1789,136,1789.1,136.2z"/>
		<path class="st5" d="M1815.1,139.1c-2-3.3-4.4-6.2-7.2-8.8c1.5-0.9,3-1.6,4.5-2.4c2.2-1.1,0.7-4.6-1.5-3.5c-1.2,0.5-2.4,1-3.5,1.5
			c0.3-0.3,0.6-0.6,0.9-0.8c1.5-1.2,0.5-4-1.6-3.6c-1.4,0.3-3.5,0.4-4.8,1c0.3-0.5,0.6-1,0.9-1.5c1.4-2.1,3.1-4.1,2.8-6.7
			c-0.1-0.7-0.8-0.9-1.3-0.7c-2.3,0.8-3.4,3.1-4.6,5.1c-1,1.5-3.2,3.8-2.7,5.8c0.4,1.9,2.1,2.4,3.9,2.3c-0.5,0.6-0.9,1.2-1.3,1.8
			c-0.8,1.2,0.1,3.6,1.8,3.1c0.7-0.2,1.3-0.4,2-0.6c0.1,0.2,0.2,0.3,0.4,0.4c4.6,3.8,10.6,9.7,12,15.7c0.1,0.4,0.7,0.8,1.1,0.4
			C1819.3,145.3,1816.4,141.4,1815.1,139.1z"/>
	</g>
	<path class="st5" d="M712.1,769.2c-8.3-8.1-17.2-16.7-27.4-22.6c1-3.9-2.4-6.9-5.3-9.2c-2.4-1.9-4.9-3.8-7.4-5.5
		c-1.8-1.2-3.5-2.6-5.6-3.1c-0.2-0.4-0.5-0.8-0.9-1.2c-0.9-1-2.5-0.1-2.3,1.1c0.8,4.9-0.8,10.3,1.7,14.9c1.7,3.1,4.5,5.4,7.8,6.2
		c0.1,0.2,0.3,0.4,0.6,0.4c1.8,0.2,3.2,0.3,4.8-0.5c1.5-0.8,2.8-1.8,3.6-3.2c0.1-0.2,0.1-0.3,0.1-0.5c0.4,0.5,0.8,1,1.2,1.6
		c0.2,0.2,0.4,0.3,0.6,0.3c1.7,1.6,3.4,3.2,5.1,4.7c-0.6,0.3-1.1,0.7-1.6,1.1c-1.2,0.9-2.5,1.8-3.6,2.9c-0.2,0.2-0.3,0.4-0.3,0.6
		c-2.3-2-4.7-3.9-7-5.9c-0.5-0.4-1.2,0.2-0.7,0.7c8.8,8.5,18,16.7,27.5,24.6c9.7,8.1,19.5,16.4,30.4,22.8c0.4,0.2,0.9-0.1,0.9-0.5
		c0,0,0.1,0.1,0.1,0.1c0.6,0.8,2.1-0.2,1.5-1C728.9,787.5,721,778,712.1,769.2z M691.1,754.6c1.1,1,2.2,1.9,3.2,2.8
		c-1.9,1.4-3.8,2.7-5.5,4.4c-1.3-1.1-2.7-2.2-4-3.4C687,757.9,689.7,756.5,691.1,754.6z M733.6,798c-8.8-7.9-18.5-14.8-27.7-22.2
		c-5.1-4.1-10.1-8.2-15.1-12.4c1.2-0.5,2.4-1.2,3.4-2.1c0.8-0.7,1.4-1.5,1.9-2.3c4.6,4,9.2,8.1,13.5,12.4
		C718,779.9,726,788.9,733.6,798z"/>
	<path class="st5" d="M89.3,157.4c-5.2-7-4.5-16.7-0.7-24.2c4.1-8.2,12.4-11.7,19.4-17c6.5-4.8,11-11.2,11-19.5
		c0-4.2-1.1-8.3-2.8-12.3c13.6,6.2,29.6,4.6,42.5-4c9-6,16.9-14.3,27.4-17.7c4.5-1.5,9.9-2.1,14.4-0.2c4.3,1.8,8.8,6.4,7.1,11.3
		c-0.5,1.4,1.4,2.4,2.1,1c3.5-7.4-2.3-15.1-9.4-17.4c-9.4-3-19.7,0.6-27.7,5.8C162.1,70,153.1,80,140.2,82
		c-10.5,1.6-21.3-1.3-29.4-8.1c-2.7-2.3-6.2,1-4.5,4c3.8,6.8,8.5,15.4,6.1,23.5c-2.6,9-13.1,12.8-19.9,18
		c-12.4,9.4-17.5,28.1-5.2,39.9C88.4,160.4,90.3,158.7,89.3,157.4z"/>
	<path class="st5" d="M1843.9,917.4c5.8,6.4,6.2,16.1,3.2,24c-3.3,8.6-11.2,12.9-17.6,18.8c-5.9,5.4-9.8,12.2-9,20.5
		c0.4,4.2,2,8.2,4,11.9c-14.2-4.8-29.9-1.6-41.9,8.3c-8.4,6.9-15.4,15.9-25.5,20.4c-4.4,1.9-9.6,3.1-14.3,1.7
		c-4.4-1.4-9.4-5.5-8.2-10.5c0.3-1.4-1.7-2.2-2.2-0.8c-2.7,7.8,3.8,14.8,11.1,16.3c9.7,2.1,19.5-2.6,27-8.5
		c9.8-7.8,17.8-18.6,30.5-22c10.2-2.7,21.3-0.9,30,5.1c2.9,2,6-1.6,4.1-4.4c-4.5-6.4-10-14.5-8.5-22.7c1.7-9.2,11.7-14.1,18-19.9
		c11.4-10.6,14.6-29.7,1.1-40.2C1844.5,914.3,1842.8,916.2,1843.9,917.4z"/>
	<g>
		<path class="st5" d="M158.7,973.8c0.6-3-1.9-8.3-1.8-11.4c0.8-0.1,1.7-0.3,2.5-0.5c7.6-2.3,12.2-10.4,11.6-18.1
			c-0.5-6.8-5.5-13.2-11.9-15.8c-6.4-4.4-15.1-2.4-21.1,2.3c-3.1,2.5-5.1,5.5-5.9,8.8c-1.6-0.6-3.5,0.2-4.5,0c-0.3,0-0.6,0-0.9,0
			c2.1-7.7,0.8-17.4-4.2-23.7c-5-6.3-14-8.6-21.5-6c-7.4,2.6-12.6,10.4-12.7,18.2c0,0.6,0,1.1,0.1,1.7c-0.4,0.1-0.8,0.3-0.9,0.7
			c-1,3.1-0.5,6.8-0.4,10c0,0,0,0,0,0c-5.1,3.9-9.2,12.6-11.1,16.2c-5.5,10.4-10.4,23.3-9.9,35.3c0,0.8,1.3,0.9,1.5,0.2
			c1.4-4.6,2.2-9.4,3.5-14c1.4-4.8,3.1-9.6,5.1-14.2c2-4.7,4.4-9.2,7.1-13.5c0.9-1.4,2.2-3.8,3.9-5.8c0,2.1,0.1,4.1,0.2,6.2
			c0.3,5,1,10.4,3.9,14.5c-2.2,2.7-2.3,7.1,1.7,8c2.9,0.6,7.7-0.6,8.2-4.1c0.3-2-0.9-4.2-2.6-5.4c2-5.3,2.5-11.7,2.9-17.1
			c0,0,0.1,0,0.1,0c0.6,0.2,1.2,0.4,1.9,0.6c2.2,0.5,3-3,1-3.8c-7.2-2.9-12.7-9.5-11.3-17.7c1.3-7.8,8.5-13.5,16.5-12.3
			c8.7,1.4,12.6,9.5,13,17.6c0.4,7.9-4.5,17.6-13.6,17.2c-1.4-0.1-2.2,2.2-0.7,2.6c4.2,1.2,8.2,0.3,11.5-1.8
			c-0.1,0.1-0.1,0.2-0.2,0.3c-1.4,4.8-1.2,10.3-2,15.3c-0.9,5.7-2.2,11.2-4,16.7c-1.7,5.1-3.8,10-6.1,14.9c-2.3,5-5.2,9.7-7,14.9
			c-0.2,0.5,0.4,1.1,0.9,0.7c4.1-3.4,6.8-7.9,9.4-12.5c2.9-5.1,5-10.7,6.8-16.4c1.7-5.3,3-10.7,3.9-16.2c0.5-2.8,0.8-5.7,1-8.5
			c0.2-2.7,0.5-5.8-0.2-8.5c-0.2-0.8-1.1-1.3-1.8-1.1c1.8-1.4,3.3-3.1,4.5-5.2c0.4,0.3,0-0.8,1-0.5c1.9,0.5,3.8,1,5.8,1.2
			c0.3,2.8,1.5,5.7,3.6,8.3c4.4,5.5,11.2,10.1,18.3,10.4c-0.5,2.9,2.5,8,1.9,10.9c-0.8,4-8.1,21.6-9.5,25.4
			c-1.3,3.6-2.9,7.1-4.6,10.5c-1.7,3.5-4.1,6.9-5.3,10.6c-0.2,0.7,0.6,1.5,1.3,1c2.9-2.4,4.9-6,6.7-9.4c2.1-3.8,3.8-7.9,5.2-12
			C150.7,995.6,157.9,977.8,158.7,973.8z M96.6,966.1c0,0.1,0,0.2,0,0.4c0,0.4,0.4,0.5,0.6,0.3c0.1,0.1,0.1,0.2,0.2,0.2
			c0.8,1.4,0.4,2.1-1.2,2.6c-1.1,0.3-3.1,0.6-3.4-0.9c-0.1-0.3,0.1-0.9,0.4-1.5c0.7,0.1,1.3-0.5,1-1.3c0-0.1,0-0.1-0.1-0.2
			c0.6-0.6,1.2-0.8,1.5,0C95.9,966.2,96.3,966.2,96.6,966.1z M93.7,941.2c1.7,1.9,3.7,3.4,6,4.5c-0.5,3.5-1,6.9-1.6,10.3
			c-0.4,2.2-0.9,4.5-1.2,6.8c-0.5-0.1-1-0.2-1.5-0.1c-0.3,0-0.5,0.3-0.6,0.6c-0.5-0.1-0.9,0-1.3,0.1c-1.4-4.7-2.3-9.4-2.5-14.4
			c-0.1-2.6-0.2-5.1-0.3-7.7C91.6,941,92.6,940.9,93.7,941.2z M91.3,938.1c-0.2,0-0.5,0.1-0.7,0.1c0-0.5,0-0.9,0-1.4
			C90.8,937.3,91.1,937.7,91.3,938.1z M136,939c2.2-5.9,9.2-10.2,15.8-10.2c0.1,0.2,0.4,0.4,0.7,0.6c7.1,2.6,14.7,7.5,14.6,16.1
			c-0.1,6.9-4.8,12.1-11,12.9c-0.3,0-0.5,0-0.8,0.1c-1.4,0.1-2.9,0-4.4-0.4C143.7,956.1,132.9,947.5,136,939z"/>
		<path class="st5" d="M144.7,976.1c0.2-0.7-0.7-1.1-1.1-0.4c-4.3,8-13.2,28-13.9,37.2c-0.1,0.7,0.9,1,1.2,0.3
			C134.6,1005,141.9,984.6,144.7,976.1z"/>
		<path class="st5" d="M137.8,1025c-2.6-3.7-6.1-6.7-8.8-10.4c0.5-0.5,0.4-1.5-0.3-1.8c-3.5-1.4-7.2-2.2-10.7-3.7
			c-2.7-1.1-5.9-3.6-8.8-3.2c-0.3,0-0.5,0.4-0.3,0.6c1.4,2.8,5.9,4.3,8.6,5.5c3.1,1.4,6.6,2.7,10.1,2.8c0,0.1,0,0.3,0.1,0.5
			c2.2,4.2,5.2,8.5,9.8,10.3C137.8,1025.8,138.1,1025.3,137.8,1025z"/>
		<path class="st5" d="M80.2,976.3c1.8-5.1,4.3-9.9,6.7-14.8c0.3-0.6-0.5-1.2-1-0.8c-4.2,3.7-6.7,8.5-8.6,13.8
			c-2,5.4-3.9,11.2-4.1,16.9c0,1.1,1.4,1.5,1.9,0.5C77.3,987,78.3,981.5,80.2,976.3z"/>
		<path class="st5" d="M105.4,985.4c2.2-6.4,5-13.3,5.6-20.1c0.1-0.8-1.1-1.1-1.4-0.3c-2.6,6.3-4,13.2-6.3,19.7
			c-2.3,6.5-5.1,12.8-7.2,19.4c-0.1,0.4,0.5,0.9,0.7,0.4C100.6,998.4,103.1,992,105.4,985.4z"/>
	</g>
	<g>
		<path class="st5" d="M1254.7,200.6c0.6-2.6,1-5.1,1.4-7.7c0.8-4.8,1.6-9.5,2.5-14.3c1.8-9.8,4.6-19.6,5.8-29.5
			c0.2-1.3-1.7-1.7-2.2-0.5c-3.6,9.3-5.3,19.4-7.2,29.1c-1,4.9-1.9,9.9-2.7,14.8c-0.4,2.6-0.8,5.1-1,7.7c-0.2,2-0.5,4,0.4,5.9
			c0.2,0.4,0.7,0.4,0.9,0.1C1254.1,204.7,1254.3,202.6,1254.7,200.6z"/>
		<path class="st5" d="M1339.4,219.5c1.3-4.7,2.5-9.4,3.5-14.2c2.2-10,3.6-20.3,4.5-30.5c0.3-3.1,1.8-8.5-1.6-10.5
			c-1.8-1.1-4.3-1.4-6.3-2c-2.7-0.8-5.4-1.6-8.1-2.3c-10.3-2.9-20.6-5.7-31-8.3c-11.6-2.9-23.2-5.8-35-7.7c-1.1-0.2-1.6,1.6-0.5,2
			c18.9,5.5,38.1,9.8,57,15.1c4.7,1.3,9.4,2.6,14.1,4c2.2,0.6,4.9,1.1,7,2.1c2.1,1,1,4.2,0.8,6.2c-0.9,9.3-2.4,18.6-4.3,27.8
			c-1.1,5.5-2.4,10.9-3.8,16.3c-0.6,2.4-1.3,4.9-2,7.3c-0.6,2.3-1.5,4.7-1,7c0.1,0.6,0.9,1,1.4,0.5
			C1337.4,229.5,1338.3,223.5,1339.4,219.5z"/>
		<path class="st5" d="M1318.2,176.4c-3.6-2.2-8.6-2.5-12.7-3.2c-4.7-0.8-9.5-1.6-14.3-1.7c-1.6,0-1.8,2.1-0.2,2.5
			c4.5,1.1,9.1,1.7,13.7,2.6c4.1,0.8,8.7,2.7,12.9,2.4C1318.8,178.8,1319.2,177,1318.2,176.4z"/>
		<path class="st5" d="M1318.7,189c-2-1.3-4.5-1.6-6.7-2.1c-3-0.7-6-1.3-9-1.8c-5.8-1-11.7-1.9-17.6-1.7c-0.1,0-0.2,0.2-0.1,0.3
			c1.8,1.7,4.4,1.8,6.8,2.2c3,0.4,6,1,9,1.5c2.8,0.5,5.6,1.1,8.4,1.7c2.8,0.7,5.7,1.9,8.7,1.8C1319.1,190.8,1319.4,189.4,1318.7,189
			z"/>
		<path class="st5" d="M1329.6,205.3c-5.1-2.5-11.4-3.6-16.8-5c-5.1-1.3-10.2-2.5-15.4-3.5c-5.4-1-10.8-1.9-16.3-2.7
			c-2.8-0.4-5.7-0.7-8.5-1.1c-1.6-0.2-3.2-0.5-4.7-1c-1.1-0.4-1.8-0.9-2.9-0.9c-0.3,0-0.4,0.2-0.3,0.4c1.3,3.8,8.5,4.2,11.8,4.6
			c6,0.8,12,1.8,17.9,3c6,1.2,11.9,2.5,17.8,4c5.5,1.4,11.1,3.7,16.8,4.6C1330.6,208.2,1330.9,205.9,1329.6,205.3z"/>
		<path class="st5" d="M1326.8,210.8c-19.5-1.9-38.5-8.5-58.1-9.5c0,0-0.1-0.1-0.1-0.1c-0.2-0.1-0.3,0-0.4,0
			c-1.5-0.1-2.9-0.1-4.4-0.1c-0.8,0-1,1.1-0.1,1.3c10.5,1.8,20.9,3.3,31.3,5.6c10.5,2.3,20.9,4.7,31.6,5.8
			C1328.4,213.9,1328.7,210.9,1326.8,210.8z"/>
		<path class="st5" d="M1322.1,220.4c-9.1-3.6-19.5-4.4-29.1-5.9c-5.1-0.8-10.2-1.6-15.3-2.5c-5.1-0.9-10.2-2.1-15.3-2.4
			c-0.6,0-0.9,0.8-0.3,1.1c4.5,1.7,9.5,2.5,14.3,3.4c5.1,1,10.2,1.9,15.3,2.7c5,0.8,10.1,1.4,15.2,2.2c5,0.8,9.9,2.2,14.8,3.3
			C1322.8,222.5,1323.1,220.8,1322.1,220.4z"/>
	</g>
	<g>
		<path class="st5" d="M272,774.1c-5.9-4.6-14.2-9.7-22.6-9.7c-7.4,0-16.5,1.4-22.2,5.6c-3.8,2.7,0.8,6.5,4.6,5.7l-0.2,0.1
			c5.7-1.6,11.3-3,17.4-2.9c6.6,0.1,11.7,5.6,17.3,7.9C271.3,782.9,276.2,777.3,272,774.1z"/>
		<path class="st5" d="M268.7,789.3c-2-5-10.5-8.2-16.1-9.6c-8.4-2.1-15.4,0.6-23.5,2.1c-2.3,0.4-2.1,3.1-0.4,3.9
			c2.3,1.1,4.9,0.5,7.4,0.1c4.6-0.7,8.8-1.5,13.5-0.6c5.9,1.2,11.8,6.2,18,5.5C268.3,790.5,269,790,268.7,789.3z"/>
		<path class="st5" d="M263.5,797c-4.8-3.1-10.4-5.4-16.9-5.8c-5.4-0.3-14.2,0.4-17.9,3.8c-0.6,0.6-0.7,1.7,0.5,2
			c4.5,1.2,9.7-1,14.5-0.9c6.3,0.1,12.6,1.7,18.7,2.5C263.6,798.7,264.5,797.6,263.5,797z"/>
		<path class="st5" d="M270,744.1c-15.3-6.9-35.4-4.4-46.2,7.6c-18,8.2-22.2,29-16.1,46.1c3.2,8.9,8.7,17.7,17.1,23.1
			c8.9,5.8,20.3,6.5,30.6,4.3c18.2-3.9,33.8-18.2,37.2-35.8C296.1,771.8,287.6,752.1,270,744.1z M261.7,814.6
			c-7.3,3.3-16,4.8-23.9,3.1c-8.6-1.8-14.5-7.8-18.6-14.9c-7-12.2-8.9-28.6-0.6-39.9c0.8,0.6,2.2,0.6,3-0.3
			c9.9-12.3,25.1-18.5,41.1-13.3c14.8,4.8,23.4,18.8,22.9,33.3C285.1,796.8,274.9,808.6,261.7,814.6z"/>
	</g>
	<g>
		<path class="st5" d="M222.6,270.1c-2.3-3.6-5.8-6.1-10.1-6.8c-4-0.7-10.6-0.3-13.1,3.2c-0.2,0.3-0.2,0.8,0,1.1
			c0.1,0.1,0.1,0.2,0.2,0.3c-5.1,3.7-7.3,10-4.1,16.6c3.9,8.2,14.9,13.4,23.1,7.5C225.4,287.1,227.1,277.1,222.6,270.1z
			 M215.7,289.1c-6.4,3.8-13.6-0.7-16.3-6.6c-3.8-8.3,2.9-11.3,8.3-15.9c1.8-0.1,3.7,0,5.4,0.5c3.3,1,5.8,3.5,7.1,6.6
			C222.7,279,221.1,285.9,215.7,289.1z"/>
		<path class="st5" d="M159.1,332.8c0.1-1.3,0.1-3.3-0.3-5.1c0.6-0.3,0.9-0.9,0.5-1.5c-1.6-2-3.4-3.8-5.5-5.2
			c-2.4-1.6-4.7-2.2-7.5-2.9c-0.7-0.2-1,0.9-0.4,1.2c3.2,1.7,6.4,3.9,9.4,6.1c0.1,0.5,0.3,0.9,0.5,1.5c0.5,1.4,0.7,3,0.6,4.5
			c-0.2,3.3-1,8.6-4.1,10.3c-5.8,3.3-13.6-0.1-18.1-4c-0.2-0.1-0.3-0.2-0.5-0.1c-0.9-1.8-1.7-3.6-2.3-5.5c-0.3-0.8-1.6-0.4-1.3,0.5
			c1.1,3.4,2.6,6.8,5,9.6c0.3,0.4,0.9,0,0.7-0.5c0-0.1-0.1-0.1-0.1-0.2c5,4.6,13.4,7,19.1,2.5C157.9,341.6,158.8,336.6,159.1,332.8z
			"/>
		<path class="st5" d="M149.9,307.5c-4.5-2.4-10.7-4-15.3-1.1c-4.3-4.1-8.6-8.5-13.2-12.2c0.1-0.4,0-0.8-0.4-1.1
			c-6.8-6.2-13.4-12.7-20.4-18.6c-0.6-0.5-1.4,0.3-0.9,0.9c5.8,7.2,12.6,13.4,19.3,19.6c4.5,5,10,9.2,15.2,13.4
			c0.4,0.3,0.8,0.2,1.1-0.1c4.9,0,9.1-0.9,14,1C150.2,309.6,150.9,308,149.9,307.5z"/>
		<path class="st5" d="M238.7,267.7c-2.7-8.6-11-16.8-19.7-19c-9.3-2.4-20.5-1.3-28.3,4.6c-5.7,4.3-16,15.9-12.9,24.1
			c-2.7,1.4-4.9,4.7-6.7,6.9c-2.7,3.2-5.3,6.4-8.3,9.3c-3,2.8-3.2,4.1-6.1,7.1c-2.5,2.6-5.4,5.4-6.4,8.9c-0.2,0.6,0.5,0.9,0.9,0.6
			c3.1-2.3,2.5-4.2,5.4-6.8c3.1-2.8,6.2-5.5,9.1-8.4c2.6-2.6,5-5.4,7.3-8.4c1.3-1.7,2.5-3.4,3.9-5.1c0.7-0.8,1.4-1.5,1.9-2.3
			c0.1,0.1,0.2,0.2,0.3,0.4c0.4,0.5,1.2,0.2,1.3-0.3c0.8-2.6,1-5.3,2-7.8c0.9-2.5,2.3-4.8,3.9-7c3-4.2,6.9-8.1,11.8-10.2
			c5-2.1,10.9-2.4,16.3-1.8c5.8,0.7,10.2,3.3,14.1,7.6c4,4.3,6.3,8.8,7,14.6c0.7,5.9,0.1,12.1-2.7,17.3c-2.6,4.9-6.3,8.5-11.6,10.3
			c-3.8,1.3-9.6,1.6-12.2,4.9c-0.1,0.1-0.1,0.1-0.1,0.2c-2.2,0.8-4.4,1.8-6.5,2.7c-3.5,1.5-7,3.1-10.4,4.8
			c-6.9,3.4-13.7,6.9-19.9,11.4c-0.2,0.1-0.2,0.3-0.3,0.4c-0.3,0-0.7,0.2-0.7,0.6c-0.6,4.5-0.3,9.4-2.6,13.6
			c-1.9,3.4-5.1,5.7-8.5,7.4c-6.9,3.5-15.8,5.8-23,2c-3.2-1.9-6.1-4-8.8-6.8c-2.2-2.2-4-4.7-5.8-7.2c-1.3-1.8-0.6-5.4-1.5-7.6
			c0.2-0.2,0.2-0.5,0.1-0.8c-0.2-0.3-0.3-0.6-0.5-0.9c0-0.1,0-0.1,0-0.2c0-0.5-0.3-0.8-0.7-1c-2.7-4.1-6.7-7.2-10.3-10.5
			c-2.7-2.4-6.1-7.1-10.2-6.2c-0.4,0.1-0.6,0.7-0.3,1c3.5,3,6.7,6.4,10,9.5c3,2.9,5.7,5.9,9.2,8.2c-0.5,5.7,2.1,13.5,5.5,17.5
			c4.3,5,10.4,9.9,17.3,9.7c0.1,0,0.2,0,0.3,0c6.6,2.1,14.3-0.3,20.4-3.6c9.2-5,12.9-13.9,10.7-24c0.1,0,0.1,0,0.2,0
			c6.8-3,13.4-6.5,20.1-9.7c3.3-1.5,6.5-3,9.8-4.5c3.4-1.6,7.2-2.8,10.3-4.9c0,0,0,0,0,0c1.3-0.3,2.5-0.8,3.7-1.1
			c2.7-0.6,5.4-1.2,8-2.2c4-1.6,7.8-4.3,10.4-7.8C240.9,289,241.7,277.2,238.7,267.7z"/>
	</g>
	<path class="st5" d="M1379.3,698.9c-0.9-0.9-2-1.8-3.7-2c-0.1,0-0.2,0-0.3,0c-2.1-0.9-4.6-0.7-6.7,0.8c-0.3,0.2-0.6,0.4-0.8,0.7
		c-2.6-0.9-5.2-1.8-7.7-2.5c-1.2-0.4-2.4-0.7-3.5-1.1c-5.6-1.8-11.3-3.5-16.8-5.2l-2-0.6c0-0.8-0.1-1.5-0.3-2
		c-1.5-3.1-6-4.5-8.3-3.9c-1.5,0.4-2.6,1.1-3.3,2.2c-3.2-1-6.9-2.1-10.5-3.2c-1.5-0.4-2.9-0.9-4.3-1.3c-1.8-0.6-3.6-1.2-5.5-1.7
		c-0.9-0.3-1.8-0.6-2.8-0.9c-0.9-0.3-1.9-0.6-2.9-0.9c-0.1,0-0.3-0.1-0.6-0.2c-1-0.4-2.4-0.9-3.7-1.1c-1.8-0.2-2.7,0.5-3.1,1.1
		c-0.5,0.7-0.6,1.7-0.2,2.6c1.1,2.4,4.3,3.2,6.7,3.7c0.7,0.2,1.3,0.3,1.7,0.4c6.9,2.4,14,4.8,21.7,7.3c-0.1,1.1,0.1,2.2,0.5,3
		c0.8,1.7,2.1,2.9,3.6,3.4c0.8,0.3,1.5,0.4,2.3,0.4c2.6,6.8,5.5,13.6,8.2,20.2c1,2.3,2,4.7,2.9,7l1.3,3.2c1.9,4.5,3.8,9.1,5.8,13.6
		c0.4,0.8,0.7,1.6,1.1,2.5c0.9,2.2,1.9,4.4,2.9,6.6c-1.1,1-1.9,2.2-2.3,3.4c-1.1,3.1,0.1,6.4,2.9,8c1.8,1,3.9,1.1,5.7,0.3
		c1-0.4,1.9-1.1,2.6-2c0-0.1,0.1-0.1,0.1-0.2c1.4-1,2.3-2.9,2.4-4.3c0.2-1.7-0.4-3.7-1.4-4.9c-0.8-0.9-1.8-1.6-2.9-2
		c-1-2.6-2.1-5.1-3.1-7.6c-0.3-0.7-0.6-1.5-0.9-2.2c-2.1-4.9-4.3-9.8-6.4-14.5l-1.2-2.8c-1.6-3.7-3.1-7.3-4.6-10.7
		c-2.1-4.9-4.2-10-6.6-15.1c0.3-0.1,0.5-0.3,0.8-0.5c2.3,0.7,4.5,1.3,6.6,1.9c2.1,0.5,4.3,1.1,6.6,1.8c1.6,0.5,3.2,1,4.9,1.6
		c3.5,1.1,7,2.3,10.6,3.3c-0.1,0.6-0.1,1.3,0,1.9c0.2,2,1.1,3.8,2.5,5.2c1.6,1.6,4.1,2.3,6.5,1.9c3-0.4,5.6-2.5,6.9-5.8
		C1381.7,705.2,1381.7,701.3,1379.3,698.9z"/>
	<g>
		<path class="st5" d="M1381.2,890.6c-18.9-8.6-43.6-5.4-56.9,9.4c-22.1,10.1-27.4,35.7-19.8,56.8c4,11,10.7,21.8,21,28.5
			c10.9,7.1,25.1,8,37.7,5.3c22.5-4.8,41.7-22.5,45.9-44.1C1413.3,924.7,1402.9,900.5,1381.2,890.6z M1371,977.4
			c-9,4-19.7,5.9-29.5,3.8c-10.6-2.3-17.9-9.7-22.9-18.4c-8.7-15-11-35.3-0.8-49.1c1,0.8,2.8,0.8,3.7-0.4
			c12.2-15.2,31-22.8,50.6-16.4c18.2,5.9,28.8,23.2,28.3,41C1399.8,955.5,1387.3,970.1,1371,977.4z"/>
		<path class="st5" d="M1380.6,921.1c-3.1-1.4-7.2-0.9-9.3,1.5c-3.6,1.7-4.5,5.9-3.3,9.3c0.7,1.8,1.8,3.6,3.4,4.7
			c1.8,1.2,4.1,1.3,6.2,0.9c3.7-0.8,6.8-3.7,7.5-7.2C1385.8,926.7,1384.1,922.7,1380.6,921.1z"/>
		<path class="st5" d="M1378.3,941.9c-1.1,1-1.6,2.7-1,4c0.1,1.8,1.6,2.8,3.2,2.9c0.8,0,1.8-0.1,2.5-0.6c0.8-0.5,1.2-1.4,1.4-2.4
			c0.3-1.6-0.3-3.4-1.6-4.3C1381.5,940.7,1379.6,940.7,1378.3,941.9z"/>
		<path class="st5" d="M1347.7,960.7c-1,1.7-1,4.1,0.3,5.5c0.7,2.2,3.1,3,5.2,2.5c1.1-0.3,2.2-0.8,2.9-1.7c0.8-1,1-2.3,0.9-3.5
			c-0.2-2.2-1.7-4.2-3.7-4.8C1351.2,958,1348.8,958.7,1347.7,960.7z"/>
		<path class="st5" d="M1339.5,961.6c0.4,0.8,1.2,1.5,2.1,1.4c1,0.3,1.9-0.3,2.3-1.3c0.2-0.5,0.3-1,0.2-1.5c-0.1-0.6-0.6-1-1.1-1.3
			c-0.9-0.5-2-0.5-2.8,0.1C1339.5,959.6,1339.1,960.7,1339.5,961.6z"/>
		<path class="st5" d="M1327.4,944.8c0.6,0.3,1.5,0.3,2-0.2c0.8-0.3,1-1.2,0.8-1.9c-0.1-0.4-0.3-0.8-0.7-1c-0.4-0.3-0.8-0.3-1.3-0.3
			c-0.8,0.1-1.5,0.7-1.7,1.4C1326.4,943.5,1326.7,944.4,1327.4,944.8z"/>
		<path class="st5" d="M1364.3,940.8c0.1,1.2,1.1,2.4,2.2,2.6c1.2,0.8,2.7,0.3,3.5-0.7c0.4-0.5,0.8-1.2,0.8-2c0-0.8-0.4-1.5-0.9-2.1
			c-0.9-1-2.4-1.4-3.7-1C1365.1,938.1,1364.2,939.4,1364.3,940.8z"/>
		<path class="st5" d="M1340.4,918.9c-1.1-1.4-3.1-2.1-4.7-1.4c-2.1-0.1-3.4,1.7-3.6,3.6c-0.1,1,0,2.1,0.5,3c0.6,1,1.6,1.6,2.7,1.8
			c1.9,0.5,4-0.1,5.1-1.6C1341.5,922.7,1341.7,920.4,1340.4,918.9z"/>
		<path class="st5" d="M1394.1,894.9C1394,894.9,1394,894.9,1394.1,894.9C1394.1,894.9,1394.1,894.9,1394.1,894.9z"/>
	</g>
	<g>
		<path class="st5" d="M1077.1,570.2c-38.6-1.5-77.3-2.4-116-2.4c-2.1,0-4.2,0.1-6.3,0.1c-0.4,0.3-0.8,0.6-1.3,0.9
			c-0.1,0.1-0.2,0.2-0.3,0.3c-3.2,2.5-6.4,4.7-9.6,7c3.2-0.1,6.3-0.1,9.5-0.1c41.3-0.1,82.7,0.7,124,2.4
			C1082.4,578.7,1082.4,570.4,1077.1,570.2z"/>
		<path class="st5" d="M991.7,648.8c-0.6-8.6-0.4-17.2,0.8-25.8c0.6-4.5-5.2-6.7-7.3-3.9c-0.3,0-0.5-0.2-0.9-0.1c-2,0.1-4,0.2-6,0.3
			c-2.4-0.6-4.9-0.7-7.7-0.6c-4.3,0.3-8.4,0.7-12.3,0.9c-7-0.2-14.1-0.7-21.1-2c-1.7-0.3-3,0.3-3.9,1.3c-2.2-1.7-5.7-1.5-6.2,1.9
			c-1.3,9.4-1.7,18.7-1.1,28.2c-0.1-0.6-14.5-0.1-15.7-0.1c-6.8,0-13.4-1.2-20.1-2.2c-5.1-0.8-13.8-3.3-18.4,0
			c-5.9,4.2-2.9,13.3-2.8,19.3c0,0.7,0.2,1.3,0.4,1.8c0.1,1.5,0.3,3.1,0.5,4.6c0.1,1.4,0.9,2.4,1.9,3.1c1.7-0.3,3.5-0.3,5.4-0.3
			c3.3,0.1,6.6,0.6,10,1.1c0.3,0,0.6,0,0.9,0c0.1,0,0.2-0.1,0.3-0.1c3-0.1,6.1-0.2,9.1-0.3c6.4,0.3,12.6,0.3,18.8-0.1
			c5.3,1.2,11.5,1,17,0.6c8.9,0,17.7-0.1,26.6-0.1c0.5,0,0.9,0.1,1.4,0.1c0.1,0,0.1,0,0.2,0c4.1,0.5,8.2,0.5,12.4,0.2
			c1.7,0.2,3.3,0.4,5,0.4c6.8,0,13.7-0.1,20.5-0.3c0.1,0,0.1,0,0.2,0c1.9-0.1,3.9-0.1,5.8-0.2c0.2,0,0.4,0.1,0.6,0.1
			c0.4,0,0.7,0,1.1,0c10.2-0.4,20.4-0.6,30.6-0.2c0.6,0.2,1.2,0.2,1.9,0.1c0.2,0,0.4,0,0.7,0c0,0,0-0.1,0.1-0.1
			c1.5-0.5,2.8-1.7,3-3.7c0.6-5.7,0.9-11.5,1.9-17.2c2.2-12.7-10.5-9.7-16.8-8.2c-2.4,0.6-7.4,0.5-12.7,1.2
			C1004.9,649.6,991.8,649.7,991.7,648.8z"/>
		<path class="st5" d="M960,567.9c-40.1,0.1-80.2-0.1-120.3-0.3c-5.3,0-5.3,8.2,0,8.2c40.1,0.3,80.2,0.4,120.3,0.3
			C965.3,576.1,965.3,567.9,960,567.9z"/>
		<path class="st5" d="M1085.9,533.9c-0.5-19-1-38-1.6-57c-0.6-23,2.5-50.7-19.9-64.4c-25.6-15.7-183.2-7.7-198.7-5.1
			c-19.5,3.3-30.7,20.5-32.8,39.1c-0.9,8-0.5,16.1-0.3,24.1c0.6,25-0.4,50,0.1,75c0.1,4.1,0.2,8.3,0.3,12.4
			c0.7,19.1-0.2,46.7,19.1,57.8c8.2,4.7,17.5,6.7,26.8,7.3c5.5,0.4,11.1,0.1,16.6,0.2c12.2,0.1,24.4,0.1,36.6,0.1
			c28.1,0,81,1.9,109.7-0.4c23.8-1.9,39.2-19.6,43.8-43.5C1088.5,564.9,1086.3,548.6,1085.9,533.9z M1078.3,571.8
			c-0.9,10.2-4.7,20.3-11.4,28.1c-7.7,8.9-18.5,13.2-29.8,15.5c-8.6,1.8-144.5-0.9-154.1-1.4c-9.2-0.4-16.9-2.6-25-6.6
			c-7.3-4.1-11.4-10.4-14-18.2c-3.7-13.2-2.7-29.1-3-42.7c-0.6-27.9,0.6-55.9,1.1-83.8c0.1-6.5-0.3-13,0.5-19.5
			c1-7.8,3.7-15.2,9.7-20.4c5.6-4.9,13-7.3,20.3-7.9c13.4-1,171.7-4.2,187.5,5.9c18.6,11.9,15.4,37,15.9,56.1
			C1077,508,1081,540.8,1078.3,571.8z"/>
		<path class="st5" d="M958.8,587c-10.6,0-10.6,16.4,0,16.4C969.3,603.4,969.3,587,958.8,587z"/>
		<g>
			<path class="st5" d="M1082.6,521.7c0.3-2.9-0.3-5.8-0.9-8.6c-4.4-22.8-5.5-46.5-3.6-69.6c0.4-4.2,0.1-9.5-3.8-11
				c-1-0.4-2.2-0.4-3.1-1c-1.1-0.8-1.5-2.2-2-3.4c-2-4.7-6.8-7.5-11.4-9.9c-3.8-2.1-8.1-4.2-12.4-3.5c-0.9,0.2-1.8,0.4-2.8,0.6
				c-1.5,0.2-3,0.1-4.5,0c-21.1-1.8-42.2-2.8-63.4-3c-10.6-0.1-21.2,0-31.7,0.3c-10.3,0.3-21.5-0.3-31.7-1c-4-0.2-7.6,1.7-11.7,1.8
				c-0.1,0-0.3,0-0.4,0c-3.7,0.1-7.4,0.2-11,0.4c-2.7,0.1-6.4,1.2-8.7-0.6c-1.2-1-2.2-2.3-3.7-2.8c-1.8-0.6-3.8,0.1-5.6,0.9
				c-11.6,5-24.6,11.1-30.1,23.3c-3.5,7.8-3,16.6-2.9,25.1c0.6,35.1-4.5,70.8,3.4,104.9c0.4,1.8-3.5,11.1-1.7,11.1
				c2.5,0,7.3,0.2,9.9,0.3c2.6,0.1,1.5-8.9,1.4-11.5c-0.6-26.3-1.3-52.6-1.9-78.9c-0.4-16.5-1.3-31.3,3.2-47.2
				c1.3-4.6,6.4-14.4,16.1-14.9c42.7-1.9,85.4-1.6,128.2-1.4c18,0.1,35.9,0.9,53.5,4.7c5.7,1.2,11,3.7,13.7,9.2
				c2.9,5.9,2.4,13.2,2.7,19.6c0.4,7.9,0.8,15.7,1.1,23.6c0,19.7,1.9,39.7,2.9,59.4c0.5,9.7,0.9,19.4,2,29.1
				c0.2,1.8-0.8,10.5,1,10.5c1.9,0.1,4.3,0.5,6.2-0.2c1.6-0.6,1.1-6.1,1.4-7.8c1.5-8.8,1.4-17.8-0.2-26.6c-0.8-4-1.8-8.2-0.9-12.2
				c0.7-2.7,2.2-5.1,2.8-7.7C1082.5,522.9,1082.6,522.3,1082.6,521.7z"/>
		</g>
	</g>
	<g>
		<path class="st5" d="M1817.7,280.9c-7.9-13.5-23.7-19.6-38.8-17.6c-16.4,2.1-32.4,12.8-41.7,26.3c-9.3,13.5-9.9,34.5,6.2,43.2
			c0.1,0.1,0.3,0.1,0.4,0.1c-4.1,6.2-7.9,12.6-13,18.3c-1.7,2,0.1,5.7,2.8,4.2c6.3-3.5,12.5-7.1,18.8-10.8c2.9-1.7,5.8-3.4,8.6-5.3
			c2.4-1.7,4.9-3.1,6.7-5.4c14.1,1.1,28.6-2.5,40-11.3C1820.1,312.7,1826.1,295.2,1817.7,280.9z M1807.3,316.7
			c-12.6,11.8-32.5,14.6-49.1,12.4c-1.7-0.2-2.4,2.6-0.6,3.1c1.6,0.4,3.3,0.7,4.9,1c-1.2,0.6-2.5,1.2-3.7,1.8
			c-3.3,1.6-6.4,3.4-9.5,5.2c-2.4,1.4-4.8,2.8-7.2,4.2c2.6-4,4.8-8.3,6.2-12.8c0.5-1.7-1.8-2.9-2.8-1.4c-0.2,0.3-0.4,0.5-0.5,0.8
			c-0.1-0.1-0.2-0.2-0.3-0.3c-11.5-8.1-10.7-24.4-4-35.3c7.1-11.7,20-20.9,33.1-24.6c12.9-3.6,27.1-1.2,36.3,9.1
			C1820.1,291.1,1818,306.7,1807.3,316.7z"/>
		<path class="st5" d="M1796.1,285.4c-8.3,2.2-24.4-9.1-28.5,3.4c-0.2,0.6,0.6,0.9,0.9,0.5c4.4-5.4,11.9-2.1,17.2-0.9
			c4.1,0.9,7.4,0.7,11-1.7C1797.3,286.3,1796.7,285.3,1796.1,285.4z"/>
		<path class="st5" d="M1794.7,295.2c-6.4-1.8-14.4-2.1-21-1.7c-4.6,0.3-9.7,1.7-11.8,6.1c-0.1,0.3,0.2,0.6,0.5,0.4
			c10-6.5,21.2-1.5,32.2-3.3C1795.3,296.7,1795.4,295.4,1794.7,295.2z"/>
		<path class="st5" d="M1793.4,304.9c-8,1.3-15.2,0.1-22.9-1.5c-5.5-1.1-12.8-0.7-17,3.5c-0.6,0.6-0.1,1.6,0.7,1.4l0,0
			c3.6-0.6,6.8-1.8,10.5-1.7c3.8,0.1,7.5,1.4,11.2,2.1c6.4,1.3,12.4,0.6,18.4-1.6C1795.6,306.7,1794.8,304.7,1793.4,304.9z"/>
	</g>
	<path class="st5" d="M1027.3,113.9c-2-2.6-4.7-4.2-7.7-4.6c0.9-4.1,0.7-8.3-0.5-12.2c-0.5-1.5-1.1-3-1.9-4.4
		c-0.1-0.1-0.2-0.3-0.2-0.4c-3-5.1-7.8-8.7-13.6-10.2c-11.7-3-23.3,3.8-26.9,15.5c-2.9-1.9-6.6-3.5-10.3-3.3
		c-1.5,0.1-3.1,0.5-4.6,1.3c-1.5,0.8-2.7,1.9-3.6,3.2c-1.3,1.8-2,3.9-1.9,6.1c-1.8-0.4-3.5-0.5-5.2-0.3c-2.1,0.2-4.2,0.8-6.2,1.8
		c-1.1,0.6-2.2,1.2-3.2,2.1c-5.4,4.3-8.6,11.4-8.2,18.5c0.4,7.8,4.5,15.1,10.9,19.1c4.7,3,10.1,3.8,15.4,2.5c1.8,1.5,3.8,2.8,6,3.7
		c4.8,2,10.3,2.1,15.2,0.5c5.3-1.6,9.5-3.8,12.4-8.5c0.5-0.8,1-1.6,1.4-2.5c-0.4,0.9,3.3,2.6,3.8,2.8c6.3,2.4,13.7,0.2,19.4-2.7
		c5.5-2.9,10.3-7.5,12-13.7c0.3-1,0.5-2,0.6-3.1c0-0.5,0.1-0.9,0.1-1.4C1030.6,120.2,1029.5,116.6,1027.3,113.9z M1025.1,127.2
		c-1.9,6.4-9.4,10.9-15.5,12.6c-4.7,1.3-9.3,0.6-12.9-2.8c-1.1-1-2.5-2.2-3.9-1.6c-1.4,0.5-1.8,2.4-2.4,3.7
		c-0.7,1.6-1.5,3.2-2.7,4.6c-1.8,2.1-4.1,2.5-6.6,3.7c-4.4,2.1-9.4,2.2-14,0.3c-1.2-0.5-2.4-1.2-3.4-1.9c-1-0.7-2-1.6-2.8-2.5
		c-0.1,0-0.2,0.1-0.4,0.1c-1.6,0.6-3.3,1-4.9,1.1c-3.4,0.2-6.8-0.8-9.8-2.9c-5.1-3.6-8.2-9.8-8-16.2c0.1-5.3,2.6-10.2,6.5-13.2
		c0.4-0.3,0.8-0.6,1.2-0.8c1.2-0.8,2.5-1.3,3.9-1.6c3-0.7,6.1-0.4,9.2,1.1c0.9,0.4,1.9,0.2,2.7-0.7c0.7-0.8,0.8-1.8,0.3-2.7
		c-1.2-2-1.4-3.7-0.4-5.2c1.4-2.1,5-3.4,8.1-2.8c2.8,0.5,5.1,2.3,7.3,4c0.6,0.5,1.4,0.6,2.2,0.3c0.8-0.3,1.5-1.1,1.6-2
		c0.8-5.3,3.8-10.1,8.2-12.9c4.1-2.7,9-3.5,13.8-2.2c4.8,1.3,8.7,4.4,10.9,8.7c2.4,4.7,2.6,10.4,0.6,15.5c-0.3,0.8-0.2,1.8,0.4,2.5
		c0.6,0.7,1.5,1.1,2.4,0.9c3-0.6,4.9,0.7,6,2c2.1,2.2,2.9,5.8,2.8,8.8C1025.5,125.8,1025.3,126.5,1025.1,127.2z"/>
	<g>
		<path class="st5" d="M1850.5,521.7c-14.9-3.7-29.8-7.4-44.7-11.1c-7.2-1.8-14.4-3.8-21.7-5c-6.5-1.1-14.2-2-20.3,1.1
			c-1,0.5-0.6,2,0.3,2.3c0.5,0.1,0.9,0.2,1.4,0.4c-0.5,0.2-0.9,0.4-1.1,0.9c-0.5,0.9-0.5,1.8-0.3,2.6c-0.1,1-0.2,1.9,0,3
			c0.2,1.3,0.5,2.6,0.8,4c0.7,3.1,1.3,6.1,2,9.2c1.4,5.8,2.8,11.7,4.2,17.5c1.4,5.8,2.8,11.7,4.2,17.5c0.6,2.6,1.2,5.9,2.1,9
			c-2,1.7-3.8,3.6-5,5.8c-0.8,1.6,0.6,3,2.2,2.8c2.1-0.4,4.1-1.3,6-2.4c0.2,0.2,0.4,0.4,0.7,0.7c1.2,1,2.7,0.5,3.3-0.9
			c0.3-0.8,0.4-1.6,0.5-2.5c3-2,6-4.2,8.9-6.3c6.4-4.6,12.7-9.2,19.1-13.8c12.7-9.2,25.4-18.5,38.1-27.8
			C1853.9,526.7,1853.8,522.5,1850.5,521.7z M1808.8,550l-19.1,13.8c-1.8,1.3-3.6,2.6-5.4,3.9c-0.5-2-1.1-3.9-1.6-5.9
			c-1.5-5.8-3-11.6-4.5-17.5s-3-11.6-4.5-17.5c-0.7-2.8-1.5-5.6-2.3-8.3c-0.4-1.4-0.8-2.8-1.2-4.2c-0.6-1.8-1.6-2.7-2.3-4.3
			c-0.1-0.2-0.2-0.3-0.3-0.5c2.5,0.4,5.1,0.5,7.6,0.9c3.6,0.5,7.2,1.3,10.7,2.1c6.8,1.7,13.5,3.5,20.3,5.3c11.6,3,23.2,6,34.9,9
			C1830.2,534.6,1819.5,542.3,1808.8,550z"/>
		<path class="st5" d="M1820,534.6c-3.5-3.1-7.4-5.7-11.6-8.1c1.1-1.3,2.1-2.6,3-3.9c0.4-0.5-0.2-1.2-0.8-0.9
			c-1.8,0.9-3.5,2-5.1,3.3c-3.9-2.1-7.8-3.9-11.7-5.7c-1.3-0.6-2.1,1.4-1.1,2.1c3,2.1,6.2,4.3,9.4,6.4c-1.8,1.6-3.9,3.3-4.3,5.6
			c-0.1,0.8,0.7,1.5,1.4,1.3c2.5-0.6,4.2-3.1,6-5c4.3,2.6,8.8,4.9,13.5,6.5C1819.7,536.5,1820.8,535.3,1820,534.6z"/>
	</g>
	<g>
		<path class="st6" d="M1003.9,471.8c-0.5-2.3-1.4-4.5-2.1-6.8c-0.8-2.3-1.5-4.8-0.9-7.2c0.6-2.2,2-4.1,2.1-6.5c0.1-2-0.7-4.2-2.6-5
			c-2.5-1.1-5,0.8-6.6,2.6c-0.8,1-1.6,2.1-2.1,3.3c-0.2,0.6-0.6,1.2-0.5,1.8c0,0.3,0.3,0.9,0.7,0.9c1,0,1.3-0.8,1.9-1.6
			c0.7-0.9,1.3-1.7,2-2.5c0.7-0.8,2.7-2.8,3.8-1.6c1,1.1,0.4,2.9-0.1,4.1c-0.9,2.1-1.7,4-1.7,6.3c0,4.4,2.3,8.4,3.3,12.5
			c0.9,3.8,1.1,7.8,0.6,11.6c-0.3,2.1-0.8,4.2-1.5,6.3c-0.4,1-0.8,2-1.2,2.9c-0.5,1-0.9,2.1-1.1,3.2c0,0.2-0.1,0.3,0,0.5
			c0.1,0.2,0.3,0.4,0.6,0.4c1,0.1,1.8-1.2,2.3-1.9c0.8-1.1,1.4-2.4,1.9-3.7c0.8-2,1.3-4.2,1.7-6.4
			C1005,480.8,1004.9,476.2,1003.9,471.8z"/>
		<path class="st6" d="M987.3,455.9c-4.9,1.5-10.5,0.6-15.8,0.7c-5.9,0-11.4,1.3-16.8,2.8c-5.5,1.6-10.9,3.3-15.7,6.2
			c-4.4,2.7-8,6.4-10.8,10.9c-1.4,2.2-2.5,4.6-3.5,7.1c-0.5,1.4-1.2,2.7-1.5,4.1c-0.4,1.8-0.7,3.7-0.5,5.5c0,0.3,0.1,0.6,0.2,0.8
			c0.5,0.7,1,0.1,1.3-0.4c1.6-3.2,2.5-6.7,4-10c2-4.5,4.6-8.5,8.1-11.7c3.9-3.6,8.7-5.8,13.7-7.6c5-1.8,10.3-3.4,15.7-4.3
			c5.1-0.9,10.4-0.5,15.6-0.9c2.4-0.2,4.8-0.6,6.9-1.6C989.1,457.1,988.2,455.6,987.3,455.9z"/>
		<path class="st6" d="M986.4,520.5c-0.4-0.4-0.7-0.4-1.2-0.2c-2.2,1-3.8,2.8-5.4,4.5c-1.7,1.8-3.7,3.4-5.7,4.9
			c-4.3,3.3-9,6.1-13.9,8.4c-4.4,2-9.1,3.6-14.4,3c-4.5-0.5-9.1-2.1-13.5-1.8c-2.4,0.2-4.4,1.1-6.1,2.5c-1.6,1.3-3.4,3.4-6,2.3
			c-2.4-1-1.4-3.5-0.8-4.9c1.1-2.5,2.2-5,3.1-7.7c1.3-4,1.4-8.3,1.4-12.5c0-2.2-0.2-4.5-1-6.6c-0.3-0.9-1-1.4-1.4-0.3
			c-0.3,0.6-0.4,1.4-0.4,2.1c-0.1,1-0.1,2.1-0.1,3.1c0,0.6,0,1.3,0,1.9c0,2.1,0,4.2-0.3,6.3c-0.4,2.9-1.3,5.6-2.4,8.1
			c-1,2.3-2.5,4.6-2.6,7.3c-0.1,2.9,2,5.5,4.8,6.2c2.9,0.8,5.1-0.7,7-2.3c1.8-1.5,3.5-2.5,6-2.7c2.2-0.1,4.6,0.3,6.9,0.8
			c2.4,0.5,4.7,1,7.1,1.1c2.8,0.2,5.5-0.2,8-0.8c5.4-1.5,10.3-4.1,15-6.9c3.3-2.1,6.5-4.3,9.5-6.9c1.4-1.2,2.8-2.6,4.1-4
			c0.1-0.2,0.4-0.5,0.8-1C985.5,523.2,987,521,986.4,520.5z"/>
		<g>
			<path class="st7" d="M911.8,505.1c0-2.2,0-4.4,0-6.7c0-2.2-0.1-4.3-0.1-6.5c0-1-0.1-2.1-0.1-3.1c0-1.1,0-2.3-0.4-3.3
				c-0.3-0.7-1.2-0.6-1.3,0.1c-0.1,0.3-0.2,0.5-0.2,0.8c-0.1,0.2-0.2,0.5-0.2,0.5c0,0.1,0,0.2,0.1,0.3c0,0.5-0.1,1-0.1,1.5
				c0,1-0.1,2.1-0.1,3.1c-0.1,2.2-0.1,4.4-0.1,6.7c0,2.2,0,4.3,0,6.5c0,2-0.3,4.5,0.5,6.4c0.3,0.6,1.4,0.6,1.7,0
				C912.1,509.5,911.8,507.1,911.8,505.1z"/>
			<path class="st7" d="M924.1,497.2c-1.1-0.7-2.5-0.4-3.6,0.1c-2.3,1.1-4.4,3.2-5.8,5.3c-1.3,2-2.5,5.5-0.1,7.3
				c2.3,1.7,5.2-0.7,6.8-2.3c0.8-0.8,1.6-1.8,2.1-2.8c0,0.4,0,0.7,0,1.1c0.1,1.2-0.1,2.7,1.3,3.1c0.3,0.1,0.5-0.2,0.4-0.5
				c-0.3-0.3-0.1-1-0.1-1.4c0-0.8,0.1-1.6,0.1-2.4c0-1.5,0-3.1,0-4.6c0.1,0,0.3-0.2,0.3-0.4C925.6,498.7,925,497.7,924.1,497.2z
				 M920.6,505.9c-0.9,0.9-5,4.2-5.3,1.2c-0.2-2.2,1.9-4.6,3.4-6c0.9-0.8,1.8-1.6,2.9-2.1c0.8-0.3,1.9-0.4,2.6,0.1
				c-0.3,0.1-0.6,0.3-0.6,0.7C923.3,502.1,922.2,504.2,920.6,505.9z"/>
			<path class="st7" d="M936.3,511c0-1.3-0.1-2.5-0.1-3.8c0-1.6-0.1-3.2-0.1-4.8c0.1-1.1,0-2.2-0.1-3.2c0-0.8-1.3-0.8-1.3,0
				c0,0.8,0,1.6,0,2.3c-0.1,1-0.3,2-0.8,2.8c-0.7,1.1-1.8,2-3.1,1.8c-1.7-0.3-1.4-2-1.3-3.3c0-0.6,0.4-4-1-3.7c-1,0.2-0.9,1.8-1,2.6
				c-0.1,1.1-0.3,2.3-0.2,3.5c0.2,1.9,1.8,3.2,3.7,3.3c1.5,0.1,2.9-0.7,3.8-1.9c0,2,0,3.9-0.1,5.9c-0.1,1.9-0.8,3.5-2.4,4.4
				c-0.8,0.5-1.7,0.8-2.6,1c-1,0.2-2,0.1-3,0.3c-0.6,0.2-0.8,1.2-0.2,1.5c1.9,0.8,4.6,0.4,6.4-0.6c1.7-0.9,3.1-2.7,3.4-4.6
				C936.4,513.3,936.3,512.1,936.3,511z"/>
			<path class="st7" d="M963.8,502.6c-0.4-1.9-1.7-3.3-3.4-4c0.2-0.1,0.2-0.5-0.1-0.6c-1.2-0.4-2.1-0.3-3.1,0.4
				c-1,0.7-1.7,1.7-2.3,2.7c-1.1,2-2.6,4.9-0.5,6.8c1.7,1.6,4.7,1.5,6.6,0.4C963,507.2,964.2,504.9,963.8,502.6z M958.7,507.1
				c-0.9,0.2-2.3,0.1-3-0.6c-0.8-0.8-0.2-2.3,0.2-3.2c0.6-1.5,1.5-3.2,2.9-4.1c1.2,1,2.6,2.1,3,3.6
				C962.4,504.9,960.7,506.8,958.7,507.1z"/>
			<path class="st7" d="M974.8,501.3c-0.4-2.2-1.7-3.9-4.1-4c-1.4,0-2.6,0.5-3.5,1.4c0-0.2,0-0.3-0.1-0.5c-0.1-0.4-0.7-0.4-0.8,0
				c-0.2,0.7-0.2,1.4-0.3,2.2c0,0.1-0.1,0.1-0.1,0.2c-1.1,2.4-0.7,5.1-0.2,7.6c0.2,0.9,1.6,0.7,1.6-0.2c0-1.7,0-3.4,0-5
				c0-0.5,0-1,0-1.5c0.6-1.4,1.9-2.7,3.5-2.5c2,0.2,2.3,2.2,2.4,3.8c0.2,2.1,0.2,4.3,0.3,6.4c0,0.5,0.7,0.6,0.8,0.1
				C975.3,506.7,975.2,503.9,974.8,501.3z"/>
			<path class="st7" d="M987.1,505.3c0-1.6-0.1-3.1-0.1-4.7c0-0.5-0.7-0.8-1.1-0.6c0,0,0-0.1-0.1-0.1c-0.5-0.5-0.8-0.9-1.5-1.1
				c-0.5-0.2-1.1-0.3-1.7-0.3c-1.3,0-2.6,0.4-3.6,1.1c-2.1,1.6-3,4.8-2.3,7.3c0.3,1.2,1.1,2.3,2.3,2.6c1.4,0.4,2.7-0.3,3.7-1.2
				c1.1-1,2.1-2.1,2.8-3.4c0,0.1,0,0.3,0,0.4c0,1.2-0.2,2.9,0.6,3.9c0.1,0.1,0.4,0.2,0.5,0C987.4,508.2,987.1,506.5,987.1,505.3z
				 M983,506.1c-0.7,0.7-1.5,1.6-2.5,1.8c-1.1,0.2-1.7-0.6-2-1.6c-0.5-1.8,0.1-3.9,1.4-5.2c1.4-1.3,3.8-1.7,5.4-0.6
				c0.1,0.1,0.2,0.1,0.2,0.1C985.2,502.7,984.4,504.5,983,506.1z"/>
			<path class="st7" d="M998.8,509.9c-0.1-2.7-0.1-5.5-0.1-8.2c0-0.2,0-0.4,0-0.6c0-0.3-0.2-0.5-0.4-0.6c-0.4-1.2-1.2-2.2-2.5-2.6
				c-2.5-0.7-4.7,1.8-5.8,3.8c-1.2,2.2-1.8,4.9-0.1,7c1.5,1.9,4,2,5.8,0.4c0.6-0.6,1.2-1.2,1.6-2c0,0.3,0,0.6,0,0.9
				c0,2.1,0.2,4.5-0.4,6.5c-0.6,1.8-2.5,2.5-4.2,2.9c-1.7,0.4-3.1,0.4-4.7-0.5c-0.3-0.2-0.8,0.1-0.7,0.5c0.7,1.8,2.9,2.4,4.7,2.3
				c2.1-0.1,4.5-1,5.8-2.7C999.2,515,998.8,512.2,998.8,509.9z M995,507.7c-0.7,0.7-1.8,1.2-2.8,0.8c-0.9-0.4-1.5-1.4-1.7-2.4
				c-0.3-2.2,1.3-5,3.1-6.2c0.9-0.6,2-0.7,2.8,0.1c0.4,0.4,0.7,0.9,0.9,1.5c0,0.3,0,0.7,0,1C997.1,504.5,996.4,506.5,995,507.7z"/>
			<path class="st7" d="M951.4,503c-0.2-1.4-0.2-3.6-1.8-4.1c-1.7-0.5-3,1.3-3.8,2.5c-0.1,0.2-0.2,0.4-0.4,0.6c0-0.5-0.1-1-0.2-1.4
				c-0.2-1.6-1.4-3-3.2-2.3c-0.9,0.3-1.5,1.2-2,2.1c-0.1-0.8-0.3-1.7-0.4-2.5c-0.2-0.8-1.3-0.6-1.3,0.2c-0.1,3.4,0.3,6.9,0.6,10.3
				c0.1,1.2,2,1.3,2,0c0-1.4,0-2.7,0.1-4.1c0.1-1.2,0.4-2.8,1.2-3.8c0.3-0.4,0.9-0.8,1.1-0.1c0.2,0.6,0.2,1.3,0.2,2
				c0.1,1.5,0.1,3,0,4.4c0,1,1.6,1.3,1.8,0.2c0.2-1.4,0.7-2.7,1.3-3.9c0.3-0.5,1.6-3.2,2.5-2.6c0.4,0.2,0.4,1.2,0.4,1.6
				c0.1,0.7,0.2,1.5,0.2,2.3c0.1,1.5-0.1,3.2,0.5,4.6c0.1,0.2,0.5,0.4,0.6,0.1C952,507.2,951.6,504.8,951.4,503z"/>
			<path class="st7" d="M1009.8,505c-1.6,0.9-3.6,1.8-5.5,1.9c-1.6,0.1-2.1-1-2.1-2.2c1.2,0.2,2.5-0.5,3.5-1.2c1.1-0.7,2-1.8,2-3.2
				c0-1.4-0.9-2.5-2.3-2.8c-1.4-0.2-2.7,0.5-3.6,1.6c-1,1.3-1.4,3.1-1.6,4.7c-0.2,1.6-0.1,3.3,1.3,4.4c2.7,2.1,7.1-0.2,8.8-2.6
				C1010.6,505.2,1010.1,504.8,1009.8,505z M1002.6,502.5c0.2-0.8,0.4-1.6,0.9-2.2c0.5-0.6,1.8-1.4,2.5-0.4c1.1,1.6-2,3.7-3.6,3.9
				C1002.4,503.3,1002.5,502.9,1002.6,502.5z"/>
		</g>
	</g>
	<path class="st6" d="M935.6,670.9c-0.1,0-0.1,0.2,0,0.2C935.7,671.1,935.7,670.9,935.6,670.9z"/>
	<g>
		<path class="st5" d="M1658.1,848.5l-0.3-0.3c-0.2-0.2-0.3-0.4-0.5-0.6l-0.1-0.1l-0.1-0.1c-0.4-0.2-0.8-0.5-1.2-0.7l-0.1,0l-0.1,0
			c-0.5-0.1-0.9-0.1-1.3-0.1l-0.1,0c-0.1,0-0.2,0-0.3,0l-0.1,0c-0.6,0.2-1.2,0.4-1.8,0.8l-0.1,0c-2.4,1.6-4.2,4.9-4.7,7.4
			c-0.6,2.7-0.2,4.8,1,6.1c0.5,0.5,1.1,0.8,1.6,1c1.5,0.4,3.2-0.2,4.5-1.3c3-2.6,5.2-7.6,3.5-12L1658.1,848.5z"/>
		<path class="st5" d="M1697.6,862.4l-0.3-0.3c-0.2-0.2-0.3-0.4-0.5-0.6l-0.1-0.1l-0.1-0.1c-0.4-0.2-0.8-0.5-1.2-0.7l-0.1,0l-0.1,0
			c-0.5-0.1-0.9-0.1-1.3-0.1l-0.1,0c-0.1,0-0.2,0-0.3,0l-0.1,0c-0.6,0.2-1.1,0.4-1.8,0.7l-0.1,0c-2.4,1.4-4.1,4.6-4.6,6.9
			c-0.6,2.5-0.2,4.5,1.1,5.8c0.5,0.5,1.1,0.8,1.6,1c1.5,0.4,3.2-0.1,4.4-1.1c3-2.4,5.1-7.1,3.3-11.2L1697.6,862.4z"/>
		<path class="st5" d="M1665.8,844.7c0.2,0,0.4-0.2,0.6-0.4c0.1-0.2,0.1-0.5-0.1-0.7c-0.4-0.6-1.1-0.9-1.7-1.1l-0.2-0.1
			c-1-0.4-1.7-0.8-2.4-1.1c-1.8-0.8-3.4-1.3-4.9-1.8c-1.6-0.5-3.2-1-4.8-1.5l-0.6-0.2c-1.5-0.4-3.1-0.9-4.7-0.7
			c-0.3,0-0.6,0.3-0.7,0.6c-0.1,0.3,0.1,0.7,0.4,0.8l0,0c1.1,0.7,2.4,1,3.7,1.3c0.3,0.1,0.7,0.2,1,0.3c1.7,0.5,3.3,1,4.9,1.5
			c1.5,0.5,3.1,1,4.6,1.6l1.1,0.4c0.4,0.2,0.8,0.3,1.3,0.5c0.1,0,0.3,0.1,0.4,0.2c0.3,0.1,0.6,0.2,0.9,0.3
			C1665.1,844.7,1665.4,844.7,1665.8,844.7z"/>
		<path class="st5" d="M1706.3,856.1c-1.3-1.2-2.8-1.9-4.6-2.7c-1.4-0.6-3-1.2-4.8-1.8c-1.7-0.5-3.4-1-5.1-1.3
			c-1.1-0.2-1.9-0.4-2.7-0.5c-0.1,0-0.2,0-0.3,0c-0.6-0.1-1.4-0.2-2,0.2c-0.1,0.1-0.2,0.2-0.2,0.4c0,0.1,0,0.3,0.1,0.4
			c0.4,0.6,1.1,0.7,1.7,0.8c0.1,0,0.2,0,0.3,0.1l0.3,0.1c0.7,0.2,1.5,0.3,2.2,0.5c1.7,0.4,3.4,0.9,5.1,1.4c1.4,0.5,3,1,4.8,1.8
			c0.4,0.2,0.8,0.3,1.2,0.5c1,0.4,2,0.9,3,1.2c0.2,0.1,0.4,0.1,0.6,0.2c0.3,0.1,0.5-0.1,0.6-0.3
			C1706.5,856.6,1706.5,856.3,1706.3,856.1z"/>
		<path class="st5" d="M1736.7,832.7L1736.7,832.7c0.1-0.9,0.2-1.8,0.3-2.6l-0.3,0c0.6-1.2,1.1-2.5,1.2-3.8c0.3-2,0-4-0.8-5.7
			c-0.4-0.9-1-1.7-1.5-2.4c-0.2-0.3-0.5-0.6-0.5-0.9c0-0.3,0.1-0.6,0.6-1c0.2-0.1,0.4-0.3,0.5-0.4c0.6-0.5,1.3-1,1.7-1.8
			c0.5-0.9,0.7-2.5-0.4-3.1c-0.4-0.3-1-0.3-1.4-0.3c-0.2,0-0.3,0-0.4,0c-0.7-0.1-1.4-0.2-2.1-0.3c-1.3-0.2-2.6-0.5-3.8-0.7
			c-0.5-0.1-0.9-0.2-1.4-0.3c0.4-0.5,0.7-1.2,0.9-1.8c0.5-1.8,0-3.6-1.1-5.1c-2.8-3.4-7.4-2.9-11.1-2.5l-0.9,0.1
			c-4.4,0.5-9,0.8-13.5-0.2c-3.3-0.7-6.6-2.1-10.4-4.4c-2.7-1.7-5.4-3.6-7.9-5.5c-3.6-2.6-7.4-5.4-11.4-7.4
			c-3.7-1.9-7.2-2.9-10.6-3.2c-3.9-0.3-7.8,0.6-11.6,1.4c-0.5,0.1-1,0.2-1.5,0.3c-4.7,1-9.2,1.5-13.5,1.5l-0.1,0
			c-0.9,0-1.3-0.1-1.4-0.5c-0.1-0.4,0-1,0.1-1.5c0.1-0.3,0.1-0.5,0.2-0.8c0.2-1,0.5-2.1,0.3-3.2c-0.2-0.7-0.5-1.3-1.1-1.7
			c-0.4-0.3-1-0.2-1.4,0.1c-2.2,2.1-4.3,4.3-6.3,6.7c-0.4-1-1-2.1-2-2.9c-1.3-1.1-3.2-1.2-4.6-0.5c-1.6,0.8-2.1,2.6-1.5,4.9
			c0.4,1.6,0.9,3.1,1.7,4.7c-2.7,1.4-5.1,3.8-7.5,7.5c-2.2,3.5-4.3,7.5-6.3,12.3c-3.8,9-6.2,18.4-7.1,27.9
			c-0.5,4.6-0.5,9.3-0.2,13.9c-0.1,1.2-0.1,2.4,0,3.6c0.3,3.1,1.6,5.8,3.5,7.5c1.6,1.4,3.6,2.2,5.6,2.2c-2.1,7.3-3.7,14.5-1.5,21.3
			c1.3,3.9,4,7,6.9,10.1c5.9,6.2,13.2,11.3,21.7,14.9c3,1.3,6.1,2.4,9.3,3.3c5,1.5,10.4,2.6,16.3,3.3c7.2,0.9,14.9,1.4,24.3,1.4
			c4.6,0,9-0.2,12.7-2.7c4.3-3,6.3-8.3,7.7-13.6l0.3-1c1.3-4.7,2.6-9.5,5.8-12.9c0.8-0.8,1.7-1.6,2.6-2.3c1.5-1.3,3.1-2.6,4.2-4.3
			c0.9-1.5,1.4-3.2,1.8-4.9c0.1-0.3,0.1-0.6,0.2-0.9c1.7-6.5,4.9-12.7,7.9-18.8C1731.6,848.4,1735.5,840.9,1736.7,832.7z
			 M1716.7,877.6c-1.3,2-3,3.8-5.5,5.5c1.3-4,2.7-8.1,4.1-12.2c1-0.4,1.9-1,2.7-1.6c0.4-0.3,0.8-0.6,1.2-1c0,1.1-0.1,2.1-0.3,3.2
			l0,0C1718.7,873.7,1717.9,875.8,1716.7,877.6z M1602.9,824.2c2.1-9.1,5.5-17.7,10-25.6c2.2-3.8,4.8-7.6,8.7-9
			c0.4-0.1,0.6-0.4,0.8-0.8c0.1-0.3,0.1-0.7-0.1-1c-0.7-1.4-1.3-2.8-1.7-4.2l-0.1-0.3c-0.4-1.3-0.7-2.4,0-2.9
			c0.4-0.3,0.9-0.3,1.4-0.2c0.3,0.1,0.6,0.3,0.8,0.5c0.9,0.8,1.4,2.2,1.8,3.5c0.1,0.4,0.5,0.8,1,0.9c0.4,0.1,0.8-0.1,1-0.4
			c2-2.4,4-4.7,6.2-6.9c0,0.4-0.1,0.8-0.2,1.1c0,0.1-0.1,0.3-0.1,0.5c-0.3,1.2-0.6,2.6,0.1,3.8c0.9,1.7,3.1,1.6,4.6,1.5
			c0.2,0,0.5,0,0.7,0c2.1-0.1,4.3-0.2,6.5-0.5c2.3-0.3,4.5-0.8,6.7-1.3c2-0.4,4.1-0.9,6.1-1.2c3.8-0.5,7.5-0.2,11,1
			c5.5,1.9,10.3,5.4,14.9,8.9c1.2,0.9,2.5,1.9,3.8,2.8c2.5,1.8,5.9,4,9.5,5.7c3.7,1.7,7.7,2.6,11.8,2.7c2.6,0.1,5.3-0.2,7.3-0.4
			c0.6-0.1,1.2-0.1,1.8-0.2c1.8-0.2,3.7-0.5,5.5-0.2c1.8,0.2,3.8,1.2,4.4,3.1c0.2,0.8,0.1,1.7-0.3,2.4c-0.2,0.4-0.7,0.9-1.4,1.1
			c-0.5,0.1-0.9,0.6-0.9,1.2c0,0.5,0.3,1,0.8,1.1c3.4,0.9,6.9,1.6,10.4,2.1c-0.2,0.4-0.8,0.8-1,0.9l-0.1,0.1
			c-0.8,0.6-1.6,1.3-1.9,2.4c-0.4,1.5,0.4,2.7,1.2,3.7c0.3,0.4,0.6,0.7,0.8,1.1c1.5,2.8,1,6.6-1,9c-2.5,2.8-6.5,3.2-10.1,3.5
			l-0.6,0.1c-4.4,0.4-8.9,0.5-13.8,0.4c-0.2,0-0.4,0-0.6,0c0.9-0.6,1.8-1.4,2.8-2.2l0.2-0.2c1-0.9,2.6-2.3,2.5-3.7
			c0-0.4-0.2-1-0.9-1.5c-0.8-0.6-1.8-0.7-2.7-0.8c-0.2,0-0.5-0.1-0.7-0.1c-1.2-0.2-2.5-0.4-3.7-0.6c-2.8-0.4-5.8-0.7-8.8-0.5
			c-0.3,0-0.6,0.2-0.7,0.5c-0.1,0.3-0.1,0.7,0.1,0.9c0.2,0.2,0.4,0.3,0.7,0.3c1.1,0.1,2.1,0.2,3.2,0.3c1.6,0.1,3.3,0.3,5,0.5
			c1.4,0.2,2.8,0.4,4.2,0.7l0.4,0.1c0.4,0.1,0.9,0.2,1.3,0.3l0.1,0c0.1,0,0.2,0,0.3,0.1c-0.1,0.1-0.3,0.3-0.3,0.4l-0.1,0.1
			c-1.7,1.7-3.4,3.1-5.3,4.1c-0.7,0.4-1.5,0.8-2.3,1.1c-7.4-0.6-14.8-2-22.2-4.1c-3.4-1-7-2.2-11-3.6c1.6-0.1,3.3-0.5,4.9-1.1
			c1.8-0.7,3.4-1.5,4.8-2.6l0.2-0.1c1-0.7,3.1-2.3,2.2-4c-0.4-0.8-1.4-1-2.1-1.1c-0.1,0-0.3,0-0.4-0.1l-6.7-1.4c0,0-0.1,0-0.2,0
			c-0.8-0.1-1.2-0.2-1.5-0.3c0.2-0.1,0.3-0.2,0.4-0.2c0.1-0.1,0.2-0.1,0.3-0.2l2.7-1.8c0.1-0.1,0.2-0.1,0.3-0.2
			c0.4-0.2,0.9-0.5,1.1-1c0.4-0.6,0.3-1.1,0.1-1.5c-0.5-1.1-2.1-1.5-3.1-1.7c-0.2,0-0.3-0.1-0.4-0.1l-1.7-0.5
			c-1.8-0.5-3.6-1-5.5-1.6c-1.2-0.3-2.3-0.6-3.5-0.9c-0.2-0.1-0.4-0.1-0.7-0.2c-0.9-0.3-1.9-0.6-2.8-0.2l-0.2,0.1l-0.1,0.2l-0.1,0.3
			l0.1,0.2c0.5,0.7,1.3,1,1.9,1.2c0.1,0,0.3,0.1,0.4,0.1c1,0.3,2,0.7,3,1c1.9,0.6,3.8,1.2,5.7,1.7l3.8,1.1c-0.3,0.2-0.6,0.4-1,0.6
			c-0.3,0.2-0.5,0.4-0.8,0.5c-0.2,0.1-0.4,0.2-0.6,0.4c-0.6,0.4-1.3,0.8-1.8,1.3c-0.5,0.7-0.5,1.3-0.4,1.7c0.3,0.9,1.2,1.5,2.1,1.8
			c1.3,0.4,2.6,0.6,3.9,0.9c0.6,0.1,1.3,0.2,1.9,0.4l2.8,0.6c0,0,0.1,0,0.1,0c0,0-0.1,0.1-0.1,0.1c-0.1,0.1-0.2,0.1-0.2,0.2
			c-1.2,1-2.5,1.8-4,2.5c-3,1.3-6.5,1.8-10.2,1.4c-0.2,0-0.4,0-0.6,0.2c-3.1-1.2-6.2-2.4-9.2-3.7l-1.3-0.5c-2.3-0.9-4.6-1.8-6.8-2.8
			l-1-0.4c0-0.1-0.1-0.2-0.2-0.2c-0.3-0.2-0.7-0.3-1-0.1c-0.7,0.4-1.3,1-1.9,1.6c-0.2,0.2-0.4,0.4-0.6,0.6c-0.7,0.7-1.5,1.4-2.3,2.1
			c-1.7,1.4-3.4,2.6-5.1,3.7c-1.8,1.1-3.6,2-5.5,2.8c-1,0.4-2.1,0.8-2.9,1.1c-0.8,0.3-2.2,0.8-3.1,0.3c-0.4-0.2-0.8-0.1-1.1,0.2
			c-0.3,0.3-0.3,0.8,0,1.1c0.5,0.6,1.1,0.9,1.8,1.1c-0.8,1.7-1.8,3.9-2.9,6c-0.6,1.1-1.4,2.3-2.5,2.9c-0.9,0.4-2,0.6-2.7-0.1
			c-0.6-0.6-0.9-1.4-1.2-2.3c-0.3-0.9-0.6-1.8-1.3-2.5c-2-2.3-5.4-0.6-6.5-0.1c-1.9,0.9-3.7,2.5-5.3,4.4c-0.8,1-1.5,2.1-2.1,3.3
			C1600.7,836.2,1601.5,830.1,1602.9,824.2z M1718.4,864.7c3.6-8.3,6.2-17,7.7-25.9l-1-0.3l-24.4,64.8c-1.5,4-3.2,7.8-6.3,9.7
			c-2.3,1.4-5.1,1.5-8.1,1.5c-11.8,0-27.3-0.5-41.7-4.9c-8.1-2.5-15.3-6-21.5-10.5c-3.3-2.4-6.4-5.1-9-8c-2.6-2.8-5.2-5.9-6.1-9.8
			c-0.1-0.3-0.1-0.6-0.2-0.8c0-0.3-0.1-0.6-0.1-0.8c-0.2-1.4-0.2-2.8-0.1-4.3c0.2-4.6,1.6-9.2,2.9-13.6c0.1-0.4,0-0.9-0.3-1.2
			c-0.1-0.1-0.3-0.3-0.5-0.3c-0.2-0.1-0.4-0.1-0.6,0c-1.9,0.5-4-0.1-5.6-1.6c-1.5-1.4-2.4-3.6-2.6-6.2c-0.3-4.5,1.3-9.3,4.2-12.6
			c1.5-1.7,3.2-2.9,5-3.5c1-0.3,1.9-0.6,2.5,0c0.4,0.4,0.7,1.1,0.9,1.8l0.1,0.3c0.7,1.9,1.7,3.9,4.1,4.1c2.2,0.2,4.4-1.2,6-3.9
			c1.5-2.5,2.6-5.3,3.6-7.8c1-0.2,1.9-0.5,2.9-0.9c2.2-0.9,4.3-1.9,6.3-3.1c2.1-1.3,4-2.7,5.8-4.2c1.1-1,1.9-1.8,2.7-2.6l0.2-0.2
			c0.2-0.2,0.5-0.5,0.7-0.8c0.6,0.2,1.2,0.5,1.8,0.7c0.4,0.2,0.8,0.3,1.2,0.5c2.5,1,5,2,7.5,3c9.7,3.9,19.7,7.9,30.2,10.5
			c4.5,1.1,9.1,1.9,13.7,2.4c0.1,0.1,0.2,0.2,0.4,0.2c0.9,0.1,1.8,0.3,2.8,0.1c4.4,0.4,8.9,0.4,13.3,0.3c2.7-0.1,5.1-0.3,7.6-0.6
			c2.2-0.2,4.4-0.5,6.6-1.2c2-0.7,3.5-1.7,4.7-2.9C1731.9,843.9,1726.1,855.1,1718.4,864.7z"/>
		<path class="st5" d="M1610.9,846.2c-0.8-1.1-2.2-2.3-3.7-2.7c0.5-0.5,1.1-0.9,1.7-1.1c0.8-0.2,1.6-0.2,2.3,0.2
			c0.7,0.4,1.2,1,1.4,1.8c0.1,0.3,0.4,0.5,0.8,0.5c0.3-0.1,0.5-0.3,0.5-0.7c-0.1-1.6-1.3-2.9-3-3.4c0,0,0,0,0,0
			c-1.6-0.5-3.5,0.1-4.9,1.4c-3.1,3-2.9,7.6-1.5,10.7c0.8,1.6,2.3,3.5,4.2,4.1c0.1,0,0.1,0,0.2,0.1c0.3,0.1,0.6-0.1,0.7-0.3
			c0.1-0.3,0.1-0.6-0.2-0.8c-1.5-1.3-2.7-2.4-3.5-4.2c-0.7-1.7-0.9-3.6-0.4-5.3c0.2-0.6,0.4-1.3,0.7-1.8l0.1,0
			c0.5,0.2,0.9,0.4,1.3,0.6c0.7,0.5,1.4,1,1.9,1.7c0.9,1.2,1.6,2.8,1.8,4.7c0,0.2,0.2,0.4,0.5,0.4c0.3,0,0.5-0.2,0.5-0.4
			C1612.8,849.8,1612.3,847.9,1610.9,846.2z"/>
		<path class="st5" d="M1672.1,893.7c-1-0.3-2.1-0.5-3.1-0.8c-2.3-0.6-4.8-1.2-7.1-2c-1.4-0.5-2.7-1.1-4-1.7
			c-1.8-0.9-3.7-1.8-5.7-2.3c-0.3-0.1-0.6,0-0.7,0.3c-0.1,0.2-0.1,0.5,0.1,0.8c2.7,2.8,6.8,4.9,11.2,6.1c3.1,0.9,6.2,1.4,9,1.6
			c0.5,0,0.9-0.3,1-0.8C1672.9,894.3,1672.6,893.8,1672.1,893.7z"/>
	</g>
	<g>
		<g>
			<g>
				<path class="st5" d="M346.3,534.8c-4.1,1.6-8.5,4.1-10.6,8.1c-1.6,3-2.9,6.7-4.3,9.8c-0.4,0.9,0.9,1.5,1.6,0.9
					c1.7-1.5,3.5-2.8,5.3-4.2c-0.5-0.4-1-0.7-1.4-1.1c-2.3,8-7.3,14.4-10.5,22c-0.4,0.9,0.3,2.2,1.4,1.8c3.1-1.1,5.2-2.8,6.8-5.8
					c-0.7-0.2-1.5-0.4-2.2-0.6c0.8,9.1-1.6,17.6-6.9,25c-0.6,0.9,0.4,2,1.4,1.8c9.1-2.4,14.6-11.5,18.3-19.5c0.6-1.4-1.4-2.6-2-1.2
					c-3.4,7.4-8.5,16.2-16.8,18.4c0.5,0.6,0.9,1.2,1.4,1.8c5.6-7.7,8-16.7,7.2-26.2c-0.1-1.1-1.6-1.7-2.2-0.6
					c-1.2,2.2-3,3.8-5.4,4.6c0.5,0.6,0.9,1.2,1.4,1.8c3.3-7.7,8.4-14.4,10.3-22.7c0.2-1-0.9-1.6-1.6-1c-1.7,1.5-3.4,2.9-5.2,4.2
					c0.4,0.4,0.9,0.9,1.3,1.3c0.9-1.9,2.2-3.6,3-5.5c1.1-2.7,1.7-5.2,4-7.4c1.9-1.9,4.3-3.3,6.5-4.9
					C347,535.4,346.8,534.6,346.3,534.8L346.3,534.8z"/>
			</g>
		</g>
		<g>
			<g>
				<path class="st5" d="M335.4,585.3c-4.2,10.7,2.2,23.8,5.3,34c0.3,1.1,2,1.1,2.3,0c0.5-1.6,0.9-3.2,1.4-4.7c-0.7,0-1.4,0-2,0
					c2,5.1,4.7,18.3-5.4,16.4c-1.6-0.3-2.3,2.1-0.7,2.5c1.8,0.4,3.5,0.6,5.4,0.7c-0.3-0.6-0.7-1.2-1-1.7c-0.8,1-1.7,2.1-2.5,3.1
					c-0.8,0.6-0.4,1.9,0.7,1.7c2.7-0.7,5.4-1.3,8.1-1.9c-0.3-0.5-0.6-1-0.8-1.4c-1.1,0.7-2.2,1.3-3.2,2c-1,0.3-0.9,2.1,0.3,1.9
					c2.3-0.3,4.4-0.8,6.6-1.7c-0.3-0.5-0.7-0.9-1-1.4c-1,0.6-1.9,1.2-2.9,1.9c-1.1,0.1-1.2,1.8,0,1.8c8.6-0.4,17.8-0.9,24.7-6.8
					c0.9-0.8-0.4-2-1.3-1.3c-6.8,5.3-15.1,6-23.4,6.3c0,0.6,0,1.2,0,1.8c2.1-0.2,3.3-0.9,4.5-2.7c0.4-0.6-0.3-1.7-1-1.4
					c-2.1,0.8-3.8,1.3-6.1,1.5c0.1,0.6,0.2,1.3,0.3,1.9c1.6-0.7,2.7-1.3,3.9-2.6c0.6-0.6,0-1.6-0.8-1.4c-2.7,0.6-5.4,1.2-8.2,1.8
					c0.2,0.6,0.5,1.1,0.7,1.7c1.6-1,2.6-1.9,3.6-3.5c0.5-0.8-0.2-1.7-1-1.7c-1.6-0.1-3.2-0.4-4.7-0.8c-0.2,0.8-0.5,1.7-0.7,2.5
					c3.9,1,7.6-0.8,9.4-4.4c2.5-4.9,0.4-10.3-1.3-15c-0.4-1-1.7-1-2,0c-0.5,1.6-1.1,3.1-1.6,4.7c0.8,0,1.5,0,2.3,0
					c-3.1-11-6.8-21.6-6.3-33.2C336.8,584.7,335.7,584.6,335.4,585.3L335.4,585.3z"/>
			</g>
		</g>
		<g>
			<g>
				<path class="st5" d="M361.7,520.7c-8.7,1.8-16.3,8.4-21.9,15.1c-0.6,0.7-0.1,2,1,1.7c2.1-0.6,4.2-1.3,6.3-1.9
					c1.2-0.4,0.7-2.2-0.5-1.9c-2.1,0.6-4.2,1.2-6.3,1.8c0.3,0.6,0.7,1.1,1,1.7c5.9-7,13.1-11.2,20.6-16.2
					C362.1,521,361.9,520.7,361.7,520.7L361.7,520.7z"/>
			</g>
		</g>
		<g>
			<g>
				<path class="st5" d="M361.6,520.6c-2-2.6-5-2.6-8-1.6c0.3,0.8,0.7,1.6,1,2.4c3.6-1.8,7.2-3.7,11-4.8c4-1.2,7.8-0.5,11.9-0.8
					c0.8-0.1,1.2-1.1,0.4-1.6c-7.3-4.5-18.1,1.5-24.7,5c-1.5,0.8-0.2,2.9,1.3,2.2c2.4-1,4.3-0.5,6.7-0.2
					C361.5,521.2,361.8,520.8,361.6,520.6L361.6,520.6z"/>
			</g>
		</g>
		<g>
			<g>
				<path class="st5" d="M379,514.4c-1.3-0.9-2.6-1.7-4.1-2.4c-0.2,0.6-0.3,1.2-0.5,1.8c4.5,0,9-0.2,13.4,0.7
					c3.6,0.7,6.5,2.6,9.9,3.7c1,0.3,1.4-0.9,0.9-1.5c-5.1-6.3-17.1-5.3-24.2-4.8c-1.1,0.1-1.2,1.5-0.3,1.9c1.5,0.6,2.9,1,4.5,1.5
					C379.1,515.3,379.4,514.6,379,514.4L379,514.4z"/>
			</g>
		</g>
		<g>
			<g>
				<path class="st5" d="M398.6,519c1.3-3.6-1.4-8-4.3-10c-0.3,0.6-0.5,1.2-0.8,1.8c3.9,1.3,6.5,4.1,8.1,7.8
					c0.2,0.5,0.9,0.5,1.3,0.2c3-3.1,7.8-3.3,11.1-0.6c0.3-0.6,0.5-1.3,0.8-1.9c-4.2,0.3-7.7,2-10.7,4.9c-0.9,0.9,0.1,2.2,1.2,2
					c0.5-0.1,1.6-1.1,1.8-1.1c2.1-0.1,4.6,4.2,5.6,5.6c2.2,3.1,4.4,6.2,5.6,9.7c0.6-0.3,1.3-0.5,1.9-0.8c-1.1-1.6-1.9-2.2-3.9-2.6
					c-1.2-0.3-1.8,1.6-0.5,1.9c0.9,0.6,1.7,1.2,2.6,1.8c0.6,1,2.3,0.4,1.9-0.8c-1.5-4.7-4.4-9-7.5-12.9c-1-1.3-3.2-4.5-5.1-4.7
					c-1.8-0.2-1.7,1.4-3.1,1.6c0.4,0.7,0.8,1.3,1.2,2c2.5-2.5,5.4-4.1,9-4.4c0.8-0.1,1.6-1.2,0.8-1.9c-4.4-3.5-9.9-3-13.8,1
					c0.5,0.1,0.9,0.2,1.4,0.4c-1.3-4.7-4.5-7.7-9.1-9.1c-1.1-0.4-1.7,1.2-0.8,1.8c3,2,3.8,5.1,4.9,8.3
					C398.3,519.1,398.5,519.1,398.6,519L398.6,519z"/>
			</g>
		</g>
		<g>
			<g>
				<path class="st5" d="M363.5,542.1c-9.9,1-13.2,10.4-16.4,18.4c-3.6,9.3-10.1,20.3-4.9,30.2c0.6,1.2,2.5,0.9,2.9-0.4
					c1.5-5.7,3.3-11.7,8.2-15.5c-0.8-0.6-1.6-1.3-2.5-1.9c-2.6,7.6-1.7,15.5,2.5,22.3c1,1.6,3.5,0.6,3.1-1.3
					c-1.2-4.5-0.8-8.8,1.3-13c-1-0.1-2-0.3-3-0.4c0.1,0.4,0.1,0.8,0.2,1.3c0.2,1.3,1.9,1.5,2.8,0.7c2.8-2.5,5.5-5.1,7.9-8.1
					c-1-0.4-2-0.8-3-1.3c-1,3.6-2.8,6.6-5,9.6c-0.8,1.1,0.5,2.9,1.9,2.4c11.2-4.1,20.9-10.8,28.6-19.9c-0.9-0.5-1.8-1-2.7-1.6
					c-0.4,1.3-0.9,2.6-1.3,3.9c-0.4,1.1,0.8,2.3,2,2c5.2-1.7,9.7-4.4,13.7-8.1c-0.9-0.5-1.8-1-2.6-1.5c-0.7,2.2-1.4,4.3-2.1,6.5
					c-0.5,1.4,1.2,2.4,2.3,1.8c8.1-4,14.2-12.1,16.2-20.8c-1,0-2,0-3,0c1,5.2,2.2,10.2,4.7,14.8c0.6,1,2.1,1,2.7,0
					c1.2-2.1,2.5-4.3,3.7-6.4c1-1.7-1.7-3.3-2.7-1.6c-1.3,2.1-2.5,4.3-3.8,6.4c0.9,0,1.8,0,2.7,0c-2.3-4.4-3.4-9.2-4.3-14.1
					c-0.3-1.5-2.7-1.4-3,0c-1.8,8-7.4,15.2-14.8,18.9c0.8,0.6,1.5,1.2,2.3,1.8c0.7-2.2,1.4-4.3,2.2-6.5c0.5-1.6-1.6-2.6-2.6-1.5
					c-3.6,3.4-7.6,5.8-12.3,7.3c0.7,0.7,1.3,1.3,2,2c0.4-1.3,0.9-2.6,1.3-3.9c0.5-1.5-1.7-2.8-2.7-1.6c-7.3,8.7-16.5,15.2-27.2,19
					c0.6,0.8,1.2,1.6,1.9,2.4c2.3-3.2,4.2-6.5,5.3-10.3c0.6-1.9-2-2.7-3-1.3c-2.1,2.8-4.7,5.1-7.4,7.5c0.9,0.2,1.9,0.5,2.8,0.7
					c-0.1-0.4-0.1-0.8-0.2-1.3c-0.2-1.4-2.4-1.6-3-0.4c-2.5,5-3.1,10.1-1.7,15.6c1-0.4,2-0.9,3.1-1.3c-3.8-6.1-4.5-13-2.1-19.7
					c0.5-1.3-1.3-2.8-2.5-1.9c-5.7,4.4-7.7,10.8-9.5,17.5c1-0.1,1.9-0.3,2.9-0.4c-4.3-8.1,1.2-17.5,4.1-25.1c3-7.6,5.6-17.7,14.6-20
					C364.8,543.8,364.6,542,363.5,542.1L363.5,542.1z"/>
			</g>
		</g>
		<g>
			<g>
				<path class="st5" d="M376.5,556.7c-4.1-2.5-6.4,3.5-7.9,6.2c-1.6,2.8-3.3,5.6-4.8,8.5c-1.1,2-2.5,3.9-2,6.2
					c0.1,0.5,0.6,0.6,1,0.4c3-1.4,4.3-6,5.7-8.8c1.9-3.8,3.8-10.4,8-12C376.6,557.1,376.7,556.8,376.5,556.7L376.5,556.7z"/>
			</g>
		</g>
		<g>
			<g>
				<path class="st5" d="M397.3,551.1c-2.9-2-5.7,1.1-7.3,3.3c-2.1,2.8-5.9,8.4-4.6,12c0.2,0.5,0.7,0.6,1.2,0.3
					c2.2-1.7,2.8-5.4,4.2-7.8c1.5-2.8,3.1-6.1,6.4-6.7C397.7,552.1,397.7,551.3,397.3,551.1L397.3,551.1z"/>
			</g>
		</g>
		<g>
			<g>
				<path class="st5" d="M419.8,556.3c2,12.9,8,24.8,10.4,37.5c2.4,12.7-5.3,25.1-13,34.7c-9.6,11.9-23.8,6.2-36.3,3
					c-6.2-1.6-14.2-2.3-18.1-8c-2.6-3.9-3.7-8.6-6.6-12.4c-0.9-1.2-3-0.1-2.1,1.2c3.3,4.7,4.1,10.9,8,15.1c4.2,4.4,11.4,5.1,17,6.5
					c11.5,2.8,26.3,8.8,36.4-0.5c4.6-4.2,7.8-10.3,10.9-15.6c3-5.2,5.6-10.9,5.9-17c0.4-7.6-2.6-15.1-4.6-22.2
					c-2.2-7.6-4-15.4-7.2-22.6C420.3,555.5,419.7,555.9,419.8,556.3L419.8,556.3z"/>
			</g>
		</g>
		<g>
			<g>
				<path class="st5" d="M356.7,609.4c-5.1,1-9.4-1.4-10.8-6.6c-0.7-2.7-0.9-6.9,3.6-5.8c2.1,0.6,4.1,2.2,5.6,3.8
					c0.8,0.8,2.4,0,2-1.1c-0.6-1.6-0.8-3.4-1.9-4.8c-0.3-0.5-1.2-0.5-1.4,0.2c-0.4,1.9,0.3,3.5,1,5.3c0.7-0.4,1.3-0.8,2-1.1
					c-2.3-2.4-6.1-5.2-9.7-5c-3.5,0.2-4.3,4-4.1,6.8c0.5,6.6,7.4,14.6,14.4,10.2C358.4,610.6,357.8,609.2,356.7,609.4L356.7,609.4z"
					/>
			</g>
		</g>
		<g>
			<g>
				<path class="st5" d="M347.9,600.6c1.8,0.1,3.3,1.1,4.6,2.3c0.6,0.6,1.6,2,0.3,2.5c-0.6,0.3-2-0.2-2.5-0.6
					c-0.3-0.2-0.7,0-0.6,0.3c0.4,1.7,1.4,3,3.3,2.5c1.6-0.4,2.6-1.9,2.3-3.6c-0.3-1.8-2-3-3.4-3.9c-1.3-0.8-3.1-1.6-4.4-0.3
					C347.4,600.2,347.6,600.6,347.9,600.6L347.9,600.6z"/>
			</g>
		</g>
		<g>
			<g>
				<path class="st5" d="M350.5,604.1c0.7,0.4,1.4,0.7,2.1,1.1c0.5,0.3,1.1,0.9,1.8,0.9c0.1,0,0.3-0.1,0.2-0.2
					c-0.1-0.8-0.9-1.2-1.5-1.6c-0.8-0.4-1.6-0.7-2.5-0.7C350.4,603.6,350.3,604,350.5,604.1L350.5,604.1z"/>
			</g>
		</g>
		<g>
			<g>
				<path class="st5" d="M417.3,535.9c3.3,14.5,8.3,28.6,12.5,42.8c1.7,5.6,2.4,11.9,4.9,17.3c2,4.3,4.4,5.5,9,5
					c-0.2-0.6-0.5-1.2-0.7-1.7c-1.1,1-1.3,2.6-2.4,3.6c-0.7,0.6,0,2.1,1,1.7c1.5-0.6,3-1.2,4.5-1.8c-0.4-0.5-0.8-1-1.2-1.5
					c-1.6,1.8-2.2,4.1-4,5.8c-2.9,2.8-8,5.4-12.2,4.6c-1.6-0.3-2.3,2.1-0.7,2.5c3.9,0.9,7.8-0.6,11.1-2.6c1.8-1.1,3.6-2.6,4.8-4.4
					c0.9-1.3,1.2-3.3,2.3-4.5c0.6-0.6,0-2-0.9-1.6c-1.4,0.5-2.9,1.1-4.3,1.7c0.3,0.6,0.7,1.1,1,1.7c1.1-1,1.3-2.6,2.4-3.5
					c0.6-0.6,0.2-1.8-0.7-1.7c-7.4,0.8-8.6-7.7-10.1-13.2c-1.6-5.6-2.9-11.3-4.5-16.9c-3.1-11.1-6-22.6-10.4-33.4
					C418.3,534.7,417.1,535,417.3,535.9L417.3,535.9z"/>
			</g>
		</g>
		<g>
			<g>
				<path class="st5" d="M388.7,580.8c-2.8-2-6.9-1.3-9.9-0.1c-2.6,1-6.6,3.2-7.1,6.3c-0.1,0.7,0.5,1.2,1.1,0.9c2.6-1.4,4.1-3.9,7-5
					c2.9-1.1,5.7-0.7,8.6-1.1C389,581.6,389.1,581.1,388.7,580.8L388.7,580.8z"/>
			</g>
		</g>
		<g>
			<g>
				<path class="st5" d="M419.6,570.5c-2.8-2-6.9-1.3-9.9-0.1c-2.6,1-6.6,3.2-7.1,6.3c-0.1,0.7,0.5,1.2,1.1,0.9c2.6-1.4,4.1-3.9,7-5
					c2.9-1.1,5.7-0.7,8.6-1.1C419.8,571.4,420,570.8,419.6,570.5L419.6,570.5z"/>
			</g>
		</g>
		<g>
			<g>
				<path class="st5" d="M376.5,592c2.5-0.7,4.8-1.9,7.2-2.6c1.9-0.5,4.7-0.3,6.1-1.8c0.3-0.3,0.2-0.8-0.1-1c-1.9-1.3-5,0.1-7,0.8
					c-2.5,0.9-4.9,1.9-6.7,3.9C375.7,591.6,376,592.1,376.5,592L376.5,592z"/>
			</g>
		</g>
		<g>
			<path class="st5" d="M382.5,589c-0.7,1.2-0.8,2.6-0.5,3.9s0.9,2.5,1.7,3.6c0.5,0.7,1.3,1.5,2.2,1.4c0.8-0.1,1.3-0.8,1.7-1.4
				c0.9-1.6,1-3.6,0.4-5.4c-0.4-1.1-1-2.8-2.2-3"/>
			<g>
				<path class="st5" d="M381.6,588.8c0.3-0.1,0.6-0.2,0.9-0.2C382.2,588.5,381.8,588.6,381.6,588.8c-2.9,3.2,1.5,12.8,5.9,9.5
					c2-1.5,2.5-4.7,1.8-7c-0.4-1.6-1.7-4.3-3.7-3.9c-0.6,0.1-0.6,0.8-0.3,1.2c1.5,1.8,2.9,5.2,1.2,7.4c-1.3,1.7-2.5-1.2-3-2.3
					c-0.6-1.5-0.3-2.7-0.4-4.2C383.2,588.7,382.2,588.2,381.6,588.8L381.6,588.8z"/>
			</g>
		</g>
		<g>
			<g>
				<path class="st5" d="M405.6,583c2.5-0.6,4.9-1.7,7.4-2.4c2-0.5,4.6-0.4,6-1.8c0.3-0.3,0.2-0.8-0.1-1c-2-1.2-4.9,0.1-6.9,0.8
					c-2.4,0.8-4.9,1.8-6.8,3.7C404.9,582.6,405.2,583.1,405.6,583L405.6,583z"/>
			</g>
		</g>
		<g>
			<g>
				<path class="st5" d="M378.3,599.5c2.5,0.8,5.2,0.4,7.8-0.1c2.1-0.4,5.3-0.8,6.4-2.9c0.2-0.4,0-0.9-0.4-1c-2-0.5-4.2,1-6.1,1.6
					c-2.5,0.7-5.1,0.8-7.6,1.5C377.8,598.8,377.9,599.4,378.3,599.5L378.3,599.5z"/>
			</g>
		</g>
		<g>
			<g>
				<path class="st5" d="M408.3,590.3c2.7,0.4,5.2-0.2,7.8-1c1.9-0.6,5-1.1,5.7-3.2c0.1-0.3-0.1-0.7-0.5-0.8
					c-1.9-0.6-4.1,1.2-5.9,1.8c-2.4,0.8-4.8,1.3-7.2,2.3C408,589.6,407.8,590.2,408.3,590.3L408.3,590.3z"/>
			</g>
		</g>
		<g>
			<path class="st5" d="M411.7,580.1c-0.7,1-0.9,2.3-0.7,3.4c0.2,1.1,0.8,2.2,1.6,3.1c0.5,0.6,1.3,1.3,2.2,1.1
				c0.8-0.1,1.3-0.7,1.7-1.3c0.9-1.5,1.1-3.2,0.6-4.7c-0.3-0.9-0.9-2.4-2-2.5"/>
			<g>
				<path class="st5" d="M410.8,579.9c-3.3,3,1.4,11.2,5.6,8.3c1.8-1.3,2.6-3.9,2.1-6c-0.3-1.5-1.7-4.2-3.6-3.7
					c-0.5,0.2-0.7,0.8-0.3,1.2c0.7,0.8,1.2,1.3,1.4,2.3c0.3,1.2,0.3,2.8-0.5,3.8c-1.3,1.6-2.7-1-3.1-2.1c-0.4-1.1,0-2.1,0-3.2
					C412.4,579.7,411.4,579.4,410.8,579.9L410.8,579.9z"/>
			</g>
		</g>
		<g>
			<g>
				<path class="st5" d="M403.4,603.1c0.6,0.4,1.2,0.9,1.7,1.5c0.5,0.5,1.6,1.4,0.5,2c-0.9,0.5-2.1,0.3-2.7,1.2
					c-0.1,0.1,0,0.2,0,0.3c1.1,1,3.8-0.2,4.2-1.5c0.5-1.7-2.3-3.3-3.5-4C403.4,602.4,403.1,602.9,403.4,603.1L403.4,603.1z"/>
			</g>
		</g>
		<g>
			<g>
				<path class="st5" d="M397.7,621c3.5,0.4,7.4-1.5,10.3-3.3c2.3-1.4,6.1-3.7,6.3-6.6c0-0.3-0.3-0.4-0.5-0.4
					c-1.3,0.3-1.7,0.9-2.7,1.8c-1.4,1.3-2.9,2.5-4.5,3.6c-2.8,1.8-6.1,2.7-8.9,4.4C397.4,620.6,397.5,620.9,397.7,621L397.7,621z"/>
			</g>
		</g>
		<g>
			<g>
				<path class="st5" d="M381.7,634c0.6,2.5,1.3,5,1.8,7.6c0.4,2.2,0.1,5.1,1.5,6.9c0.4,0.6,1.4,0.7,1.8,0c1.3-2.2,0.2-5.3-0.5-7.7
					c-0.8-2.6-2.1-5.1-3.9-7.2C382.1,633.3,381.6,633.7,381.7,634L381.7,634z"/>
			</g>
		</g>
		<g>
			<g>
				<path class="st5" d="M383.2,640.7c-1.1,0.6-2,1.7-3,2.6c-1,0.9-2.1,1.8-3.1,2.6c-1.2,0.9,0.4,3,1.6,2.1c1.2-0.8,2.3-1.7,3.3-2.6
					c1-0.9,2.2-1.8,2.8-3.1C385.4,641.3,384.3,640.1,383.2,640.7L383.2,640.7z"/>
			</g>
		</g>
		<g>
			<g>
				<path class="st5" d="M425.6,628.3c0.8,1.3,2.3,1.2,3.6,1.3c1.9,0.1,3.8-0.1,5.7-0.3c1.7-0.2,1.8-2.8,0-2.7
					c-1.8,0.1-3.5,0.2-5.3,0.2c-1.3,0-2.8-0.4-3.8,0.7C425.5,627.7,425.5,628,425.6,628.3L425.6,628.3z"/>
			</g>
		</g>
		<g>
			<g>
				<path class="st5" d="M423.8,621.3c-0.4,2.6,0.4,5.1,1.4,7.5c0.7,2,1.4,4.5,3.5,5.3c0.3,0.1,0.6-0.1,0.7-0.4c0.3-2-1-3.7-1.8-5.5
					c-1-2.4-1.6-5-3.1-7.1C424.3,621,423.9,620.9,423.8,621.3L423.8,621.3z"/>
			</g>
		</g>
		<g>
			<g>
				<path class="st5" d="M369.3,631.3c-3.6,4.4-6.7,10.8-6,16.7c0.6,5.1,4.4,6.7,8.9,7.4c8.1,1.3,14.5,6.3,22.3,8.2
					c6.6,1.6,13.6,1.5,20.1-0.5c6.1-1.9,11.6-5.3,16.1-9.9c5.2-5.4,7.9-12.3,11.7-18.6c3.1-5.1,5.3-10.1,1.7-15.7
					c-2.9-4.5-8.6-7.1-13.9-6.7c-1.2,0.1-1.7,2.1-0.3,2.3c6,1,13.2,3.1,13.4,10.6c0.1,5-4.9,10.3-7.3,14.5
					c-5.6,9.8-12.6,17.8-23.9,20.8c-5.5,1.4-11.3,1.5-16.8,0.2c-4.9-1.2-9.2-3.8-13.8-5.7c-4.3-1.7-10.1-1.4-13.5-4.4
					c-3-2.6-2.2-6-1.1-9.5c0.9-3,2.3-5.9,3.8-8.6C371.3,631.6,370,630.5,369.3,631.3L369.3,631.3z"/>
			</g>
		</g>
		<g>
			<g>
				<path class="st5" d="M377.4,647c2.8,4.8,9.6,7.7,14.8,9c6.5,1.7,13.4,1.7,19.8-0.3c10.6-3.3,22.7-13.5,23.6-25.3
					c0.1-0.7-0.9-0.8-1.2-0.3c-3,4.8-5.1,9.4-9.2,13.5c-4.1,4-9.3,7.2-14.8,8.8c-5.6,1.6-11.6,1.8-17.3,0.5
					c-5.6-1.3-10-4.5-15.2-6.4C377.5,646.4,377.2,646.8,377.4,647L377.4,647z"/>
			</g>
		</g>
	</g>
	<path class="st5" d="M490.5,880.7c2.3-6.5,3.1-16.7-0.5-23.4c0.7-0.3,1.3-0.6,2-0.9c1.2-0.6,0.8-2.2-0.4-2.4
		c-9.3-1.6-18.9,1-27.7,3.9c-8.8,2.9-17.2,6.8-25,11.8c-11.6,7.5-28.8,21-23.6,36.7c0.5,1.4,2.5,0.6,2.4-0.7
		c-1-6.9,5.3-13.2,9.9-17.4c0.3-0.3,0.6-0.6,0.9-0.8c0.1,0.7,0.2,1.5,0.2,2c0.2,2.5,0.1,5.4,1.1,7.8c-2.7,2.4-5.2,4.9-7.8,7.4
		c-0.6,0.6,0.1,1.5,0.8,1c3-2.1,6-4.2,8.9-6.4c0.5,0,1-0.3,1.3-0.7c2.9,2.4,7,3.3,10.5,4.6c1.8,0.7,3.6,1.3,5.3,1.8
		c-9.4,2-19.2,2.6-28.7,3.5c0.3-0.6-0.3-1.4-1-1.1c-1,0.4-2.1,0.9-3.1,1.5c-0.1,0-0.2,0-0.2,0c-0.6,0.1-1,0.4-1.2,0.8
		c-7.2,4.3-13.9,11.5-16.7,19.1c-0.3,0.9,0.9,1.9,1.6,1.1c3.4-3.5,6.2-7.5,9.7-11.1c2.2-2.3,4.6-4.4,6.9-6.5
		c19.5,1.9,40.7,1.1,57.4-10.4C480.9,896.8,487.4,889.4,490.5,880.7z M487.4,868.4c-0.1,3.1-0.7,6.1-1.8,9.1c-4-0.8-7.8-1.3-12-1.5
		c-4-0.1-7.8,0.1-11.7,0.5c8-5.9,16.1-11.6,24.2-17.3C486.7,862.2,487.5,865.2,487.4,868.4z M468.2,864.4c3.3-1.2,6.6-2.1,10-3.1
		c-6.5,4.2-13,8.5-19.4,12.9c0.5-1.6,0.9-3.2,1.2-4.9c0.1-0.6,0.3-1.2,0.4-1.9C463,866.3,465.6,865.3,468.2,864.4z M447,874.1
		c3-1.7,6-3.3,9.1-4.8c-0.4,2.5-0.6,4.8-0.7,7.3c-3.2,2.3-6.4,4.7-9.5,7.1c0.4-2,0.2-4.2,0.1-6.3c0-0.9-0.1-1.8-0.2-2.7
		C446.2,874.6,446.6,874.3,447,874.1z M433.1,889.1c-0.2-1.3-0.2-3.4-0.7-5c3.2-2.6,6.6-5,10-7.2c0,1.1-0.1,2.1-0.1,3
		c0.1,2.1,0.1,4,1,5.8c-3.3,2.6-6.5,5.3-9.6,8C433.5,892.2,433.2,890.6,433.1,889.1z M466.5,898.7c-3.6,2-7.3,3.5-11.1,4.7
		c-3.1-1.7-6.2-3.2-9.7-4.4c-3.1-1-6.6-2.5-10-2.6c3.3-2.5,6.6-5,9.9-7.5c8.3,3.9,16.7,6.4,25.6,7
		C469.6,896.9,468,897.8,466.5,898.7z M474.8,892.9c-9-2.3-18-4-27.1-5.8c2.3-1.8,4.6-3.5,6.9-5.2c1.5-1.1,3-2.2,4.5-3.3
		c8.5,0.4,17,0.7,25.5,1.2c-0.2,0.4-0.3,0.7-0.5,1.1C482,885.5,478.7,889.5,474.8,892.9z"/>
	<g>
		<g>
			<g>
				<path class="st5" d="M1499.1,281.4c2.3-9.5,6.9-19,11.1-27.8c4.3-9,9.7-17.7,13.3-26.9c8.8-22.7-4.5-50.9,13.5-70.5
					c0.9-1-0.3-2.8-1.5-1.9c-22.7,15.4-12.9,46.1-19.5,68.6c-2.9,10.1-8.6,19.7-12.7,29.3c-3.7,8.8-9.4,19.5-7.7,29.3
					C1496,283.1,1498.8,283,1499.1,281.4L1499.1,281.4z"/>
			</g>
		</g>
		<g>
			<g>
				<path class="st5" d="M1537.4,153.2c-3.3-6.2-9.3-10.6-13.4-16.2c-4.4-6.1-7-13-8.3-20.4c-2.6-14.7,3.2-30.1,14.1-40.2
					c11-10.2,30-14.4,42.1-3.7c12.7,11.3,11.5,30.2,3.4,43.7c-5.1,8.5-12.5,15.4-20.6,21.1c-8,5.5-16.4,9.8-23.9,16.1
					c-1.8,1.5,0.1,4.5,2.3,3.9c19.2-5.5,38.4-20,48.2-37.6c8.7-15.5,9.8-36.2-2.2-50.4c-12.1-14.4-33.4-14.4-48.9-5.9
					c-16.5,9-26.7,27.2-27.3,45.8c-0.3,10.6,3,20.9,9,29.6c5.3,7.7,14.1,17.7,24.5,16.3C1537.2,155.1,1537.9,154.2,1537.4,153.2
					L1537.4,153.2z"/>
			</g>
		</g>
		<g>
			<g>
				<path class="st5" d="M1561.7,85.4c3.8,10.1,0.6,19.4-3.2,28.9c-0.8,1.9,1.9,3,3.2,1.9c8.8-8.1,7.4-22,1.5-31.4
					C1562.7,84,1561.4,84.4,1561.7,85.4L1561.7,85.4z"/>
			</g>
		</g>
	</g>
	<g>
		<g>
			<g>
				<path class="st5" d="M704.2,985.7c9.6,10.3,21.1,19,32,28c5.5,4.5,10.9,9.2,16.6,13.4c3,2.3,7.2,3.7,9.9,0.1c3-4,0-9.6-1.4-13.6
					c-2.4-6.8-4.9-13.5-7.3-20.3c-2.3-6.5-4.8-12.8-7.3-19.2c-2.2-5.7-4.1-12.9-8.3-17.5c-0.7-0.7-1.8-0.1-1.8,0.8
					c-0.2,5.1,2.1,10.7,3.6,15.5c1.7,5.3,3.4,10.5,5.1,15.8c3.6,11,7.5,22,11.6,32.9c0.2,0.6,2.2,2.1,0.2,0.3
					c-1-0.9-2.2-1.7-3.3-2.5c-2-1.6-4.1-3.1-6.1-4.6c-4.6-3.5-9.3-7-13.9-10.5c-9.2-6.9-18.5-14.2-28.5-19.8
					C704.4,983.9,703.5,985,704.2,985.7L704.2,985.7z"/>
			</g>
		</g>
		<g>
			<g>
				<path class="st5" d="M706.2,987.8c6.2-0.5,12-2,17.3-5.4c4.6-3,10.7-7.3,12-12.9c0.4-1.8-1.6-3.6-3.3-2.5
					c-4.4,2.7-7.2,7.5-11.5,10.5c-4.6,3.2-9.5,6-14.8,7.8C704.6,985.7,704.7,987.9,706.2,987.8L706.2,987.8z"/>
			</g>
		</g>
		<g>
			<g>
				<path class="st5" d="M706.6,986.1c-13.1-6.8-14.6-25-3.2-34.2c5.5-4.5,12.8-6.1,19.7-4.3c7.5,2,12.6,7.2,16.8,13.5
					c0.4,0.6,1.5,0.2,1.2-0.5c-5.9-15.5-26.6-20.6-39.5-10.6c-12.9,10.2-11.3,30.7,4,37.7C706.8,988,707.6,986.6,706.6,986.1
					L706.6,986.1z"/>
			</g>
		</g>
		<g>
			<g>
				<path class="st5" d="M714.8,984c9.7,11.1,20.7,21.4,31.3,31.7c0.5,0.4,1.3-0.2,0.9-0.7c-8.8-11.9-19.1-23.7-31-32.5
					C715.1,981.8,714.1,983.3,714.8,984L714.8,984z"/>
			</g>
		</g>
		<g>
			<g>
				<path class="st5" d="M722.7,981.5c9.2,9.9,16.9,21.2,25.8,31.4c0.5,0.5,1.2-0.1,0.9-0.7c-6.3-12.2-16.3-22-26.5-30.9
					C722.7,981.1,722.5,981.4,722.7,981.5L722.7,981.5z"/>
			</g>
		</g>
		<g>
			<g>
				<path class="st5" d="M730.5,980.3c9.5,13.1,17.8,27.1,27.5,40c0.4,0.5,1.1,0.1,0.8-0.5c-6.3-14.9-16.5-28.4-26.6-40.8
					C731.4,978,729.8,979.3,730.5,980.3L730.5,980.3z"/>
			</g>
		</g>
		<g>
			<g>
				<path class="st5" d="M719.5,995.5c10.4-1.9,20.6-6.5,26.3-15.7c0.4-0.7-0.5-1.3-1.1-0.8c-7.8,6.5-15.5,12.7-25.5,15.6
					C718.6,994.8,718.9,995.6,719.5,995.5L719.5,995.5z"/>
			</g>
		</g>
		<g>
			<g>
				<path class="st5" d="M731.9,1004.8c7.8,0,14.4-3.5,18.2-10.4c0.4-0.8-0.6-1.5-1.2-0.9c-4.9,4.4-10.8,8.4-17.1,10.6
					C731.4,1004.2,731.4,1004.8,731.9,1004.8L731.9,1004.8z"/>
			</g>
		</g>
		<g>
			<g>
				<path class="st5" d="M700.2,961.3c0.8-1,1.7-2,2.5-3c0.8-1,1.3-2,1.8-3.2c0.3-0.6-0.4-1.2-0.9-0.7c-1,0.8-1.8,1.6-2.5,2.7
					c-0.7,1.1-1.4,2.2-2.1,3.2C698.5,961.1,699.6,962,700.2,961.3L700.2,961.3z"/>
			</g>
		</g>
		<g>
			<g>
				<path class="st5" d="M708.7,957.8c0.5-1.4,1-2.9,1.5-4.3c0.2-0.6-0.8-1.1-1.1-0.5c-0.6,1.4-1.2,2.8-1.8,4.1
					C706.8,958.2,708.3,958.9,708.7,957.8L708.7,957.8z"/>
			</g>
		</g>
		<g>
			<g>
				<path class="st5" d="M714.4,955.1c1.3-1.7,2.3-3.9,1.6-6c-0.2-0.6-0.9-0.5-1.1,0c-0.7,1.7-0.9,3.5-2,5.1
					C712.3,955.2,713.8,956,714.4,955.1L714.4,955.1z"/>
			</g>
		</g>
	</g>
	<g>
		<path class="st5" d="M767.6,146.7c-3.9-4.1-9.8-6.7-14.8-9.4c-5.3-2.9-10.7-5.8-16.1-8.6c-5.4-2.9-10.8-5.6-16.2-8.4
			c-4.9-2.5-10.7-6.7-16.2-7.6c-2.7-0.4-5,1.4-6.4,3.5c-0.9,1.4-3,5.6-0.8,6.7c2.1,1.1,4.1,2.2,6.2,3.3c1.8,1,2.5,0.9,1.6,2.9
			c-1,2.2-2.5,4.3-3.5,6.5c-4.9,10.8-11.2,34.4,2.5,41.8c-4.6-2.5-10.1-1.5-14.7,0.6c-4.9,2.2-9.2,5.4-12.7,9.5
			c-2.5,2.9-4.6,6.2-6.7,9.4c-0.6,0.9-5.6,10-5.6,10l-9.5-5.1c-1-0.5-2.2-0.2-2.8,0.8c-1,1.8-4.1,5.7-2.7,7.7c0.5,0.7,1.2,1.2,2,1.6
			c4.2,2.5,8.6,4.5,12.8,7c4.8,3,9.7,5.9,14.5,8.8c2.8,1.7,5.5,3.5,8.4,5.1c2.7,1.5,5.7,2.5,8.5,3.9c6.2,3.1,11.8,7.8,18.9,8.6
			c2.4,0.3,3-1.7,4-3.5c0.5-0.9,1-1.8,1.5-2.8c0.5-1,0.2-2.2-0.8-2.8c0,0-9.5-5.1-9.5-5.1c0.3,0.2,7-14.4,7.6-15.8
			c2.3-5.7,3.5-11.2,3.1-17.4c-0.4-6.1-2.3-13.2-8-16.3c13.2,7.1,27.9-6.9,35.1-16.6c0.9-1.2,8.3-10.9,6.2-12.1
			c2,1.1,7.7,5.4,9.8,4.2c0.6-0.3,1-0.9,1.4-1.4c0.9-1.1,1.8-2.2,2.6-3.3C768.6,150.7,769.4,148.6,767.6,146.7z M711.8,187.3
			c0.6,1,1.1,2.1,1.6,3.2c2.3,5.8,2.6,12.2,1.3,18.3c-1.3,6.3-4.8,11.9-8.1,17.4c-3.1-3-7-5.1-10.9-7.2c-2.1-1.1-24.8-14-25.6-12.6
			c1.5-2.7,3.1-5.4,4.8-8c0.7-1.2,1.4-2.3,2.1-3.5c0.2-0.4,1.2-1.4,1.2-1.9c3.3-4.6,7.6-8.9,12.8-11.3c2.5-1.2,5.3-1.8,8.1-1.6
			c2.5,0.2,4.8,1.2,7,2.4c1.6,0.9,3.1,1.5,4.4,2.9C711,186.1,711.4,186.7,711.8,187.3z"/>
		<path class="st5" d="M698.1,197.9c-0.3-0.1-0.6-0.2-0.8-0.3c-0.2-0.1-0.5-0.1-0.7-0.1c-1.4,0-2.8,1.3-2.7,2.7
			c0.1,1.5,1.2,2.7,2.7,2.7c0.7,0,1.4-0.3,2-0.8c0.3-0.2,0.5-0.5,0.7-0.8C699.8,200.1,699.4,198.5,698.1,197.9z"/>
		<path class="st5" d="M701.8,191c-1.2-0.7-2.8-0.2-3.5,1c-0.7,1.2-0.2,2.8,1,3.5c0.1,0,0.1,0.1,0.2,0.1c0.3,0.2,0.7,0.4,1.2,0.4
			c0.7,0,1.4-0.4,1.8-1c0.1-0.1,0.2-0.3,0.3-0.5C703.5,193.2,703.1,191.6,701.8,191z"/>
		<path class="st5" d="M705.5,184.1c-0.9-0.5-1.9-0.4-2.7,0.1c-0.7,0.4-1.2,1.1-1.2,2c0,0.2,0.1,0.4,0.1,0.6
			c0.1,0.8,0.6,1.4,1.3,1.8c1.2,0.7,2.8,0.2,3.5-1C707.2,186.3,706.8,184.7,705.5,184.1z"/>
	</g>
	<path class="st5" d="M150.6,526.2c-7.5-1.4-11.2,5-12.5,11.4c-1.2,6.2-2.3,12.4-3.4,18.6c-4.7-3.1-9.3-6.4-15.1-7.1
		c-7-0.8-13.5,2.7-15.3,9.7c-0.8,3-0.9,6.3-0.8,9.7c-0.9,0.2-1.6,1.1-1.4,2.2c0.5,2.8,1.3,5.9,2.3,8.8c0,0.3,0,0.5,0.1,0.8
		c0,0.6,0.4,1.1,0.8,1.4c1.4,3.1,3.2,5.9,5.7,8.1c4.6,4,11.9,5.7,17.6,3.1c7-3.2,8.4-11.1,9.6-17.9c0.5-2.9,1.1-5.9,1.6-8.8
		c3,1.5,6.2,2.7,9.7,3.5c3.2,0.7,7.3,1.7,10.5,0.7c3.4-1,4.9-4.1,5.8-7.3C169.4,550,167,529.2,150.6,526.2z M132.9,566.1
		c-0.8,4.7-1.4,9.5-2.7,14.1c-1.2,4.1-3.8,6.7-8.3,6.4c-6-0.5-9.8-5.2-12.8-10.3c0.5-4.5-0.4-9.1,0.2-13.7
		c1.3-9.8,10.9-8.4,17.4-4.3c2.3,1.5,4.6,2.9,6.9,4.3C133.3,563.7,133.1,564.9,132.9,566.1z M160.2,557.3c-0.3,1.6-0.5,4.1-1.4,5.4
		c-1.3,1.9-3.7,1.2-5.8,0.9c-4.2-0.7-8.3-2-12.2-3.8c0.7-4.1,1.5-8.2,2.2-12.2c0.7-3.8,1-7.9,2.3-11.5c1.7-4.7,5.7-3.4,9-0.7
		C160.8,540.6,161.7,549.7,160.2,557.3z"/>
	<path class="st5" d="M1283,425.1c-4.7-1.2-9.9-1.1-14.7-1.5c-5.2-0.5-10.4-1.2-15.6-2c-9.2-1.4-19-4.8-28.3-3.6
		c-1.9,0.3-2.8,2.7-2.4,4.3c1.2,4.6,4.3,8,7.8,11c2.5,2.1,5.6,4.2,7.7,6.8c-8.6,3-17.6,7.3-23.6,13.9c-0.8,0.8-0.9,1.8-0.7,2.7
		c-0.2,0.3-0.3,0.6-0.5,0.8c-0.3,0.3-0.6,0.5-0.8,0.9c-0.1,0.2-0.1,0.4-0.1,0.5c-3.2,5.3-6.4,10.6-9.5,15.9
		c-1.8,3.1-3.6,6.2-5.5,9.3c-1.8,3.1-4,6-4.7,9.6c-0.3,1.5,1.3,2.3,2.4,1.4c2.8-2.2,4.5-5.5,6.4-8.6c1.9-3,3.9-6.1,5.8-9.1
		c2.3-3.7,4.7-7.4,7-11.1c0.9,6.6,2.9,13.1,5.7,19.2c4,8.5,10.2,16.9,18.5,21.6c2.1,1.2,3.9-1.5,2.4-3.2
		c-5.7-6.7-11.3-13.4-15.2-21.4c-3.5-7.1-5.4-14.9-6.1-22.7c0,0,0.1,0,0.1,0c2.6,0.5,5.3,1.6,7.7,2.8c4.9,2.5,9.8,5.2,14.7,7.8
		c5.1,2.7,10.2,5.3,15.3,7.8c3.3,1.6,9.5,6.2,13.2,3.9c0.3-0.2,0.6-0.6,0.6-1c-0.2-2.4-1.9-3.5-4-4.7c-3-1.7-6.1-3.2-9.2-4.7
		c-5.8-2.9-11.6-5.7-17.4-8.4c-5.1-2.4-10.3-5.3-15.8-6.8c-0.9-0.2-1.8-0.4-2.9-0.6c2.8-1.7,5.5-3.5,8.4-5c4.4-2.3,9-4.1,13.7-5.5
		c1.7-0.5,3.2-2.5,2.5-4.3c-1.8-4.6-5-7.8-8.7-10.8c-2.2-1.8-4.7-3.6-6.5-5.8c3.2,0.3,6.4,1.2,9.5,1.7c4.6,0.8,9.2,1.6,13.8,2.3
		c4.5,0.6,8.9,1.2,13.4,1.7c4.7,0.5,9.9,1.4,14.6,0.8C1285.4,430.8,1286.7,426.1,1283,425.1z"/>
	<path class="st5" d="M599.5,419.8c-0.1-0.6-0.4-1.1-0.7-1.4c0-0.3-0.1-0.6-0.2-0.9c-1.2-3.3-5.7-5.9-8.9-6.9
		c-8.4-2.7-17.8,1-23.4,7.4c-3.2,3.5-5.4,7.7-7.1,12.1c-1.5,4-4,10.2-1.5,14.3c2.4,3.8,8,4.7,12.1,5c4.9,0.4,10-0.7,14.4-2.8
		c5.3-2.5,9.4-6.8,12.1-11.9c2.9,11.1,5.6,22.8,0.1,32.7c-5.5,10-20.6,19.7-31.6,12.7c-1.7-1.1-4.1,1.1-2.9,2.9
		c4.7,6.7,12.9,8.8,20.8,7.3c8.3-1.7,15.4-7.3,19.9-14.3C613.9,457.9,602.7,438.1,599.5,419.8z M582.7,439.5
		c-3.4,1.9-7.4,2.8-11.3,2.7c-1.8-0.1-4-0.3-5.7-1c-2.4-1.1-1.3-3.2-0.7-5.4c2-7,5.8-14.2,12.6-17.5c2.9-1.4,6.1-2,9.4-1.6
		c1.5,0.2,3.2,0.4,4.6,1.1c0.7,0.3,1.3,0.8,2,1.2c-0.3,0.5-0.5,1.1-0.5,1.7C593.2,428.3,589.5,435.6,582.7,439.5z"/>
	<path class="st5" d="M1529.8,442.3c-10.5,5.1-21.9,9.9-33.4,12.2c-5.4,1-11.6,1.8-16.9-0.3c-4.5-1.8-7.3-5.8-8.6-10.4
		c-0.1-0.5-0.2-0.9-0.3-1.4c7.2,5.5,19.7-0.1,24.6-7c6.8-9.4,6.7-25.8-5.2-31.2c-6-2.8-11.9,0.2-15.7,5.1
		c-4.6,5.9-8.4,13.6-10.2,20.8c-3.4,13.1,1.5,29.4,16.4,32.1c18.2,3.3,35.8-9,50.6-17.7C1532.5,443.6,1531.3,441.6,1529.8,442.3z
		 M1479.6,413.2c3.4-4.7,8.4-5,12-0.3c2.7,3.6,3.1,8.4,2,12.7c-1.2,4.7-4.3,9.1-8.7,11.5c-4.1,2.3-11.1,2.9-13.9-1.8
		c-0.2-0.3-0.4-0.6-0.6-0.7C1471.4,426.9,1475.4,419.1,1479.6,413.2z"/>
	<path class="st5" d="M1070.7,916.6c-1.4-5.6-6.1-8.5-10.9-10.8c-6.3-3-12.7-6.1-19-9.1c-4.4-2.1-11-4.7-10.7-10.6
		c0.3-5.8,5.8-10.9,10.4-13.8c5.7-3.6,10.7-3.6,17.1-2.2c1.6,0.3,2.7-1.2,2-2.6c-4.5-9.3-18.7-4.7-25.2-0.5
		c-8.4,5.5-16.1,16.6-11.1,26.7c2.3,4.7,6.9,7.6,11.4,9.9c5.9,3,12,5.9,17.9,8.9c3.6,1.8,11.1,4.1,8.4,9.5c-2.1,4.3-8.2,6-12.7,6.3
		c-9.5,0.7-20.1-2.8-25-11.4c-0.9-1.6-3.6-1-3.5,0.9c1.4,21.7,31.9,27.5,46,14.1C1070,928.1,1072.1,922.2,1070.7,916.6z"/>
	<path class="st5" d="M1625.5,632.4c-6.9-3.6-13.4-6.7-19-12.1c-1.3-1.2-2.4-2.5-3.5-3.8c-1.4-6.3-4.6-12.3-8.8-17.4
		c-2.3-2.8-6.5,0.2-5.8,3.3c1.4,6.5,4.2,12.5,8.2,17.8c0.4,3.6,0,7.2-1.4,10.6c-3.2,7.9-11.8,14-20.4,11.3c-3.8-1.2-7.2-3.9-8.9-7.6
		c-2-4.4-0.5-9.3,1.2-13.5c1.6-4.2,3.6-8.8,7-11.8c2.9-2.6,9.1-3.6,11.5,0.3c0.8,1.3,2.7,0.5,2.4-1c-2-9.7-14.1-9-19.9-3.2
		c-3.7,3.6-5.9,8.6-8,13.3c-2.2,5.1-3.6,10.5-2.3,16c2.4,9.4,12.2,16.4,21.8,16c10.1-0.4,18.5-7.7,22.2-16.8
		c0.8-2.1,1.4-4.1,1.7-6.2c5.8,4.9,13.5,8.9,21.1,8.6C1626.3,635.9,1627.3,633.3,1625.5,632.4z"/>
	<path class="st5" d="M1024.9,291.8c-4.8,5.7-12.5,2.9-17-1.8c-3.8-4.1-5.9-11.5-12.2-12.4c-6.7-0.9-7.9,4.9-7.7,10.2
		c0.1,3.3,0.3,6.6,0.7,9.9c-0.3-0.6-0.6-1.1-0.9-1.7c-1.9-3.6-3.5-9.2-6.9-11.6c-0.6-0.4-1.6,0-1.7,0.7c-0.6,4.1,2.6,9.1,4.3,12.7
		c2.2,4.6,4.7,9,7.4,13.4c-4.4,10.9-21.3,13.2-27.4,2.6c-0.4-0.7-0.7-1.4-1-2.2c5.7-0.3,10-6.6,9-12.7c-0.6-3.3-2.7-9.1-6.2-10.4
		c-3.7-1.4-6.6,2.9-8.2,5.6c-5.9,10.1-2.3,24.6,6.7,30.9c-5.8-3-13.3-4.2-19-5.2c-4-0.7-8-1.3-12.1-1.7c11.6-9.1,17-26,7.7-39.3
		c-6-8.5-16.9-8-25-3c-1.7,1.1-3.5,2.6-4.9,4.3c-0.2-0.4-0.5-0.9-0.7-1.3c-0.8-1.3-2.9-0.8-2.8,0.8c0,1.9,0.3,3.8,0.6,5.6
		c-1.2,3.3-1,6.8,1.9,9.7c0.1,0.1,0.2,0.2,0.4,0.3c0.1,0.5,0.3,1,0.4,1.6c1.4,5.7,2.9,11.5,4.6,17.1c0.4,1.5,0.9,3,1.3,4.5
		c-2.2,1.7-1.7,5.8,1.8,6c0.6,2.2,1.3,4.3,1.9,6.5c1.5,4.9,2.8,11.6,6.7,15.2c1,0.9,2.6,0.6,2.9-0.8c1.4-5.2-1.1-11.4-2.6-16.4
		c-0.4-1.4-0.8-2.8-1.2-4.2c6,0.4,12,1,17.9,2.1c3.9,0.8,7.8,1.6,11.7,2.6c3.9,1,8.3,2.5,12.3,2.1c1.4-0.1,2.3-1.8,1.2-2.9
		c-0.8-0.9-1.8-1.7-2.9-2.4c3.3,1.7,7.2,2.3,11.6,1.5c7.6-1.5,14.4-6.7,15.3-14.5c1.7,0.6,3.9-0.9,3.4-3.1
		c-1.5-7.3-2.5-14.7-2.7-22.2c0-0.9-0.5-3.9,0.3-4.6c1.5-1.1,3.6,1.6,4.3,2.5c1.7,2.5,3.2,5.1,5.2,7.4c3.3,3.8,8,7.1,13.2,6.6
		c4.3-0.4,8.6-2.7,10.1-7C1026.9,291.9,1025.5,291,1024.9,291.8z M961.4,307.8c-0.6-3.6-0.1-7.3,1.2-10.8c0.3-0.7,0.5-1.5,0.9-2.2
		c0.1-0.3,0.3-0.5,0.5-0.8c0.2-0.5,0.3-0.5,0.3,0c1.6,0.3,2.8,4.3,3,5.6C968,303.2,965.4,308.2,961.4,307.8z M923.1,316.5
		c-0.5-1.5-0.9-3.1-1.4-4.6c-1.7-5.7-3.6-11.3-5.5-16.9c-1.2-3.5-2.3-7.1-3.7-10.5c2.3-2.9,6-5.2,8.7-6.2c7.8-2.8,14.4,0.4,16.9,8.3
		C942.2,299.2,935.1,312.6,923.1,316.5z"/>
</g>
</svg>
