<?xml version="1.0" encoding="utf-8"?>
<!-- Generator: Adobe Illustrator 21.1.0, SVG Export Plug-In . SVG Version: 6.00 Build 0)  -->
<svg version="1.1" xmlns="http://www.w3.org/2000/svg" xmlns:xlink="http://www.w3.org/1999/xlink" x="0px" y="0px"
	 viewBox="0 0 1280 1280" style="enable-background:new 0 0 1280 1280;" xml:space="preserve">
<style type="text/css">
	.st0{display:none;}
	.st1{display:inline;fill:#443703;}
	.st2{opacity:0.85;fill:#EABA21;}
	.st3{fill:#443703;}
	.st4{display:inline;opacity:0.85;fill:#EABA21;}
	.st5{display:inline;}
</style>
<g id="Layer_2" class="st0">
	<g>
		<path class="st1" d="M318.6,191c-5.7-6.4-18.6-4.5-26.4-4.5c-6.4,0-12.8,0-19.2,0c-0.1-9.7-0.3-19.4-0.7-29.1c-0.3-6-0.6-12-1-18
			c-0.2-3.3-0.4-6.7-0.6-10c-0.2-3.2-1.2-6.2-1.8-9.3c-0.8-4.8-8.9-4.8-9.7,0c-0.5,3.2-1.5,6.1-1.7,9.3c-0.2,3-0.4,6-0.5,9
			c-0.4,6.3-0.7,12.6-0.9,19c-0.5,12.6-0.5,25.3-0.6,37.9c-0.1,4.8,4.1,8.8,8.9,8.9c9.3,0.1,18.6,0.1,27.9,0.2
			c7.9,0,20.6,2,26.4-4.3C321,197.4,321,193.7,318.6,191z"/>
		<path class="st1" d="M461.1,123.8c-2-0.8-4.8,0.9-5.2,2.9c-0.5,2.8-4.4,6.1-6.1,8.3c-2.2,2.9-4.3,5.9-6.4,9
			c-2.6,3.8-5.1,7.6-7.5,11.4c-0.2-0.1-0.5-0.3-0.7-0.4c-4-2.4-7.9-4.9-11.7-7.6c-3.5-2.6-6.9-5.4-10.3-8.1
			c-1.9-1.6-3.8-3.2-5.8-4.7c-0.9-0.7-1.7-1.3-2.6-1.9c-2.3-1.7-1-1.8-2.2,0.8c1.2-2.5-0.1-6.6-3.6-6.2c-5.5,0.5-7.6,5.9-4.9,10.6
			c3.2,5.5,9.1,10.7,13.7,14.9c4.9,4.5,10.1,8.7,15.7,12.3c1.4,0.9,2.9,1.8,4.5,2.7c-2.9,4.7-5.6,9.5-8.4,14.3
			c-3.3,5.8-9.4,13.8-7.3,20.8c0.8,2.8,3.5,4.1,6.3,3.6c8-1.5,13.2-13.3,17.3-19.4c4.7-7.3,9.3-14.6,13.7-22
			c4.4-7.4,8.7-15,12.5-22.7C465,136.4,469.6,127.1,461.1,123.8z"/>
		<path class="st1" d="M544.4,185.9c-0.1-6.2-0.1-12.3-0.2-18.5c-0.1-12-0.2-24-0.3-36.1c-0.1-6.4-8.9-11-13.5-5.6
			c-8.3,9.8-16.8,19.4-25.3,29c-4.7-8.6-9-17.4-12.9-26.4c-2.9-6.6-13.3-4.4-14.9,1.9c-2.9,11.5-5,23.4-5.4,35.3
			c-0.2,5.6,0,11.2,0.4,16.8c0.4,5.7,0.7,12.2,4.5,16.7c2.2,2.5,6.5,1.7,8.1-1c2.4-4.2,1.9-9.9,1.9-14.7c0-5.6,0.3-11.2,0.9-16.8
			c0.3-2.7,0.6-5.3,0.9-7.9c2.6,4.9,5.2,9.7,8.1,14.4c2.5,4.2,9.4,5.8,12.9,1.7c6.2-7.2,12.3-14.6,18.5-21.9c0,4.9,0,9.7,0,14.6
			c0,5.8,0,11.7-0.1,17.5c0,6.2-0.9,12.7,1.9,18.3c2.4,4.8,10.2,4.8,12.6,0C545.2,197.8,544.4,191.8,544.4,185.9z"/>
		<path class="st1" d="M699.7,129.9c-0.5-6.7-10.5-7-12.7-1c-5.8,16.1-4.1,34-8.3,50.5c-8.1-16-16.8-31.8-26.3-47.2
			c-2.8-4.6-12.6-3.4-13.3,2.1c-1.4,12-2.3,24-2.1,36c0.2,11.5,0.5,24.3,4.4,35.3c1.8,5,9,3,9.5-1.6c1.1-11-0.1-22.3,0.1-33.4
			c0.1-3.9,0.2-7.8,0.4-11.8c7.4,13.3,14.3,26.8,20.7,40.6c2.4,5.1,10.5,6.3,13.8,1c6.2-10.2,8.1-21.5,9.8-32.9
			C697.5,155.3,700.6,142.4,699.7,129.9z"/>
		<path class="st1" d="M831.4,161.7c-11.3-1.7-22.1-2.4-32.7,2.1c-6.2,2.7-2.4,10.6,3.2,11c6.5,0.5,13,0,19.5-0.1
			c-1.4,8-4.2,16.4-12.6,19.3c-10.6,3.7-16.4-10.5-18.2-17.9c-2.3-9.5-0.6-20,4.7-28.4c2.5-3.9,6.2-7.9,11.3-8.5
			c6.4-0.8,11.6,3.1,16.8,5.8c3.5,1.8,7.6-1.9,5.5-5.2c-4.2-6.6-13.3-12-21.6-12.3c-8-0.3-15.1,4.3-20,9.9
			c-10.3,12-13.3,28.7-9.4,43.4c3.7,14.1,15.3,30,33,25.9c19.1-4.4,23.5-23.1,25.7-38.8C837,165.6,834.2,162.1,831.4,161.7z"/>
		<path class="st1" d="M388.3,182.6c-2.4-5.6-4.7-11.3-7.1-16.9c-4.7-11.4-9.2-22.8-13.6-34.3c-2.2-5.7-10.9-8.4-14.3-1.9
			c-5.3,10.3-9.8,21.2-13.9,32.1c-0.9,2.5-1.9,5.1-2.9,7.7c-1.7,1.3-2.3,3.5-1.8,5.4c-2.1,6.7-3.7,13.6-3.3,20.2
			c0.1,1.4,0.7,3.1,2.1,3.7c1.2,0.6,2.2,1.1,3.5,0.4c2.2-1.1,2.4-2.5,3.2-4.7c1-3,2.4-5.7,3.6-8.6c0.9-2.1,1.8-4.2,2.7-6.3
			c6.8,0.5,13.6,0.7,20.4,0.6c0.8,0,1.9,0,3.2-0.1c1.2,2.9,2.4,5.9,3.6,8.8c2.6,6.2,4.3,12.7,10.9,15.4c3.3,1.4,6.5-1.5,7.6-4.3
			C394.5,194.2,390.5,187.7,388.3,182.6z M352,167.2c2.3-5,4.6-9.9,7-14.7c1.9,4.8,3.8,9.6,5.8,14.5
			C360.6,166.9,356.3,167,352,167.2z"/>
		<path class="st1" d="M615.5,148.8c-4.9-7.5-12-13.3-19.8-15.9c-0.6-0.4-1.2-0.7-2.1-0.8c-0.2,0-0.5,0-0.7,0
			c-7.5-1.7-15.4-0.4-22.6,5.2c-0.8,0.6-0.8,1.5-0.4,2.3c-4.3,3.5-7.8,8.2-10.1,14c-5.6,13.9-0.7,31,10.6,40.7
			c12.6,10.8,31.6,12.9,43.4-0.3C625.2,181.4,624.5,162.7,615.5,148.8z M592.1,187.3c-10.8-1.7-19.3-12-19.2-22.9
			c0.1-8.7,6.5-17.6,14.5-22.2c8.8,3.4,16.3,10.9,19.5,19.4C611,172.5,606.8,189.6,592.1,187.3z"/>
		<path class="st1" d="M760.3,186.1c-2-5.4-3.8-10.9-5.3-16.4c-3-10.9-4.8-21.8-5.3-33.1c-0.4-7.2-9.5-9.8-13.5-3.7
			c-6.4,9.9-12.2,20-17.5,30.4c-2.5,5-5,10-7.2,15.1c-2.1,4.9-4.8,10.6-5.1,16c-0.1,1.4,0.9,3.2,2.2,3.8c1.3,0.6,2.7,1.2,4.1,0.3
			c3.9-2.7,6-8.4,8.4-12.4c1.2-2,2.4-4.1,3.5-6.1c5.3,0.7,14.1,1.9,20.2,0.7c0.9,2.7,1.9,5.4,2.9,8c2.2,5.5,4.5,11.8,8.9,15.9
			c2.9,2.6,8.5,1,8.2-3.4C764.3,195.9,762.1,191,760.3,186.1z M731.2,168.1c2.3-3.9,4.6-7.8,7-11.7c0.8,3.8,1.6,7.6,2.6,11.4
			C737.7,167.6,734.3,167.8,731.2,168.1z"/>
		<path class="st1" d="M906.6,133c-6.8-4.2-16.1-4.1-23.9-4.4c-8-0.3-16.7-0.2-24.3,2.5c-1.3,0.5-2.2,1.5-2.7,2.6
			c-1.3,0.4-2.4,1.5-2.6,3.3c-1.4,10.8-1.3,21.7-1.5,32.5c-0.1,5.3-0.2,10.5-0.2,15.8c-0.1,5-0.7,10.5-0.1,15.5
			c0.5,3.8,2.9,5.9,6.7,6.1c5,0.3,10.4-0.6,15.5-0.9c10.3-0.6,20.8-0.7,30.1-5.5c1.8-0.9,1.1-3.4-0.5-4c-7.1-2.5-14.4-2.5-21.9-2
			c-3.9,0.3-7.7,0.6-11.6,0.8c-2.3,0.2-5.1,0.7-7.7,0.9c0-0.7,0-1.4,0-2.1c0-2.6-0.1-5.3-0.1-7.9c-0.1-5.3-0.1-10.7-0.2-16
			c5.6,0.1,11.2-0.1,16.8-0.1c6.9,0.1,14.2,1.3,21.1-0.3c2.2-0.5,2.4-3.5,0.6-4.6c-6.3-4-14.4-4.5-21.7-5
			c-5.4-0.4-11.3-0.4-16.9,0.3c-0.1-6.9-0.2-13.8-0.9-20.6c6.9,1.3,14.2,1.4,21.2,2c7.7,0.6,15.8,3,23.5,1.5
			C910.2,142.4,910.5,135.4,906.6,133z"/>
	</g>
	<path class="st2" d="M911.7,384.8c-17.1-5.7-32.4,5.2-42.9,14.6c-51,45.7-38.9,132.5-80.6,184.7c-9.1,11.5-20.7,23.9-35.6,28.2
		c-7.4,2.1-0.2,14.3,7.1,12.2c7.7-2.2,15.1-3.9,22.1-7.7c6.8-3.7,13.2-8.2,18.3-14c10.5-11.9,18.4-26,24.4-41.1
		c12.5-31,17.4-65.5,28.4-97.2c5.2-15,12-29.9,22-41.6c4.9-5.7,10.5-11,16.9-15.1c4.3-2.7,10.6-6.8,16.7-5.3c12.1,3,6,23.5,4.2,29.5
		c-5.2,16.8-9.6,33.5-10.8,51.9c-1.1,17.6-0.1,35.6-0.6,53.3c-0.5,16.4-2.2,32.4-4.9,48.1c-5.3,31.7-14.6,61.8-27.3,89.8
		c-27.7,60.7-70.9,110.3-123.2,148.8c-27,19.9-56.6,36.8-87.7,50.7c-27.5,12.3-57.5,21.7-90.9,18c-28.4-3.1-57.7-12.7-85.4-10.6
		c-15.1,1.1-27.7,6.7-38.8,15.2c-10.2,7.8-21.7,20.3-38,14.1c-15.2-5.8-8.7-20.9-4.7-29.5c6.9-15.1,14-30.1,19.4-46
		c10.9-32.1,9-67.5,7.5-103.4c-2.6-65.3,4.5-130.6,29.8-185.5c12.4-26.9,29.2-51,51-70.1c24.5-21.5,55-35.1,86.6-45.9
		c31.8-10.8,64.8-20.2,98.9-25.7c32-5.2,65.6-2.8,98.4-5.2c15.4-1.1,30-3.8,43.4-9.8c5.5-2.4,0.1-11-5.5-9.5
		c-31,8.8-66.2,3.8-99.6,3.9c-37.1,0.2-71.8,7.9-105.8,17.1c-34.6,9.3-68.9,19.9-99,37.5c-27.8,16.3-50.8,38.4-68.4,65.5
		c-34.3,52.6-47.3,119.8-48.8,187.7c-0.8,35.4,5,72.8,0.2,107.1c-2.5,17.5-8.3,33.5-15,49c-6,13.8-15.5,27.8-16.4,44.1
		c-0.9,17.6,12.6,32.9,30,37.3c18.5,4.6,32.1-4,44.3-13.7c11.2-8.9,22.1-15.2,37.7-16.1c14-0.8,28.8,2,43.3,4.7
		c14.9,2.8,29.9,5.9,44.6,6.8c17.6,1,34.4-0.9,50.5-5.1c34-8.7,65.2-24.4,94.3-41.7c60.2-35.7,111.9-83.9,147.6-144.9
		c32.4-55.4,51-120.8,51.3-191c0.1-18.8-1-37.9,2-55.9c1.5-9.1,3.9-17.9,6.5-26.5c2.2-7.2,4.6-14.2,5.2-22.1
		C935.3,409.4,929.5,390.8,911.7,384.8z"/>
	<path class="st3" d="M1193.3,588.8c-8.2,10.2-15,21.4-27,27.7c-11.7,6.1-22.5,2.6-29.7-7.6c13.6-1.2,26.1-17.7,23.1-31.3
		c-3.6-16.1-24.2-16.9-34-6.3c-11.5,12.4-7.6,31.7,1.2,44.5c9,13,23.7,20.1,39.1,14.6c16.1-5.7,32.2-22.9,30.4-40.9
		C1196.3,587.6,1194.1,587.8,1193.3,588.8z M1140.2,572.8c8.5-1.9,13.1,5.7,10.3,13.1c-2.5,6.5-7.6,14.1-14.9,15.2
		c-1.2,0.2-2,0.9-2.5,1.8c-2-4.2-3.3-8.8-3.4-13.3C1129.7,582.9,1132.9,574.4,1140.2,572.8z"/>
	<path class="st2" d="M906.9,473.2c1.5-9.1,3.9-17.9,6.5-26.5c2.2-7.2,4.6-14.2,5.2-22.1c1.2-15.2-4.6-33.8-22.5-39.7
		c-17.1-5.7-32.4,5.2-42.9,14.6c-51,45.7-38.9,132.5-80.6,184.7c-9.1,11.5-20.7,23.9-35.6,28.2c-7.4,2.1-0.2,14.3,7.1,12.2
		c7.7-2.2,15.1-3.9,22.1-7.7c6.8-3.7,13.2-8.2,18.3-14c10.5-11.9,18.4-26,24.4-41.1c12.5-31,17.4-65.5,28.4-97.2
		c5.2-15,12-29.9,22-41.6c4.9-5.7,10.5-11,16.9-15.1c4.3-2.7,10.6-6.8,16.7-5.3c12.1,3,6,23.5,4.2,29.5
		c-5.2,16.8-9.6,33.5-10.8,51.9c-1.1,17.6-0.1,35.6-0.6,53.3c-0.5,16.4-2.2,32.4-4.9,48.1c-2.2,13-5.1,25.8-8.6,38.3
		c6,2.9,12.7,4.2,19.6,4.3c8.4-31.4,12.9-64.6,13.1-98.9C905,510.4,903.9,491.2,906.9,473.2z"/>
	<path d="M1033.7,594.6c-3.6-111.7-37.8-223.9-99.4-317.4c-7.7-11.6-18.2-27.2-33.9-18.4c-7.8,4.4-15,10.1-22.4,15.1
		c-7.1,4.8-14.3,9.5-21.4,14.2c-14.9,9.7-29.8,19.4-44.7,29.2c-15.1,10-30.6,19.8-44.6,31.3c-3.7,3,1,8.1,4.8,6.2
		c14.1-7.1,27.3-15.9,40.8-24.2c12.9-8,25.6-16.3,38.3-24.5c12.8-8.2,25.5-16.3,38.4-24.3c2.8-1.7,5.6-3.5,8.4-5.2
		c2.8-1.8,6.3-4.8,9.5-5.7c2.5-0.7,3,0,4.4,2.2c1.8,2.7,3.3,5.6,5,8.3c28.6,45.8,52.7,93.4,69.6,144.9
		c33.8,103.1,38.8,213.4,16,319.4c-6.5,30.1-15.2,59.6-26,88.4c-10.8,28.9-22.2,57.5-36.7,84.7c-2.5,4.7,4.4,8.7,7.2,4.2
		c15.2-24.6,29.4-49.8,40.8-76.5c11.2-26.2,20-53.4,27.1-80.9C1029.3,709.9,1035.6,652.2,1033.7,594.6z"/>
	<path class="st2" d="M891.3,466.8c-1.5-9.4-3.6-18.7-6.1-27.9c-2.3-8.3-4.6-19.8-13.8-23c-2.2-0.8-4.7,0.5-5.9,2.4
		c-4.6,7.6,0.3,17.6,2.4,25.4c2.4,8.6,4.4,17.3,5.9,26.1c3,17.1,4,34.5,3.5,51.8c-0.5,17.4-2.9,34.6-6.7,51.6
		c-1.9,8.7-4.6,17.2-6.8,25.9c-0.8,3.1-1.7,5.8-3.1,8.7c-1.1,2.3-2.2,4.4-0.3,6.8c5.3,6.6,14-2,16.7-6.6c4.6-8.1,7-17.7,9.4-26.7
		c5-18.5,7.6-37.8,8.4-57C895.8,505.1,894.4,485.8,891.3,466.8z"/>
	<path class="st2" d="M908.7,360.5c-18.8-13.9-43.1-2.1-58.1,11.5c-4.4,4,1.2,9.7,5.9,7.6c12.4-5.6,33.3-19.1,45.5-5.7
		c5.2,5.7,5.4,14.3,4.9,21.6c-0.6,9.2-3.2,18.3-6.3,26.9c-6.2,17.4-15.1,33.6-21.4,51c-6.6,18.1-10.3,37.3-11.2,56.5
		c-1.1,21.8,2.1,43.4,12.2,62.9c1.3,2.6,5.9,1.5,5.6-1.5c-1.8-20.6-3.9-41.6-2.8-62.3c1.1-20.8,6-41.2,14.1-60.5
		c7.7-18.5,17.4-36.3,22-56C923.1,395.3,924.7,372.3,908.7,360.5z"/>
	<path class="st4" d="M918.3,476.6c-3.3-14-8.7-27.2-13.4-40.7c-4.8-13.6-9.4-28.6-5.6-43c3.5-13.4,12.5-24.7,13.3-38.9
		c0.7-12.1-4.5-25.2-16.2-30.1c-15.7-6.5-31.3,4.7-41.5,15.7c-5.3,5.8-10.2,12.5-13.3,19.7c-1.4,3.4-3.6,7.3-3.1,11
		c0.3,2.1,2.2,5.4,4.7,5.4c6.2-0.2,8.3-5.1,11.7-9.4c4.2-5.1,8.2-10.3,12.8-15c4.7-4.8,16.8-16.9,23.9-9.5
		c6.2,6.4,2.3,17.7-0.7,24.5c-5.5,12.5-11,23.9-10.9,38c0.2,26.4,14.4,50.3,20.6,75.4c5.6,22.8,7.1,46.7,3.9,70
		c-1.7,12.8-5,25.5-9.6,37.7c-2.3,5.9-4.9,11.8-7.7,17.5c-3.1,6.2-5.6,12.6-6.9,19.4c-0.2,1-0.3,2,0,3c0.5,1.5,2,2.4,3.5,2.6
		c6,0.6,11.5-7.4,14.8-11.5c5.4-6.7,9-14.6,12.2-22.5c5-12.3,8.5-25.1,10.6-38.2C925.7,530.8,924.6,503.2,918.3,476.6z"/>
</g>
<g id="Layer_1" class="st0">
	<path class="st4" d="M814.1,380.9c-31,8.8-66.2,3.8-99.6,3.9c-37.1,0.2-71.8,7.9-105.8,17.1c-34.6,9.3-68.9,19.9-99,37.5
		c-27.8,16.3-50.8,38.4-68.4,65.5c-8.7,13.4-16,27.7-22,42.5c-3.3,8.2-7.6,16-9.6,24.7c-2.4,10.5-4.1,22.1-3.1,32.9
		c0.2,1.7,0.4,3.5,1.5,4.9c2.9,4,6.6,0.3,8.2-2.7c10.3-19.3,16-40.4,25.1-60.1c12.4-26.9,29.2-51,51-70.1
		c24.5-21.5,54.9-35.1,86.6-45.9c31.8-10.8,64.8-20.2,98.9-25.7c32-5.3,65.6-2.8,98.4-5.2c15.4-1.1,30-3.9,43.4-9.8
		C825.1,388,819.7,379.3,814.1,380.9z"/>
	<path class="st4" d="M807.9,769.1c-2.5-2.2-4.5-2.7-7.7-1.3c-13.8,6.1-23.7,16.7-34.3,27.1c-10.9,10.8-23.4,20.1-35.7,29.2
		c-27,19.9-56.6,36.8-87.7,50.7c-27.5,12.3-57.5,21.7-90.9,18c-28.4-3.1-57.7-12.7-85.4-10.6c-15.1,1.1-27.7,6.7-38.8,15.2
		c-10.1,7.8-21.7,20.3-38,14.1c-15.2-5.8-8.7-20.9-4.7-29.5c6.9-15.1,14-30.1,19.4-46c8.2-24.1,9.1-50,8.5-75.2
		c-0.3-13.4-1.5-26.9-6.4-39.5c-2-5.2-6.1-8.2-8.8-2c-1.7,3.9-2.3,8.3-2.7,12.5c-0.6,6.2-0.5,12.5-0.4,18.7
		c0.1,3.8,0.2,7.6,0.2,11.4c0.2,12.6-0.1,25.3-1.9,37.8c-2.5,17.5-8.3,33.5-15,49c-6,13.8-15.5,27.8-16.4,44.1
		c-0.9,17.6,12.6,32.9,30,37.3c18.5,4.6,32.1-3.9,44.3-13.7c11.2-8.9,22.1-15.2,37.7-16.1c14-0.8,28.8,2,43.3,4.7
		c14.9,2.8,29.9,5.9,44.6,6.8c17.6,1,34.4-0.9,50.5-5.1c34-8.7,65.2-24.4,94.3-41.7c20.9-12.4,41-26,59.7-41.5
		c8.9-7.4,17.9-15.4,25.6-24.3c0.9-1,2.7-3.1,4.8-5.8C802.4,785.5,811.7,772.5,807.9,769.1z"/>
	<g class="st5">
		<path class="st3" d="M337.5,679.3c-0.1-14,0-28-0.2-42c-0.2-13.6-0.5-27.2-0.9-40.9c-0.2-6.6-0.4-13.2-0.6-19.9
			c-0.2-6.7-0.1-14.7-2.6-21c-1.7-4.4-7.8-3.5-8.3,0.4c-0.6,1.6-1,3.3-1.4,5.1c-0.6,1.5-1.2,3-1.3,3.3c-0.1,0.7,0.2,1.3,0.6,1.7
			c-0.3,3.2-0.3,6.4-0.4,9.3c-0.2,6.6-0.4,13.2-0.6,19.9c-0.4,14-0.8,28-0.9,42c-0.2,13.6-0.1,27.2-0.2,40.9
			c-0.1,12.8-2.1,28.5,3.1,40.4c1.8,4,8.7,4,10.4,0C339.5,707,337.6,691.7,337.5,679.3z"/>
		<path class="st3" d="M414.8,629.4c-7-4.1-15.7-2.8-22.8,0.5c-14.7,6.8-28,20.1-36.5,33.7c-8.1,12.9-16,34.6-0.9,45.8
			c14.3,10.6,33-4.5,43-14.6c5.3-5.3,9.8-11.4,13.5-17.9c0,2.3,0.1,4.6,0.2,6.9c0.4,7.4-0.5,17.3,8.3,19.7c1.6,0.4,3.4-1.5,2.3-3
			c-1.6-2.2-0.8-6.1-0.7-8.7c0.3-5,0.8-9.9,0.9-14.9c0.3-9.7,0-19.4-0.3-29.2c0.9-0.3,1.7-1.1,1.8-2.3
			C424.6,638.6,420.6,632.8,414.8,629.4z M393.1,683.9c-5.8,5.9-31.7,26.6-33.2,7.8c-1.2-14.1,12-29.3,21.5-38.1
			c5.4-5,11.2-10.2,18.1-13.1c5.1-2.2,11.9-2.7,16.3,0.7c-1.9,0.5-3.6,2.1-3.9,4.7C410.1,660.4,403.3,673.5,393.1,683.9z"/>
		<path class="st3" d="M492,716.6c-0.3-8-0.4-16.1-0.6-24.1c-0.2-10.1-0.5-20.3-0.8-30.4c0.4-6.7,0-13.6-0.3-20.1
			c-0.3-5.1-8.1-5.2-8,0c0.1,4.9,0.1,9.9,0.1,14.8c-0.4,6.3-1.7,12.4-5.2,17.7c-4.4,6.7-11.1,12.9-19.7,11.2
			c-10.7-2.2-8.6-12.5-8.4-21c0.1-4,2.3-25.5-6.3-23.4c-6.3,1.5-5.7,11.3-6.3,16.4c-0.9,7-1.9,14.8-1.1,21.9
			c1.4,11.9,11.5,19.9,23.1,20.7c9.6,0.7,18.3-4.6,23.9-12.1c-0.1,12.4-0.3,24.8-0.7,37.2c-0.4,11.7-4.9,21.8-15.2,28
			c-5,3-10.5,5.2-16.3,6.3c-6.3,1.2-12.8,0.6-19,2.2c-3.9,1-5.2,7.4-1.2,9.2c12,5.4,29.3,2.4,40.5-4c10.5-6,19.5-16.9,21.2-29.1
			C492.8,730.9,492.3,723.7,492,716.6z"/>
		<path class="st3" d="M665.5,663.6c-2.2-11.9-11-20.5-21.4-25.5c1.5-0.7,1.1-3.2-0.5-3.8c-7.4-2.6-13.1-1.7-19.7,2.8
			c-6.3,4.3-10.8,10.4-14.5,17.1c-6.8,12.5-16.3,31.1-3.2,43c10.9,9.9,29.6,9.4,41.9,2.5C660.8,692.8,668.2,677.9,665.5,663.6z
			 M633.3,692c-6,1-14.5,0.5-19.1-4c-5.3-5.3-1.3-14.4,1.1-20.2c4.1-9.6,9.4-20.1,18.3-25.7c7.7,6.2,16.5,13.1,19.2,22.4
			C656.7,677.7,645.9,689.8,633.3,692z"/>
		<path class="st3" d="M734.8,655.1c-2.4-13.7-11-24.5-25.7-24.9c-8.6-0.3-16.3,3.3-22.1,9c-0.1-1.1-0.3-2.2-0.5-3.3
			c-0.5-2.6-4.6-2.5-5.1,0c-1,4.4-1.6,9.1-1.9,13.8c-0.2,0.4-0.4,0.8-0.6,1.3c-6.8,15.4-4.3,32.2-1.5,48.3c1,5.7,9.9,4.2,9.9-1.3
			c0.1-10.6,0.2-21.2,0.3-31.8c0-3.1,0.1-6.2,0.1-9.3c3.7-9.1,11.7-16.9,22.2-16c12.4,1.1,14.4,13.6,15.4,23.7
			c1.4,13.4,1.1,27,2.2,40.5c0.2,2.9,4.2,3.6,5.2,0.7C738.2,689.4,737.7,671.9,734.8,655.1z"/>
		<path class="st3" d="M812.7,680.6c-0.1-9.8-0.4-19.6-0.9-29.4c-0.2-3.5-4.3-5.3-6.9-4.1c-0.1-0.2-0.3-0.5-0.5-0.7
			c-3-3-5.1-5.5-9.2-7.1c-3.4-1.3-7.2-1.9-10.8-2c-8.1-0.2-16.3,2.3-22.7,7.2c-13.4,10.3-19.2,30-14.7,46.2
			c2.1,7.5,6.9,14.5,14.7,16.6c8.6,2.3,17-2.1,23.4-7.5c7.1-6,13-13.5,17.5-21.7c0,0.9,0,1.7,0,2.6c0.1,7.5-1.4,18.2,3.6,24.4
			c0.8,0.9,2.7,1,3.4,0C814.6,698.6,812.8,688.2,812.7,680.6z M786.4,685.4c-4.3,4.7-9.5,9.9-16,11.3c-6.9,1.5-11-3.7-12.5-9.8
			c-2.8-11.1,0.8-24.5,9-32.5c8.6-8.4,23.9-10.7,34.2-3.7c0.5,0.4,1.1,0.5,1.6,0.4C800.6,663.9,795.2,675.7,786.4,685.4z"/>
		<path class="st3" d="M886.1,708.7c-0.3-17.3-0.6-34.5-0.8-51.8c0-1.4,0-2.7-0.1-4.1c-0.1-2-1.3-3.3-2.8-3.8
			c-2.3-7.6-7.4-14.2-15.6-16.3c-15.9-4.2-29.4,11.7-36.3,23.9c-7.7,13.7-11.1,31-0.7,44.3c9.5,12.2,25.3,12.8,36.6,2.8
			c4-3.6,7.4-7.8,10.1-12.5c0,2,0,3.9-0.1,5.9c-0.2,13.2,1.5,28.4-2.6,41.1c-3.7,11.4-15.9,15.8-26.5,18.2
			c-10.6,2.4-19.9,2.7-29.4-3.1c-1.9-1.2-5,0.8-4.1,3.2c4.5,11.5,18.4,15.1,29.7,14.4c13.1-0.8,28.6-6.3,36.5-17.3
			C889,740.9,886.3,723.2,886.1,708.7z M862.3,694.8c-4.6,4.1-11.5,7.3-17.7,4.8c-5.9-2.4-9.7-8.8-10.6-14.9
			c-2.1-13.9,8-31.8,19.4-39.3c5.6-3.7,12.7-4.3,17.7,0.8c2.5,2.5,4.3,5.9,5.8,9.4c0,2.2,0,4.4-0.1,6.6
			C875.8,674.3,871.4,686.7,862.3,694.8z"/>
		<path class="st3" d="M587.2,665.7c-1-8.7-1.1-22.8-11.5-25.9c-10.5-3.1-18.8,8.5-23.9,15.8c-0.8,1.2-1.6,2.3-2.3,3.6
			c-0.2-3-0.6-6.1-0.9-9.1c-1.3-10.3-8.8-18.9-20-14.6c-5.8,2.2-9.7,7.3-12.4,13.1c-0.8-5.2-1.6-10.5-2.7-15.6
			c-1-4.8-8.2-3.5-8.3,1.1c-0.4,21.7,2.2,43.4,4,65c0.7,7.8,12.4,8.1,12.3,0c-0.1-8.6-0.3-17.3,0.6-25.9c0.9-7.8,2.6-17.4,7.4-23.9
			c2.1-2.8,5.7-4.9,7.1-0.4c1.2,3.9,1.1,8.5,1.4,12.5c0.6,9.3,0.7,18.7,0.2,28c-0.3,6.4,10.2,8,11.3,1.5c1.6-8.6,4.2-17,8.2-24.8
			c1.8-3.4,10.3-20.3,15.8-16.6c2.3,1.6,2.5,7.7,2.8,10c0.6,4.7,1,9.5,1.3,14.2c0.6,9.3-0.4,20.4,3.3,29.2c0.6,1.5,2.9,2.2,3.8,0.5
			C590.8,692.7,588.5,677.4,587.2,665.7z"/>
		<path class="st3" d="M955.7,678.2c-10.2,5.6-22.9,11.3-34.7,11.7c-10.2,0.3-13-6.1-13-13.6c7.7,1.5,15.6-3,22.1-7.5
			c6.8-4.7,12.4-11.7,12.5-20.3c0.1-8.8-5.9-16-14.5-17.4c-8.9-1.5-17.3,3.2-22.5,10.2c-6.2,8.3-8.7,19.4-10.1,29.5
			c-1.3,10.1-0.7,20.8,8.1,27.5c17,13,45.1-1.3,55.6-16.6C960.8,679.5,957.8,677,955.7,678.2z M910.1,662.3
			c1.2-4.9,2.6-10.2,5.7-14.2c3.1-4.1,11.4-8.7,15.5-2.8c7.1,10.1-12.6,23.2-22.7,24.5C909,667.2,909.5,664.6,910.1,662.3z"/>
	</g>
	<path class="st4" d="M869.6,377.5c-0.2,0-0.2,0.3,0,0.3C869.8,377.7,869.8,377.5,869.6,377.5z"/>
</g>
<g id="Layer_3">
	<path class="st2" d="M1197.2,324.8c-6.7-29.4-17.4-57.1-26.9-85.5c-9.5-28.6-18.7-60.1-11.2-90.3c7-28.2,25-51.8,26.7-81.7
		c1.4-25.3-9.1-53-32.5-63.2c-31.4-13.7-62.7,9.8-83.2,33c-10.7,12.1-20.4,26.2-26.6,41.5c-2.8,7.1-7.2,15.3-6.2,23.2
		c0.5,4.3,4.4,11.4,9.4,11.3c12.3-0.3,16.5-10.7,23.5-19.7c8.4-10.8,16.4-21.6,25.7-31.6c9.5-10.2,33.7-35.4,47.9-20
		c12.4,13.4,4.6,37.2-1.4,51.5c-11,26.3-22,50.3-21.9,79.8c0.3,55.5,28.9,105.6,41.3,158.5c11.2,47.8,14.2,98.2,7.9,147.1
		c-3.5,27-10.1,53.7-19.2,79.1c-4.5,12.5-9.8,24.7-15.5,36.7c-6.2,13-11.3,26.5-13.7,40.9c-0.3,2.1-0.6,4.2,0,6.2
		c0.9,3.1,3.9,5.1,7,5.4c12,1.3,23.1-15.6,29.6-24.2c10.7-14.1,18-30.6,24.4-47.2c10-25.8,17-52.8,21.2-80.3
		C1212,438.6,1209.8,380.7,1197.2,324.8z"/>
	<path class="st2" d="M988.5,123.8c-62.1,18.5-132.5,7.9-199.4,8.2c-74.3,0.3-143.7,16.6-211.7,35.8
		c-69.2,19.6-137.9,41.8-198.2,78.7c-55.7,34.2-101.6,80.7-137,137.5c-17.5,28.1-32,58.1-44,89.2c-6.7,17.2-15.3,33.7-19.3,51.9
		c-4.8,22.2-8.2,46.5-6.1,69.2c0.3,3.6,0.9,7.3,2.9,10.2c5.9,8.4,13.2,0.7,16.4-5.6c20.7-40.6,31.9-84.8,50.2-126.2
		c24.9-56.6,58.4-107.2,102-147.3c49.1-45.1,110-73.8,173.4-96.4c63.7-22.7,129.8-42.3,198-54c64.1-11,131.3-5.9,196.9-10.9
		c30.9-2.4,60-8.1,86.9-20.6C1010.6,138.6,999.7,120.5,988.5,123.8z"/>
	<path class="st2" d="M976.1,939.1c-5-4.7-9-5.6-15.3-2.7c-27.7,12.9-47.5,35-68.6,56.9c-21.8,22.7-46.9,42.3-71.5,61.4
		c-54.1,41.8-113.2,77.4-175.7,106.5c-55.2,25.8-115.1,45.5-182,37.8c-56.9-6.6-115.4-26.7-171-22.3c-30.3,2.4-55.4,14-77.6,32
		c-20.3,16.5-43.5,42.6-76.1,29.6c-30.5-12.2-17.4-43.9-9.5-62c13.8-31.7,27.9-63.2,38.8-96.7c16.4-50.7,18.2-105,17.1-158
		c-0.6-28.2-3-56.4-12.8-82.9c-4.1-11-12.2-17.2-17.5-4.2c-3.3,8.2-4.6,17.5-5.5,26.3c-1.3,13-1,26.2-0.8,39.3
		c0.1,8,0.4,16,0.5,23.9c0.4,26.5-0.3,53.1-3.8,79.4c-4.9,36.8-16.5,70.4-30.1,102.9c-12.1,29-31.1,58.4-32.8,92.7
		c-1.9,37,25.2,69.2,60.1,78.4c36.9,9.7,64.3-8.3,88.8-28.7c22.4-18.7,44.2-31.9,75.5-33.7c28.1-1.7,57.7,4.1,86.7,9.8
		c29.8,5.9,59.8,12.5,89.3,14.3c35.2,2.1,68.9-2,101-10.6c68.1-18.3,130.6-51.3,188.9-87.6c41.8-26,82.1-54.7,119.5-87.2
		c17.9-15.5,35.9-32.3,51.2-51c1.7-2.1,5.3-6.5,9.5-12.1C965.2,973.6,983.7,946.2,976.1,939.1z"/>
	<g>
		<path class="st3" d="M34.4,745.3c-0.1-28.1-0.1-56.1-0.4-84.2c-0.3-27.3-1-54.6-1.8-81.8c-0.4-13.2-0.7-26.5-1.1-39.7
			c-0.4-13.5-0.3-29.3-5.2-42c-3.4-8.7-15.6-7-16.7,0.8c-1.2,3.2-2.1,6.7-2.7,10.3c-1.2,3-2.4,6-2.5,6.6c-0.3,1.3,0.3,2.5,1.2,3.3
			c-0.5,6.4-0.7,12.8-0.9,18.6C4,550.5,3.6,563.8,3.2,577c-0.8,28-1.5,56.1-1.9,84.2C1,688.4,1.1,715.7,0.9,743
			c-0.1,25.5-4.3,57.1,6.3,80.9c3.5,7.9,17.3,7.9,20.9,0C38.4,800.7,34.5,770.2,34.4,745.3z"/>
		<path class="st3" d="M189.1,645.4c-14.1-8.2-31.4-5.6-45.6,0.9c-29.5,13.7-56,40.2-73,67.5c-16.1,25.8-32,69.3-1.8,91.6
			c28.6,21.2,66.1-9.1,86.2-29.3c10.6-10.6,19.7-22.8,27.1-35.9c0.1,4.6,0.2,9.2,0.5,13.8c0.7,14.8-1,34.6,16.6,39.5
			c3.2,0.9,6.9-3.1,4.6-6c-3.2-4.3-1.7-12.2-1.4-17.4c0.5-9.9,1.6-19.9,1.9-29.8c0.6-19.5,0-38.9-0.6-58.4c1.8-0.5,3.4-2.1,3.6-4.5
			C208.8,663.9,200.7,652.2,189.1,645.4z M145.6,754.6C134,766.4,82.2,808,79.2,770.3c-2.3-28.2,24-58.6,43.1-76.3
			c10.8-10,22.5-20.3,36.1-26.3c10.2-4.4,23.9-5.4,32.5,1.3c-3.8,1.1-7.2,4.2-7.8,9.4C179.7,707.5,166.1,733.8,145.6,754.6z"/>
		<path class="st3" d="M343.7,819.9c-0.6-16.1-0.9-32.2-1.3-48.3c-0.5-20.3-1.1-40.6-1.6-60.9c0.7-13.5,0-27.2-0.7-40.2
			c-0.5-10.2-16.1-10.4-16,0c0.1,9.9,0.2,19.7,0.3,29.6c-0.8,12.5-3.4,24.8-10.4,35.5c-8.7,13.5-22.2,25.8-39.4,22.3
			c-21.5-4.4-17.3-25.1-16.9-42.1c0.2-8,4.7-51-12.6-46.8c-12.6,3.1-11.3,22.7-12.7,32.9c-1.8,14.1-3.9,29.7-2.2,43.8
			c2.8,23.8,23,39.9,46.3,41.5c19.2,1.3,36.7-9.1,47.9-24.1c-0.1,24.8-0.5,49.6-1.3,74.4c-0.7,23.4-9.9,43.6-30.4,56
			c-10.1,6.1-21,10.4-32.5,12.7c-12.6,2.5-25.6,1.3-38,4.4c-7.8,2-10.5,14.7-2.4,18.3c23.9,10.7,58.7,4.7,81-7.9
			c21.1-11.9,39-33.9,42.4-58.2C345.4,848.6,344.2,834.2,343.7,819.9z"/>
		<path class="st3" d="M691,713.9c-4.5-23.9-21.9-41.1-42.9-51.1c3.1-1.5,2.1-6.5-1-7.6c-14.8-5.1-26.2-3.3-39.4,5.6
			c-12.7,8.6-21.7,20.9-28.9,34.2c-13.6,25.1-32.6,62.3-6.4,86.1c21.9,19.9,59.2,18.7,83.9,5.1C681.6,772.3,696.4,742.5,691,713.9z
			 M626.6,770.8c-12,2.1-29.1,1.1-38.2-8.1c-10.7-10.7-2.6-28.8,2.3-40.3c8.1-19.2,18.9-40.1,36.6-51.5c15.5,12.5,33,26.2,38.5,44.9
			C673.4,742.2,651.8,766.4,626.6,770.8z"/>
		<path class="st3" d="M829.8,696.9c-4.8-27.4-22-49-51.4-49.9c-17.2-0.5-32.6,6.6-44.2,18c-0.3-2.2-0.6-4.4-1-6.5
			c-0.9-5.3-9.2-4.9-10.3,0c-2.1,8.9-3.2,18.2-3.8,27.6c-0.4,0.8-0.8,1.7-1.2,2.5c-13.7,30.8-8.7,64.5-3,96.6
			c2,11.4,19.7,8.4,19.8-2.7c0.2-21.2,0.3-42.4,0.5-63.6c0-6.1,0.2-12.4,0.3-18.6c7.4-18.3,23.4-33.8,44.4-32
			c24.8,2.1,28.8,27.2,30.8,47.5c2.7,26.9,2.3,54,4.4,81c0.5,5.9,8.4,7.2,10.3,1.4C836.5,765.7,835.7,730.5,829.8,696.9z"/>
		<path class="st3" d="M985.9,747.9c-0.2-19.7-0.8-39.3-1.8-58.9c-0.4-6.9-8.7-10.6-13.8-8.1c-0.2-0.5-0.5-0.9-1-1.4
			c-6.1-6-10.2-11-18.5-14.2c-6.9-2.6-14.4-3.9-21.7-4.1c-16.2-0.5-32.7,4.6-45.5,14.5c-26.9,20.6-38.4,60.1-29.4,92.4
			c4.2,15,13.7,29.1,29.5,33.2c17.3,4.5,34-4.1,46.8-15.1c14.2-12.1,25.9-27,35-43.5c0,1.7,0,3.4,0,5.2c0.1,15-2.9,36.4,7.3,48.8
			c1.5,1.9,5.3,1.9,6.9,0C989.5,784,986,763.1,985.9,747.9z M933.2,757.5c-8.5,9.4-19.1,19.8-31.9,22.5c-13.9,3-21.9-7.5-25.1-19.6
			c-5.7-22.2,1.7-49.1,18-65.1c17.3-16.9,47.8-21.4,68.6-7.4c1,0.7,2.1,0.9,3.1,0.8C961.5,714.4,950.8,738.1,933.2,757.5z"/>
		<path class="st3" d="M1132.7,806.3c-0.6-34.5-1.2-69.1-1.6-103.6c0-2.8,0-5.5-0.1-8.2c-0.2-4.1-2.7-6.6-5.7-7.6
			c-4.5-15.2-14.9-28.4-31.3-32.7c-31.9-8.3-58.9,23.3-72.6,47.8c-15.4,27.5-22.2,62.1-1.4,88.7c19.1,24.4,50.6,25.6,73.3,5.6
			c8.1-7.1,14.8-15.7,20.2-25.1c-0.1,4-0.1,7.9-0.2,11.9c-0.4,26.3,3,56.8-5.3,82.2c-7.4,22.7-31.9,31.6-53.1,36.5
			c-21.2,4.9-39.8,5.4-58.8-6.2c-3.9-2.4-10.1,1.6-8.2,6.3c9.1,23,36.9,30.2,59.5,28.8c26.3-1.6,57.2-12.6,73-34.7
			C1138.4,870.7,1133.2,835.2,1132.7,806.3z M1085.2,778.4c-9.3,8.3-23,14.7-35.4,9.6c-11.9-4.9-19.4-17.7-21.3-29.9
			c-4.3-27.7,15.9-63.7,38.8-78.7c11.3-7.4,25.4-8.7,35.4,1.6c4.9,5.1,8.5,11.8,11.5,18.8c0,4.4-0.1,8.8-0.1,13.2
			C1112.2,737.3,1103.3,762.2,1085.2,778.4z"/>
		<path class="st3" d="M534.4,718.2c-1.9-17.5-2.1-45.6-23-51.8c-21-6.2-37.6,17-47.8,31.7c-1.6,2.3-3.2,4.7-4.6,7.1
			c-0.5-6.1-1.1-12.1-1.9-18.1c-2.7-20.6-17.5-37.9-40-29.3c-11.6,4.4-19.3,14.7-24.7,26.2c-1.5-10.5-3.3-20.9-5.4-31.3
			c-1.9-9.6-16.5-7.1-16.7,2.3c-0.7,43.4,4.4,87,8.1,130.1c1.3,15.6,24.8,16.1,24.7,0c-0.2-17.2-0.6-34.6,1.3-51.8
			c1.7-15.7,5.2-34.8,14.8-47.8c4.2-5.7,11.5-9.8,14.2-0.8c2.4,7.9,2.3,16.9,2.8,25.1c1.3,18.7,1.4,37.4,0.5,56.1
			c-0.6,12.8,20.4,16,22.7,3.1c3.1-17.3,8.4-34,16.5-49.6c3.6-6.9,20.6-40.6,31.6-33.2c4.7,3.1,5.1,15.5,5.6,20.1
			c1.2,9.5,2.1,19,2.7,28.5c1.2,18.7-0.8,40.8,6.5,58.4c1.3,3.1,5.7,4.5,7.6,1C541.6,772.2,537,741.6,534.4,718.2z"/>
		<path class="st3" d="M1272.1,744.1c-20.4,11.2-45.8,22.7-69.5,23.4c-20.4,0.7-26-12.1-26-27.3c15.5,2.9,31.2-6.1,44.2-15.1
			c13.6-9.4,24.8-23.4,25.1-40.6c0.3-17.6-11.8-32-29.1-34.8c-17.9-3-34.5,6.5-45,20.5c-12.4,16.7-17.4,38.8-20.1,59.1
			c-2.7,20.2-1.4,41.7,16.1,55.1c34.1,26,90.2-2.5,111.3-33.3C1282.2,746.7,1276.4,741.8,1272.1,744.1z M1180.8,712.3
			c2.4-9.7,5.2-20.3,11.4-28.4c6.3-8.1,22.7-17.3,31.1-5.6c14.3,20.2-25.3,46.5-45.5,49.1C1178.5,722.2,1179.6,717,1180.8,712.3z"/>
	</g>
	<path class="st2" d="M1099.7,116.5c-0.4,0-0.4,0.6,0,0.6C1100,117.1,1100,116.5,1099.7,116.5z"/>
</g>
</svg>
